<?xml version="1.0" standalone="no"?>
<!DOCTYPE svg PUBLIC "-//W3C//DTD SVG 20010904//EN"
 "http://www.w3.org/TR/2001/REC-SVG-20010904/DTD/svg10.dtd">
<svg version="1.0" xmlns="http://www.w3.org/2000/svg"
 width="1024.000000pt" height="1024.000000pt" viewBox="0 0 1024.000000 1024.000000"
 preserveAspectRatio="xMidYMid meet">

<g transform="translate(0.000000,1024.000000) scale(0.100000,-0.100000)"
fill="#000000" stroke="none">
<path d="M1544 10213 c-8 -31 -17 -1738 -8 -1790 18 -117 23 51 27 870 2 496
7 912 11 925 6 16 5 22 -7 22 -8 0 -18 -12 -23 -27z"/>
<path d="M1616 10208 c-13 -64 -24 -2199 -18 -3403 4 -671 7 -2477 7 -4013 l0
-2792 25 0 25 0 0 5078 c1 2792 4 5096 8 5120 7 40 6 42 -17 42 -19 0 -25 -7
-30 -32z"/>
<path d="M1724 10223 c-5 -10 -10 -2313 -12 -5120 l-2 -5103 360 0 360 0 0
457 0 456 -55 56 c-30 31 -55 59 -56 63 -1 15 -235 251 -257 259 -13 5 -20 13
-17 19 3 5 0 7 -8 4 -10 -4 -15 1 -14 13 1 10 -4 17 -10 15 -10 -1 -13 18 -13
73 0 58 3 75 14 75 21 0 146 -67 175 -93 44 -40 100 -136 95 -162 -2 -14 0
-25 5 -25 6 0 8 -7 5 -15 -5 -13 -8 -13 -18 -2 -15 20 -49 31 -43 15 2 -7 13
-12 23 -10 15 2 16 1 5 -7 -11 -7 0 -29 53 -107 37 -55 78 -112 92 -129 l25
-30 -3 207 c-3 198 -4 207 -25 230 -13 14 -23 29 -23 35 0 5 -37 48 -82 94
-46 46 -99 109 -119 139 -20 30 -47 72 -60 92 -16 24 -26 33 -31 25 -5 -8 -8
-7 -8 4 0 9 -9 24 -20 34 -27 25 -22 63 11 88 26 18 28 18 63 2 51 -24 109
-95 158 -192 38 -76 39 -83 24 -98 -20 -20 -21 -39 -2 -32 10 4 14 0 11 -11
-3 -21 39 -85 49 -74 4 4 6 2 4 -4 -3 -11 33 -84 42 -84 3 0 3 47 2 104 -2 57
1 119 6 139 7 26 7 36 -1 34 -6 -1 -16 8 -22 20 -7 13 -15 20 -18 16 -4 -3 -7
1 -7 10 0 8 6 18 13 20 10 4 10 6 0 6 -16 1 -17 80 -3 133 11 39 42 68 73 68
10 0 29 13 42 28 13 15 45 40 72 55 107 58 174 42 175 -42 0 -32 -7 -54 -29
-84 -36 -52 -148 -138 -168 -131 -11 5 -14 2 -9 -12 4 -11 4 -16 -1 -12 -4 4
-16 -3 -26 -15 -12 -15 -18 -17 -19 -8 0 8 -11 -8 -25 -35 -23 -45 -25 -60
-25 -184 l0 -134 50 49 c47 47 49 50 30 60 -20 11 -20 12 12 59 57 88 220 201
315 221 56 11 92 -50 63 -106 -6 -10 -33 -37 -60 -58 -27 -21 -46 -41 -43 -45
4 -3 1 -6 -5 -6 -7 0 -12 7 -12 16 0 31 -240 -118 -313 -193 l-27 -30 2 -199
3 -199 64 80 c35 44 58 75 51 68 -10 -9 -16 -8 -28 3 -12 13 -13 22 -4 52 30
100 167 207 290 227 58 9 92 -12 92 -58 0 -37 -24 -77 -46 -77 -8 0 -29 -7
-46 -16 -38 -20 -188 -133 -243 -184 -22 -20 -52 -44 -68 -53 -28 -18 -37 -39
-14 -33 6 1 9 1 5 -1 -4 -3 -10 -4 -14 -3 -4 1 -15 -11 -25 -27 -16 -24 -19
-49 -19 -191 0 -191 -17 -188 148 -33 109 103 128 131 74 110 -15 -6 -40 -12
-57 -14 -28 -4 -26 0 39 60 83 79 207 145 271 145 47 0 75 -22 75 -58 0 -22
-34 -65 -43 -55 -3 2 -8 -4 -11 -15 -4 -10 -26 -29 -51 -41 -25 -12 -45 -26
-45 -31 0 -9 -19 -20 -90 -56 -19 -9 -44 -25 -55 -34 -11 -9 -29 -20 -39 -24
-17 -6 -17 -5 -5 10 8 10 -37 -23 -98 -72 l-112 -89 0 -170 c0 -162 0 -169 17
-150 19 23 120 98 234 173 42 29 80 57 83 63 8 12 -97 -39 -105 -52 -3 -4 -19
-11 -35 -15 -17 -4 -43 -16 -60 -28 -28 -19 -27 -17 9 24 154 177 348 266 420
194 20 -19 20 -66 1 -103 -11 -23 -19 -27 -40 -24 -14 3 -25 9 -25 14 0 6 -25
-6 -55 -26 -53 -33 -117 -65 -142 -69 -7 -1 -16 -6 -20 -11 -4 -4 -2 -5 4 -1
7 4 13 2 13 -5 0 -7 -8 -9 -21 -6 -24 6 -114 -44 -212 -118 l-66 -50 -1 -77 0
-78 194 0 194 0 -9 36 c-20 71 11 134 66 134 47 0 93 -37 134 -107 l36 -62 76
-1 c61 0 79 4 93 18 32 37 127 76 191 80 58 4 63 2 83 -23 12 -15 22 -38 22
-51 l0 -24 1910 0 c1099 0 1910 4 1910 9 0 14 -73 76 -105 89 -44 17 -194 31
-199 18 -2 -7 -11 -4 -22 7 -64 61 149 90 263 36 39 -19 86 -67 126 -131 l17
-28 630 0 629 0 4 82 3 83 2 -82 2 -83 531 0 532 0 -6 257 c-19 786 -32 3284
-29 5533 3 1700 0 2505 -7 2570 -6 52 -13 140 -16 195 -3 55 -10 134 -15 175
-5 41 -13 125 -19 185 -6 61 -15 133 -20 160 -5 28 -16 100 -25 162 -9 61 -20
122 -25 135 -5 12 -17 50 -26 83 -9 33 -21 70 -26 83 -5 13 -9 32 -9 42 0 11
-6 34 -14 52 -8 18 -20 47 -27 63 -12 30 -33 83 -63 163 -9 23 -34 79 -56 122
-22 44 -40 86 -40 93 0 19 -99 127 -116 127 -8 0 -14 9 -14 20 0 20 -7 20
-426 20 -396 0 -426 -1 -420 -17 7 -18 15 -2736 9 -3015 l-4 -168 -84 0 -85 0
-29 47 c-16 26 -46 89 -67 140 -21 51 -44 93 -51 93 -7 0 -13 -7 -13 -16 0
-18 -46 -113 -98 -201 l-36 -63 -143 0 c-107 0 -144 3 -147 13 -1 6 -13 43
-25 81 -80 245 -323 381 -575 322 -33 -8 -65 -12 -72 -9 -6 2 -17 24 -24 49
-7 24 -17 44 -21 44 -5 0 -9 6 -9 14 0 8 -4 16 -8 18 -13 5 -73 158 -67 169 4
5 1 8 -7 7 -9 -2 -13 9 -12 40 1 41 0 43 -27 38 -25 -4 -29 1 -53 55 -27 63
-40 72 -52 37 -5 -16 -1 -27 15 -39 23 -19 41 -79 23 -79 -6 0 -13 8 -15 18
-4 13 -5 13 -6 -4 -1 -22 -29 -52 -40 -45 -3 2 -12 -7 -18 -20 -11 -20 -13
-21 -13 -5 0 19 0 19 -22 0 -12 -10 -18 -14 -15 -7 5 8 0 9 -23 0 -16 -6 -30
-15 -30 -19 0 -4 -9 -8 -19 -8 -11 0 -22 -4 -26 -10 -3 -5 -12 -7 -20 -3 -8 3
-15 1 -15 -5 0 -5 -9 -12 -20 -15 -23 -6 -28 20 -6 29 8 3 12 12 10 19 -3 7 2
29 10 50 9 20 14 41 11 45 -3 5 -1 11 5 15 6 4 8 10 5 15 -3 5 -1 11 4 15 6 3
8 12 4 20 -3 8 0 15 7 15 7 0 9 8 5 21 -4 12 -3 19 1 16 13 -7 18 89 18 298 0
198 -17 304 -75 478 -106 320 -331 596 -617 759 -185 106 -328 152 -529 170
-336 30 -668 -67 -953 -280 -319 -238 -516 -626 -545 -1072 -7 -106 6 -284 27
-365 6 -22 12 -66 13 -98 1 -32 6 -61 10 -65 4 -4 4 4 0 17 -4 15 -3 21 3 17
10 -6 22 -55 23 -88 0 -10 5 -18 11 -18 6 0 8 -3 5 -6 -11 -12 -36 17 -31 34
5 14 3 14 -6 -1 -10 -15 -8 -22 9 -36 12 -10 21 -27 22 -37 0 -18 1 -18 8 0 5
14 10 16 15 8 4 -7 4 -16 1 -22 -3 -5 -1 -10 4 -10 6 0 11 -5 11 -11 0 -6 -7
-9 -14 -6 -9 4 -17 -2 -21 -14 -8 -24 -26 -26 -20 -1 3 9 0 6 -7 -8 -7 -14
-21 -26 -31 -27 -15 -1 -18 4 -13 25 5 22 4 24 -4 10 -9 -15 -15 -12 -48 25
-20 23 -43 46 -50 50 -7 5 -11 18 -8 30 3 12 3 16 0 9 -5 -10 -10 -9 -25 4
-10 9 -19 22 -19 27 0 5 -11 20 -25 33 -14 13 -25 27 -25 32 0 6 -7 13 -16 16
-9 4 -14 13 -10 22 3 9 2 12 -5 9 -14 -9 -54 45 -51 70 2 14 0 16 -6 7 -7 -10
-15 -6 -36 18 -14 17 -24 36 -20 41 3 5 0 8 -8 7 -7 -2 -12 3 -10 10 1 6 -2
11 -6 10 -5 -2 -21 11 -35 28 l-26 31 51 -4 c28 -2 58 -1 67 2 13 5 12 10 -9
26 -77 62 -454 341 -466 346 -14 5 -118 -66 -109 -75 2 -3 11 1 19 7 9 8 16 8
20 2 4 -5 -2 -15 -11 -21 -15 -9 -12 -10 17 -6 25 4 31 3 20 -4 -8 -5 -21 -10
-29 -10 -7 0 -24 -11 -36 -24 -20 -22 -21 -25 -7 -29 13 -4 11 -5 -4 -6 -11 0
-29 -10 -38 -20 -17 -19 -17 -19 21 -6 21 8 52 14 68 14 19 0 2 -7 -43 -19
-69 -18 -139 -60 -142 -85 0 -5 -24 -27 -53 -48 -77 -56 -124 -96 -110 -97 6
0 31 16 55 34 24 19 68 50 98 68 50 30 63 33 140 35 47 0 72 -1 55 -3 -111
-15 -194 -38 -183 -50 2 -2 20 1 39 6 21 6 52 6 79 1 30 -6 36 -9 19 -10 -33
-1 -78 -20 -104 -44 -11 -10 -35 -29 -53 -43 -17 -14 -30 -29 -27 -34 3 -4
-25 -31 -61 -60 -78 -62 -78 -80 1 -24 102 72 189 124 209 124 16 0 11 -10
-28 -49 -42 -42 -46 -49 -25 -45 21 5 20 2 -10 -23 -125 -102 -281 -234 -286
-244 -5 -8 0 -9 16 -4 63 20 114 58 250 191 81 79 152 144 156 144 13 0 73
-64 73 -77 0 -6 -12 -19 -27 -28 -16 -10 -37 -28 -48 -39 -33 -34 -165 -150
-181 -159 -22 -13 -16 -24 16 -30 42 -9 38 -27 -6 -27 l-37 0 49 -42 c95 -83
460 -425 498 -468 21 -23 47 -62 57 -85 25 -56 36 -159 20 -179 -7 -8 -11 -30
-9 -48 2 -24 -1 -34 -13 -36 -14 -2 -17 14 -22 116 -6 145 -16 169 -106 260
-121 121 -432 406 -474 435 -38 26 -48 28 -117 25 -89 -4 -128 -26 -161 -91
-24 -45 -59 -201 -59 -259 l0 -38 356 -2 c344 -3 357 -4 370 -23 13 -20 11
-20 -111 -20 -69 0 -125 3 -125 8 0 4 -110 7 -245 7 -157 0 -245 -4 -245 -10
0 -5 -10 -10 -21 -10 -19 0 -20 4 -14 38 5 20 9 53 11 72 2 19 5 60 8 90 3 39
2 46 -3 25 -5 -16 -10 -46 -11 -65 -2 -31 -3 -30 -10 15 -4 28 -3 55 2 62 5 7
5 14 -2 18 -9 6 -14 -11 -12 -44 0 -14 -21 -41 -32 -41 -4 0 -1 9 6 20 17 27
6 33 -27 16 -16 -8 -33 -12 -38 -9 -6 4 -7 1 -2 -7 5 -8 -17 -35 -66 -81 -41
-38 -78 -69 -83 -69 -4 0 -17 -11 -28 -25 -11 -14 -25 -22 -31 -18 -7 3 -9 3
-5 -2 8 -8 -9 -35 -22 -35 -4 0 -8 21 -9 47 -1 45 1 49 56 100 94 88 254 218
265 215 5 -1 7 1 4 6 -3 5 22 35 55 68 49 48 122 134 202 242 6 8 6 12 -1 12
-21 0 -152 -117 -364 -325 -190 -185 -218 -209 -218 -185 0 28 41 75 55 63 4
-5 5 -3 2 3 -3 6 56 73 131 150 144 147 204 216 216 249 4 11 5 17 2 15 -7 -6
-160 -154 -299 -289 -91 -88 -107 -100 -107 -80 0 17 37 62 131 158 72 74 175
191 229 260 54 69 111 142 127 161 l28 35 -45 -35 c-25 -19 -141 -130 -257
-247 -176 -174 -213 -207 -213 -187 0 14 19 51 42 82 63 88 64 91 10 34 l-50
-53 -7 106 c-8 117 3 2478 12 2501 4 12 -17 14 -135 14 -123 0 -141 -2 -148
-17z m3739 -687 c330 -86 644 -340 811 -656 102 -194 145 -367 153 -610 6
-199 -6 -293 -58 -457 -60 -187 -199 -415 -326 -534 -121 -113 -330 -242 -428
-263 -29 -6 -31 -4 -57 51 -15 32 -42 83 -61 113 l-35 55 15 75 c20 91 12 154
-23 206 -24 35 -25 38 -7 47 10 6 32 24 48 41 l30 31 165 11 c161 10 165 10
180 -10 33 -45 50 -56 90 -56 39 0 39 0 33 -32 -9 -50 -28 -81 -72 -121 -45
-40 -51 -62 -22 -72 29 -9 83 18 116 56 32 39 75 125 75 153 0 18 1 19 20 1
20 -18 20 -18 14 12 -3 17 -1 40 5 52 6 11 14 38 16 58 3 21 8 57 11 80 5 35
3 43 -16 53 -21 11 -21 10 -7 -12 9 -14 12 -33 7 -48 -6 -24 -7 -23 -13 10 -7
35 -30 64 -99 127 -37 34 -36 32 -88 242 -22 88 -44 139 -91 208 -24 34 -32
64 -47 165 -11 68 -26 137 -35 155 -10 18 -17 39 -17 48 0 35 -44 143 -76 187
-39 53 -122 112 -190 135 -43 15 -46 17 -40 46 3 16 6 54 6 83 0 42 5 58 20
71 44 38 18 154 -51 222 -51 51 -87 61 -226 61 -116 0 -124 -1 -131 -21 -4
-11 -26 -30 -47 -42 -48 -27 -56 -53 -62 -191 -4 -96 -4 -100 21 -123 43 -39
35 -60 -26 -67 -81 -10 -184 -50 -241 -94 -91 -68 -128 -165 -143 -376 -5 -71
-13 -115 -30 -153 -13 -29 -27 -72 -30 -96 -4 -23 -15 -63 -25 -90 -44 -112
-33 -281 25 -402 19 -38 64 -106 101 -150 37 -44 71 -91 76 -104 7 -17 3 -47
-15 -110 -48 -164 -56 -293 -25 -430 5 -24 8 -45 6 -47 -7 -7 -149 67 -220
115 -101 68 -234 196 -313 300 -250 332 -318 800 -179 1231 153 471 556 811
1054 890 31 5 128 7 216 6 133 -3 177 -8 258 -30z m-101 -56 c64 -42 42 -50
-32 -12 -38 19 -73 32 -77 29 -3 -4 6 -21 22 -37 37 -38 26 -38 -27 0 -45 33
-71 39 -62 15 7 -17 -9 -19 -37 -5 -15 8 -19 7 -19 -4 0 -8 21 -27 48 -42 26
-15 50 -31 53 -36 3 -6 9 -9 13 -8 3 0 14 -4 24 -10 40 -25 -36 4 -107 41 -67
35 -91 41 -91 20 0 -4 22 -18 50 -31 27 -13 48 -25 46 -28 -2 -2 -14 2 -26 8
-12 7 -53 12 -90 12 -61 0 -67 2 -63 18 3 10 17 24 33 30 15 6 41 25 56 41
l29 30 110 -3 c97 -3 114 -6 147 -28z m-355 -124 c-4 -9 6 -23 26 -35 22 -14
27 -21 15 -21 -10 0 -18 -4 -18 -9 0 -5 8 -12 18 -14 9 -3 2 -5 -16 -6 -20 -1
-31 -5 -27 -11 3 -6 0 -17 -8 -25 -13 -13 -16 -13 -21 1 -11 27 -6 110 6 122
17 17 31 15 25 -2z m156 -209 c-3 -4 -1 -7 4 -6 19 3 34 -2 29 -10 -3 -4 22
-8 55 -7 54 1 63 4 87 31 14 16 23 23 20 15 -3 -8 -1 -27 3 -42 6 -24 5 -28
-12 -28 -21 0 -26 -16 -6 -23 6 -3 -5 -6 -25 -6 -21 -1 -38 -4 -38 -7 0 -3 12
-18 28 -34 55 -56 56 -60 20 -60 -43 0 -79 10 -73 20 3 5 -3 6 -13 3 -11 -2
-25 1 -33 9 -8 7 -21 14 -29 16 -26 6 -79 52 -75 65 2 6 11 39 20 72 l17 60
13 -30 c7 -17 10 -33 8 -38z m-71 -26 c-6 -43 -24 -56 -50 -34 -12 10 -24 29
-27 43 -5 21 -2 25 19 26 14 1 27 -5 30 -13 4 -11 1 -13 -14 -8 -14 4 -20 2
-20 -9 0 -20 23 -33 28 -17 4 11 6 11 13 0 6 -10 9 -6 9 13 0 15 -4 30 -10 33
-5 3 -10 14 -10 23 1 14 4 14 19 -5 12 -14 16 -32 13 -52z m317 -22 c1 8 3 12
6 9 9 -8 -6 -38 -16 -32 -5 3 -9 15 -8 27 0 21 1 21 9 2 5 -12 9 -14 9 -6z
m-385 -37 c3 -5 -20 -15 -52 -22 -31 -7 -77 -20 -102 -29 -60 -23 -181 -112
-204 -151 -19 -34 -56 -169 -56 -210 0 -22 4 -25 38 -26 45 -1 140 -28 167
-48 12 -8 -8 -5 -50 10 -71 24 -104 28 -141 18 -19 -5 -20 -9 -11 -34 9 -24
17 -28 59 -32 27 -3 55 -11 61 -18 10 -10 8 -11 -8 -6 -11 4 -43 10 -71 13
l-51 5 3 -88 c1 -49 5 -116 9 -148 5 -38 4 -57 -2 -53 -6 4 -13 62 -17 129
-25 403 19 550 190 636 40 20 132 47 189 55 17 2 33 5 37 6 4 0 9 -3 12 -7z
m26 -66 c-15 -55 -7 -93 31 -145 40 -56 28 -52 -16 5 -29 39 -35 55 -35 95 0
49 16 106 27 96 3 -4 0 -26 -7 -51z m466 1 c70 -36 131 -83 122 -92 -3 -3 -12
0 -19 8 -8 7 -53 34 -101 61 -49 26 -88 49 -88 52 0 11 30 1 86 -29z m-381
-64 c16 -24 16 -26 0 -20 -9 4 -21 7 -26 7 -5 0 -9 9 -9 20 0 28 14 25 35 -7z
m220 -45 c-15 -50 -43 -82 -95 -110 -30 -16 -44 -21 -31 -11 52 39 111 104
111 123 0 11 5 20 11 20 6 0 8 -9 4 -22z m159 -317 c3 -5 26 -91 51 -191 25
-100 55 -200 66 -221 10 -21 62 -103 114 -181 91 -136 96 -145 89 -183 -3 -22
-7 -41 -8 -42 -1 -2 -77 -4 -169 -5 -92 -2 -167 -7 -167 -11 0 -4 -21 -7 -46
-5 l-47 3 -17 85 c-10 47 -36 135 -60 195 -23 61 -49 136 -58 167 -16 57 -16
59 11 142 27 83 28 84 93 126 35 23 79 61 97 85 33 45 42 52 51 36z m-956
-176 c-13 -89 -15 -95 -28 -95 -17 0 -11 69 11 121 12 27 23 48 25 46 2 -1 -2
-34 -8 -72z m22 -26 c0 -5 -4 -9 -10 -9 -5 0 -10 7 -10 16 0 8 5 12 10 9 6 -3
10 -10 10 -16z m4121 -249 c4 14 6 -279 6 -650 -1 -470 -3 -605 -8 -445 -7
257 -8 270 -18 236 -3 -13 -7 59 -8 160 0 101 2 168 6 149 14 -77 21 9 20 258
-1 145 -5 246 -9 232 -5 -14 -8 50 -7 150 l1 175 6 -145 c3 -80 8 -134 11
-120z m-3982 187 c-14 -12 -32 -31 -38 -42 -11 -18 -12 -17 -6 10 7 32 29 55
54 55 12 -1 9 -7 -10 -23z m-1762 -23 c-3 -3 -12 -4 -19 -1 -8 3 -5 6 6 6 11
1 17 -2 13 -5z m1583 -17 c0 -7 -5 -18 -12 -25 -17 -17 -23 -182 -8 -254 16
-85 48 -150 117 -243 101 -136 99 -139 -9 -14 -116 137 -152 230 -151 395 1
63 6 101 17 123 16 31 46 43 46 18z m4257 -89 c-2 -13 -4 -3 -4 22 0 25 2 35
4 23 2 -13 2 -33 0 -45z m-5864 15 c-7 -2 -19 -2 -25 0 -7 3 -2 5 12 5 14 0
19 -2 13 -5z m-98 -23 c-32 -11 -61 -18 -63 -16 -5 6 80 34 103 35 11 0 -7 -9
-40 -19z m152 4 c-3 -3 -12 -4 -19 -1 -8 3 -5 6 6 6 11 1 17 -2 13 -5z m5810
-196 c-2 -29 -3 -8 -3 47 0 55 1 79 3 53 2 -26 2 -71 0 -100z m-5814 115 c-7
-2 -19 -2 -25 0 -7 3 -2 5 12 5 14 0 19 -2 13 -5z m-108 -57 c-27 -7 -72 -25
-100 -40 l-50 -29 30 27 c32 28 104 55 145 54 14 0 3 -5 -25 -12z m1859 -63
c28 -61 28 -86 0 -32 -17 34 -35 89 -29 89 2 0 15 -25 29 -57z m-1797 41 c-3
-3 -12 -4 -19 -1 -8 3 -5 6 6 6 11 1 17 -2 13 -5z m1918 -93 c3 -5 -5 -13 -17
-16 -36 -11 -56 -34 -52 -58 2 -12 -2 -6 -9 13 -13 33 -13 36 12 52 29 19 57
23 66 9z m1129 -7 c28 -11 18 -27 -11 -19 -37 9 -53 25 -26 25 12 0 28 -3 37
-6z m-2818 -149 c67 -69 118 -125 115 -125 -3 0 16 -22 43 -49 27 -27 45 -54
42 -60 -4 -6 0 -11 8 -11 25 0 19 11 -31 62 -26 26 -42 48 -36 48 13 0 69 -61
111 -123 18 -25 40 -51 50 -57 13 -7 5 -8 -28 -4 -100 14 -103 16 -192 115
-90 100 -138 132 -177 122 -17 -4 -19 -8 -9 -14 9 -6 9 -9 1 -9 -6 0 -14 4
-17 9 -3 5 -14 7 -25 4 -10 -2 -35 0 -55 5 -33 10 -41 7 -88 -23 -28 -19 -55
-32 -60 -29 -4 3 8 26 27 51 36 47 186 210 195 212 3 1 59 -55 126 -124z
m1721 111 c-3 -8 -1 -17 6 -19 7 -2 -12 -16 -40 -31 -44 -22 -53 -24 -53 -10
0 21 54 74 75 74 11 0 15 -5 12 -14z m1053 4 c-8 -5 -19 -10 -25 -10 -5 0 -3
5 5 10 8 5 20 10 25 10 6 0 3 -5 -5 -10z m-910 -25 c20 -24 6 -28 -15 -5 -10
11 -13 20 -8 20 6 0 16 -7 23 -15z m1017 -1 c4 -12 -42 -36 -51 -27 -8 9 25
44 38 40 5 -2 11 -8 13 -13z m33 -33 c0 -16 -18 -22 -26 -10 -4 8 -9 7 -15 -2
-4 -7 -11 -10 -14 -7 -4 4 -4 11 0 17 8 13 55 15 55 2z m-1190 -27 c13 -32 13
-111 1 -98 -5 5 -11 27 -13 49 -3 22 -8 48 -12 58 -5 10 -4 17 3 17 6 0 16
-12 21 -26z m164 5 c-3 -5 -10 -7 -15 -3 -5 3 -7 10 -3 15 3 5 10 7 15 3 5 -3
7 -10 3 -15z m826 0 c0 -11 -4 -17 -10 -14 -5 3 -10 13 -10 21 0 8 5 14 10 14
6 0 10 -9 10 -21z m-1027 -39 c-6 -17 -7 -30 -2 -30 5 0 9 -12 9 -26 0 -16 -5
-24 -12 -21 -7 2 -13 13 -13 24 0 11 -5 26 -11 34 -18 24 -24 48 -12 55 6 4
18 -2 26 -12 13 -18 14 -18 7 6 -6 21 -5 23 6 12 10 -10 11 -19 2 -42z m1157
40 c0 -5 -5 -10 -11 -10 -5 0 -7 5 -4 10 3 6 8 10 11 10 2 0 4 -4 4 -10z m98
-18 c2 -15 -2 -22 -12 -22 -11 0 -16 9 -16 26 0 31 23 28 28 -4z m-58 -24 c-1
-30 -36 -76 -48 -63 -11 12 5 78 18 70 5 -3 11 -1 15 5 10 16 15 12 15 -12z
m-1257 -26 c4 -21 3 -31 -3 -27 -6 3 -10 20 -10 37 0 38 5 34 13 -10z m1960 8
c0 -14 -29 -74 -62 -134 -34 -60 -61 -113 -61 -118 0 -4 -5 -8 -11 -8 -5 0 -8
-4 -5 -9 7 -10 -18 -33 -27 -25 -3 3 -3 -3 0 -15 7 -28 -12 -27 -31 1 -9 12
-16 19 -16 15 0 -4 -9 -3 -20 3 -11 6 -17 16 -14 22 4 6 3 8 -3 5 -6 -4 -36 4
-67 18 -31 14 -68 25 -81 25 -22 0 -24 2 -13 19 7 11 16 17 20 15 5 -3 8 -2 7
3 -4 25 2 43 13 37 8 -5 9 -2 5 10 -5 12 1 20 21 28 15 6 32 10 38 9 7 -1 15
6 18 15 5 13 9 14 21 4 12 -10 15 -9 15 5 0 12 6 16 19 12 12 -3 22 1 25 10 4
9 14 13 25 10 12 -3 22 1 25 9 3 8 15 14 26 14 11 0 20 5 20 11 0 6 7 9 15 5
8 -3 15 -2 15 2 0 11 51 31 70 28 9 -1 14 -11 13 -26z m-888 1 c-3 -5 0 -13 7
-18 18 -11 -56 -20 -184 -22 -60 -1 -108 2 -108 7 0 14 62 22 165 22 50 0 97
5 105 10 19 12 23 12 15 1z m-375 -30 c0 -10 -119 -19 -312 -24 -95 -2 -129 0
-132 9 -3 7 5 15 17 17 45 9 427 7 427 -2z m619 -32 c-14 -27 -19 -24 -19 12
0 27 2 30 15 19 11 -9 12 -17 4 -31z m-151 -7 c3 -22 -13 -52 -27 -52 -3 0 -7
18 -7 40 -1 33 2 40 15 38 9 -2 17 -14 19 -26z m839 5 c-2 -6 4 -19 12 -29 9
-10 16 -24 17 -31 2 -26 17 -57 26 -57 6 0 8 -7 4 -15 -3 -9 0 -15 8 -15 10 0
12 -7 8 -22 -4 -16 -2 -19 8 -13 10 6 12 4 7 -8 -3 -9 0 -18 8 -21 8 -3 12
-12 9 -20 -3 -8 0 -17 5 -21 7 -4 -13 -24 -46 -49 -32 -24 -69 -55 -82 -70
-29 -30 -34 -31 -56 -10 -9 9 -35 32 -58 51 -40 34 -56 71 -28 65 7 -1 10 2 5
9 -4 7 -1 17 7 23 8 6 14 16 14 21 2 26 38 94 48 88 6 -3 7 -1 3 5 -6 11 18
68 35 82 3 3 9 17 13 32 4 19 11 26 22 21 8 -3 13 -10 11 -16z m-3686 -29 c17
-14 117 -132 138 -163 8 -11 -13 8 -47 42 -34 34 -78 74 -97 89 -19 14 -32 30
-29 35 7 12 17 11 35 -3z m1682 -8 c-3 -11 -13 -20 -22 -20 -12 0 -13 -2 -3
-8 9 -6 8 -17 -8 -49 -11 -23 -20 -56 -22 -75 -1 -18 -6 -39 -11 -45 -5 -7 -7
-24 -3 -37 5 -20 1 -26 -24 -34 -35 -13 -39 -26 -43 -157 -3 -96 -3 -95 -5 27
-2 116 1 136 27 220 16 51 32 105 35 119 8 36 44 79 66 79 13 0 17 -5 13 -20z
m672 -30 c-32 -34 -40 -32 -31 5 5 19 13 25 33 25 l27 0 -29 -30z m3332 -2
c-3 -7 -5 -2 -5 12 0 14 2 19 5 13 2 -7 2 -19 0 -25z m-3762 -75 c14 -31 23
-63 21 -70 -4 -8 -24 -13 -56 -13 l-50 0 0 58 c0 54 2 59 28 69 15 6 28 11 30
12 1 1 14 -25 27 -56z m205 23 c47 4 89 7 94 5 5 -1 13 4 18 11 7 10 9 10 5
-2 -5 -20 -88 -31 -207 -28 -78 3 -95 6 -98 19 -3 15 2 15 50 2 39 -10 76 -12
138 -7z m3557 -503 c-1 -87 -3 -16 -3 157 0 173 2 244 3 158 2 -87 2 -229 0
-315z m-5147 442 c0 -2 -9 -3 -19 -2 -11 0 -18 5 -15 9 4 6 34 0 34 -7z m1814
-105 c-1 -36 -8 -81 -17 -100 -15 -34 -15 -32 -16 95 0 127 0 129 17 100 11
-20 16 -51 16 -95z m-314 84 c24 -12 22 -13 -26 -14 -43 0 -53 3 -57 20 -4 17
-1 18 27 13 17 -3 42 -12 56 -19z m-1455 -31 c19 -21 35 -44 35 -50 0 -7 4
-13 10 -13 12 0 170 -163 164 -170 -3 -2 -8 0 -12 6 -4 5 -46 42 -94 82 -81
68 -125 118 -120 135 1 4 -5 7 -13 7 -8 0 -15 2 -15 4 0 2 -3 11 -6 20 -11 28
15 17 51 -21z m-178 -9 c-3 -3 -12 -4 -19 -1 -8 3 -5 6 6 6 11 1 17 -2 13 -5z
m83 -24 c0 -4 -9 -6 -21 -3 -15 4 -17 8 -8 14 14 8 29 3 29 -11z m1607 12 c6
-4 -26 -6 -70 -4 -60 2 -78 0 -67 -8 11 -7 -8 -10 -69 -8 -57 2 -86 7 -89 16
-3 9 29 12 140 12 79 0 148 -4 155 -8z m-39 -29 c-16 -2 -40 -2 -55 0 -16 2
-3 4 27 4 30 0 43 -2 28 -4z m-109 -95 l-1 -83 -9 60 c-14 95 -17 96 -17 5 -1
-47 -5 -99 -11 -117 -8 -26 -6 -33 7 -36 12 -3 11 -5 -5 -6 -12 0 -23 -7 -25
-13 -3 -7 -8 30 -11 82 -4 52 -9 116 -13 143 l-7 47 47 0 46 0 -1 -82z m45 52
c-13 -21 -20 -26 -26 -17 -16 26 -9 47 18 47 l25 0 -17 -30z m2040 -92 c-2
-67 -1 -118 3 -115 6 7 9 53 12 181 l1 59 50 -5 c28 -3 53 -7 55 -10 3 -2 -17
-72 -44 -153 -28 -82 -48 -151 -47 -153 4 -3 35 80 87 231 13 37 27 67 30 67
3 0 27 -14 52 -31 l47 -31 -22 -31 c-13 -18 -57 -76 -100 -129 -55 -69 -84
-96 -98 -95 -15 1 -20 9 -21 32 0 23 -2 26 -8 11 -5 -12 -19 25 -44 120 -21
77 -37 147 -37 157 0 14 9 17 44 17 l45 0 -5 -122z m-90 55 c38 -125 75 -267
71 -271 -15 -15 -41 24 -105 150 l-71 143 38 17 c21 10 41 18 44 18 3 0 14
-26 23 -57z m-2106 -30 c15 -97 23 -241 13 -224 -6 10 -12 3 -21 -25 -7 -22
-15 -42 -19 -46 -3 -4 -5 61 -3 145 2 142 8 217 17 217 2 0 8 -30 13 -67z
m2022 -15 c16 -35 49 -101 74 -147 25 -47 46 -86 46 -87 0 -2 -16 6 -36 18
-22 13 -43 37 -57 67 -12 25 -39 77 -61 115 -38 66 -38 69 -21 82 10 8 20 14
22 14 2 0 17 -28 33 -62z m-4630 33 c0 -11 -4 -23 -10 -26 -6 -4 -10 5 -10 19
0 14 5 26 10 26 6 0 10 -9 10 -19z m3067 -23 c-3 -8 -6 -5 -6 6 -1 11 2 17 5
13 3 -3 4 -12 1 -19z m2071 -84 c-2 -9 -61 -47 -133 -85 -71 -38 -126 -69
-121 -69 5 0 69 31 142 70 l132 69 20 -47 c45 -105 47 -243 5 -326 -46 -89
-119 -166 -144 -150 -7 4 2 18 24 40 20 18 57 64 82 103 42 64 46 77 52 150
l6 80 -24 -5 c-19 -5 -21 -3 -9 5 8 5 12 12 9 15 -4 5 -258 -11 -290 -18 -32
-7 -15 31 50 109 37 44 80 97 96 119 l29 38 39 -41 c21 -23 37 -49 35 -57z
m-2391 34 c-3 -8 -6 -5 -6 6 -1 11 2 17 5 13 3 -3 4 -12 1 -19z m353 -18 c21
-11 76 -98 68 -106 -3 -2 -23 14 -45 36 -34 33 -47 40 -81 40 -32 0 -42 -4
-47 -20 -3 -11 -13 -20 -21 -20 -8 0 -14 -5 -14 -11 0 -5 -4 -7 -10 -4 -15 10
16 62 48 79 32 18 76 20 102 6z m2608 3 c-7 -26 16 -270 28 -299 8 -19 11 -34
7 -34 -5 0 -2 -4 6 -9 15 -10 7 -31 -13 -31 -8 0 -12 -25 -13 -87 -1 -126 -12
-195 -33 -213 -10 -9 -21 -37 -25 -63 -5 -30 -12 -47 -21 -47 -8 0 -14 -5 -14
-12 0 -13 -29 -48 -41 -48 -4 0 -10 8 -13 18 -2 9 -4 5 -3 -9 2 -28 -20 -62
-33 -54 -5 3 -6 -4 -3 -15 4 -14 -3 -30 -18 -46 -26 -28 -112 -77 -93 -53 74
93 124 174 124 200 0 6 -16 -3 -35 -20 -20 -17 -44 -31 -55 -31 -18 0 -16 5
14 53 42 65 89 158 83 163 -2 2 -24 -5 -48 -15 -50 -23 -60 -14 -31 26 10 16
44 76 75 135 l57 108 -32 -20 c-18 -11 -46 -20 -63 -20 l-29 0 37 38 c35 35
131 192 123 200 -2 2 -18 -4 -35 -12 -16 -9 -33 -16 -36 -16 -3 0 12 26 34 58
21 31 51 81 65 110 23 45 40 68 34 45z m-2984 -35 c7 -5 4 -8 -6 -8 -12 0 -18
7 -17 23 0 15 2 17 6 7 3 -8 11 -18 17 -22z m11 22 c3 -5 1 -10 -4 -10 -6 0
-11 5 -11 10 0 6 2 10 4 10 3 0 8 -4 11 -10z m196 -38 c-10 -20 -24 -55 -30
-77 -6 -23 -20 -51 -31 -63 -12 -12 -17 -22 -13 -22 4 0 -1 -7 -11 -15 -11 -8
-17 -15 -14 -15 4 0 -3 -11 -15 -24 -12 -14 -23 -23 -25 -21 -5 4 40 91 98
190 52 87 75 114 41 47z m-1312 5 c20 -23 21 -25 4 -38 -11 -9 -14 -10 -9 -1
4 6 3 12 -2 12 -5 0 -17 11 -26 25 -22 33 2 35 33 2z m4878 -64 c-3 -10 -5 -4
-5 12 0 17 2 24 5 18 2 -7 2 -21 0 -30z m-6720 21 c-3 -3 -12 -4 -19 -1 -8 3
-5 6 6 6 11 1 17 -2 13 -5z m1002 -1 c52 -5 68 -11 93 -37 62 -61 68 -80 68
-208 l0 -117 -47 -7 c-57 -9 -68 -9 -299 -6 l-180 2 -30 58 c-17 31 -58 110
-92 176 -34 65 -62 125 -62 132 0 12 43 14 244 14 133 0 271 -3 305 -7z m3714
-13 c-5 -19 -2 -20 44 -14 44 5 59 1 124 -32 75 -38 81 -54 12 -35 -21 6 -73
11 -115 11 l-78 0 0 45 c0 25 4 45 9 45 5 0 7 -9 4 -20z m-4758 0 c3 -5 1 -10
-4 -10 -6 0 -11 5 -11 10 0 6 2 10 4 10 3 0 8 -4 11 -10z m10 -33 c19 -4 19
-5 -1 -6 -12 0 -28 7 -35 17 -12 15 -12 16 1 6 8 -7 24 -14 35 -17z m517 -99
c66 -126 80 -158 73 -158 -11 0 -145 248 -145 269 0 23 10 8 72 -111z m6235
-5 c-3 -10 -5 -2 -5 17 0 19 2 27 5 18 2 -10 2 -26 0 -35z m-5197 7 c101 -11
188 -24 192 -28 5 -5 -16 -25 -46 -45 -60 -40 -127 -102 -168 -156 l-26 -34
-59 16 c-32 8 -74 18 -95 21 -40 7 -35 -10 -54 188 l-6 66 38 -4 c22 -3 122
-13 224 -24z m-1160 -74 c0 -12 -57 43 -71 69 -7 11 7 2 30 -20 22 -21 41 -43
41 -49z m49 -5 c6 -10 7 -21 4 -25 -3 -3 -1 -6 5 -6 7 0 12 -5 12 -11 0 -21
-25 -2 -26 20 -1 13 -8 27 -15 32 -10 6 -10 9 -2 9 7 0 17 -8 22 -19z m90
-128 c12 -12 21 -25 21 -29 0 -4 7 -16 17 -26 9 -10 13 -18 10 -18 -16 0 -115
133 -110 147 5 12 11 7 24 -18 9 -19 27 -44 38 -56z m6218 35 c-3 -7 -5 -2 -5
12 0 14 2 19 5 13 2 -7 2 -19 0 -25z m-3182 -83 c14 -13 25 -36 25 -50 0 -14
-11 -37 -25 -50 -54 -54 -155 -13 -141 58 13 66 93 90 141 42z m-1465 -254 c0
-289 -2 -280 55 -298 28 -9 30 -13 33 -66 l3 -57 -79 0 c-95 0 -135 12 -151
46 -7 17 -11 124 -11 334 l0 310 75 0 75 0 0 -269z m-1120 242 c0 -5 -26 -20
-58 -35 -32 -15 -79 -46 -105 -69 -26 -23 -49 -40 -51 -38 -18 20 -83 138 -79
143 9 9 293 7 293 -1z m-296 -69 c3 -8 2 -12 -4 -9 -6 3 -10 10 -10 16 0 14 7
11 14 -7z m1933 -100 c164 -79 197 -314 61 -429 -111 -94 -300 -93 -402 3 -68
64 -97 202 -61 289 63 151 246 213 402 137z m1485 16 c17 0 82 -67 94 -97 10
-23 14 -85 14 -223 l0 -190 -80 0 -80 0 0 166 0 166 -29 29 c-39 39 -82 39
-121 1 -40 -40 -50 -88 -50 -234 l0 -128 -75 0 -75 0 0 260 0 260 75 0 75 0 0
-35 0 -35 43 30 c48 34 116 50 167 38 19 -4 38 -8 42 -8z m-987 -15 c45 -28
57 -30 54 -12 -4 34 1 37 76 37 l75 0 0 -257 c0 -228 -3 -263 -19 -298 -22
-49 -76 -98 -128 -116 -87 -30 -253 -11 -317 36 -18 14 -18 15 41 104 1 2 23
-4 49 -13 60 -20 136 -21 175 -1 31 17 49 49 49 91 l0 25 -30 -22 c-36 -27
-122 -36 -175 -19 -82 27 -150 117 -159 211 -16 181 168 321 309 234z m465
-240 l0 -255 -75 0 -75 0 0 255 0 255 75 0 75 0 0 -255z m1428 154 c53 -80 65
-89 121 -99 97 -18 107 -53 35 -120 l-47 -43 11 -60 c19 -100 -4 -116 -101
-72 l-55 26 -61 -33 -60 -33 -22 22 c-21 20 -21 24 -9 89 l13 67 -52 44 c-73
64 -67 91 22 107 62 11 84 26 102 67 19 41 50 79 65 79 6 0 23 -18 38 -41z
m-3774 -35 c9 -8 16 -21 16 -28 0 -7 10 -22 23 -34 19 -18 34 -22 72 -20 47 3
50 2 69 -34 18 -32 19 -39 6 -62 -12 -23 -11 -31 10 -76 13 -27 23 -63 22 -79
-1 -38 -18 -71 -37 -71 -8 0 -15 -4 -15 -10 0 -5 -7 -10 -15 -10 -8 0 -15 -3
-16 -7 -7 -70 -24 -97 -66 -108 -18 -4 -29 -1 -38 12 -18 25 -105 25 -132 1
-11 -10 -29 -18 -40 -18 -31 0 -73 38 -73 66 0 44 -17 64 -55 64 -58 0 -85 67
-49 119 26 36 34 87 18 108 -7 10 -14 31 -14 46 0 36 44 82 68 72 55 -24 104
-8 117 37 4 13 12 29 17 36 15 18 93 15 112 -4z m-1060 -55 c14 -17 26 -36 26
-42 -1 -7 -8 0 -16 16 -25 46 -102 30 -92 -20 4 -26 70 -57 83 -41 7 9 30 11
77 8 59 -4 69 -8 90 -35 12 -16 34 -39 48 -50 14 -10 58 -51 98 -89 39 -38 72
-66 72 -61 0 5 -19 26 -42 47 -42 37 -43 37 -16 38 19 0 29 7 34 23 8 26 32
55 56 68 16 9 18 4 18 -56 l0 -65 -36 0 c-45 0 -42 -24 4 -28 31 -3 32 -5 32
-51 0 -49 -12 -71 -41 -71 -9 0 -59 39 -110 87 l-94 87 90 -92 c55 -56 83 -92
73 -92 -19 0 -213 203 -213 223 0 6 -13 23 -30 37 -16 14 -33 28 -36 33 -3 4
-36 10 -74 13 -37 2 -76 9 -87 15 -42 22 -43 94 -1 118 32 18 60 12 87 -20z
m424 -86 c-10 -2 -26 -2 -35 0 -10 3 -2 5 17 5 19 0 27 -2 18 -5z m5206 -173
c48 -19 54 -24 53 -47 -2 -20 6 -32 30 -47 18 -12 35 -29 38 -39 4 -10 11 -14
18 -10 8 4 8 2 -1 -9 -10 -13 -9 -16 7 -21 16 -4 18 -10 11 -45 -6 -34 -5 -39
9 -35 12 3 11 0 -3 -11 -17 -14 -17 -16 -4 -16 9 0 19 -4 22 -9 4 -5 -4 -7
-16 -3 -21 5 -22 4 -8 -13 14 -17 13 -18 -4 -11 -19 7 -19 6 -1 -14 15 -16 21
-18 33 -7 13 11 14 9 1 -10 -9 -16 -16 -19 -21 -10 -5 8 -8 8 -8 1 0 -6 7 -17
15 -24 16 -13 10 -35 -6 -24 -5 3 -6 10 -3 16 4 7 2 8 -4 4 -9 -5 -9 -13 -1
-28 9 -16 8 -19 -2 -13 -9 6 -11 3 -6 -9 5 -11 3 -15 -5 -10 -8 5 -9 2 -5 -10
5 -11 3 -15 -5 -10 -8 5 -9 2 -5 -10 4 -10 3 -15 -3 -11 -6 3 -13 0 -16 -9 -7
-19 -32 -28 -40 -14 -5 7 -2 8 6 3 9 -5 11 -4 6 4 -10 16 -29 3 -22 -16 3 -8
1 -11 -4 -8 -6 3 -10 1 -10 -5 0 -6 -4 -8 -10 -5 -5 3 -10 1 -10 -5 0 -6 -4
-8 -10 -5 -5 3 -10 1 -10 -5 0 -7 -6 -10 -12 -8 -7 3 -19 -1 -26 -9 -17 -17
-36 -17 -26 0 5 7 1 6 -10 -3 -26 -21 -49 -22 -42 -2 3 9 -6 4 -20 -13 -18
-21 -22 -23 -15 -8 16 31 13 41 -4 16 -8 -12 -21 -20 -28 -19 -31 4 -89 48
-121 93 -39 53 -45 79 -18 86 13 4 12 5 -5 6 -28 1 -39 52 -24 107 6 22 11 53
11 70 0 51 20 94 45 100 16 4 30 20 42 50 17 41 20 44 56 44 21 0 48 -5 59
-11 15 -8 23 -8 32 2 8 9 8 10 -2 4 -8 -4 -3 9 10 29 13 20 26 36 30 36 4 0
32 -9 62 -20z m-5478 -54 c3 -8 -16 -43 -41 -78 -26 -34 -56 -80 -66 -100 -17
-34 -23 -37 -66 -40 l-48 -3 32 -20 c40 -24 37 -38 -8 -45 -27 -4 -30 -7 -16
-13 10 -4 31 -7 46 -7 l27 0 0 -77 c0 -59 5 -90 22 -127 21 -46 30 -93 14 -71
-9 12 -30 18 -59 17 -13 -1 -23 3 -23 9 0 5 -4 7 -10 4 -5 -3 -10 -2 -10 2 0
5 -9 9 -20 10 -29 2 -25 -14 6 -21 27 -7 26 -18 -1 -22 -9 -1 -12 2 -8 9 4 7
0 8 -11 4 -24 -9 -42 37 -57 146 -13 97 -2 181 33 251 26 51 113 143 158 167
42 22 98 25 106 5z m96 -73 l47 -48 -38 -41 -38 -40 -63 17 c-34 10 -64 20
-66 22 -5 5 96 137 105 137 4 0 28 -21 53 -47z m5856 -70 c11 -23 3 -153 -10
-153 -5 0 -8 -10 -7 -22 1 -13 -1 -57 -6 -98 -9 -71 -9 -73 -16 -35 l-7 40 0
-40 c0 -67 0 -68 -17 -51 -12 12 -22 13 -45 4 -17 -5 -30 -13 -30 -17 0 -4
-16 -13 -35 -20 -19 -7 -35 -17 -35 -22 0 -5 -9 -9 -20 -9 -11 0 -20 -4 -20
-10 0 -5 -9 -10 -19 -10 -11 0 -23 -4 -26 -10 -3 -5 -1 -10 6 -10 7 0 4 -7 -7
-15 -25 -19 -40 -19 -24 0 7 9 11 18 8 20 -2 3 -20 -22 -38 -55 -19 -33 -38
-60 -43 -60 -13 0 0 103 19 148 14 35 97 168 203 327 66 99 145 145 169 98z
m-5768 1 c0 -3 -15 -24 -34 -46 -52 -60 -70 -105 -69 -173 0 -102 53 -184 152
-235 21 -10 41 -16 45 -13 10 11 7 -27 -5 -50 -19 -36 -62 -77 -81 -77 -20 0
-25 20 -5 20 15 1 66 39 51 40 -6 0 -29 -12 -50 -26 l-38 -26 -18 22 c-24 30
-23 69 3 96 l22 23 -33 38 c-18 20 -44 61 -58 91 -21 46 -24 65 -20 127 5 78
37 149 80 180 22 15 58 21 58 9z m6083 -891 c-8 -47 -9 56 -2 457 3 182 4 171
6 -103 2 -169 0 -329 -4 -354z m-1586 569 c182 -97 253 -308 166 -494 -40 -85
-88 -137 -165 -179 l-63 -34 -1877 -3 -1877 -2 -56 21 c-73 27 -162 109 -200
186 -28 54 -30 65 -30 173 0 106 2 119 27 165 43 82 114 146 193 178 36 15
217 16 1940 14 l1900 -2 42 -23z m1192 -149 c-51 -59 -97 -108 -103 -108 -6 0
-11 14 -10 30 0 17 6 29 12 28 14 -3 74 72 64 81 -4 4 -2 6 4 4 6 -1 35 26 65
61 51 59 54 62 57 38 3 -21 -16 -49 -89 -134z m10 81 c-6 -8 -15 -12 -18 -8
-3 4 0 9 7 11 6 3 9 10 6 15 -4 7 -2 8 5 4 9 -6 9 -11 0 -22z m-5799 -35 c0
-5 -16 -17 -35 -25 -19 -8 -36 -19 -36 -24 -5 -39 -4 -57 4 -67 5 -7 8 -13 6
-14 -33 -6 -38 -6 -33 3 4 7 2 8 -5 4 -24 -15 3 -26 64 -26 59 0 134 -22 143
-42 2 -4 16 -1 32 7 40 21 60 19 60 -5 0 -17 -6 -19 -40 -16 -22 2 -43 0 -46
-5 -3 -5 0 -9 5 -9 6 0 11 -4 11 -10 0 -5 -7 -10 -15 -10 -8 0 -15 4 -15 10 0
5 -7 6 -17 3 -10 -4 -14 -2 -10 4 4 6 0 14 -8 17 -13 4 -14 2 -5 -14 13 -24 2
-26 -28 -4 -12 8 -22 13 -22 10 0 -8 73 -56 84 -56 6 0 1 7 -10 15 -24 18 -7
19 26 0 34 -20 60 -20 34 0 -22 17 -4 20 29 5 20 -9 20 -9 4 2 -46 32 -49 37
-14 21 35 -16 52 -46 25 -42 -20 2 -58 -12 -58 -22 0 -5 8 -9 17 -9 9 0 14 -3
10 -6 -3 -3 -15 -3 -27 1 -17 5 -19 10 -9 21 9 11 8 14 -5 14 -9 0 -16 -4 -16
-10 0 -14 -30 -1 -70 29 -60 46 -67 44 -15 -4 40 -36 44 -43 20 -31 -16 9 -52
36 -78 61 -27 25 -55 45 -63 45 -8 0 -28 13 -44 29 -24 23 -27 30 -15 35 8 3
15 10 15 15 0 6 -6 8 -13 5 -8 -3 -14 2 -14 10 0 8 4 13 8 11 11 -7 40 6 34
15 -3 5 -20 7 -38 5 -17 -2 -26 -1 -19 2 6 2 9 10 5 16 -3 7 -3 9 2 5 4 -4 14
-3 21 3 7 6 35 11 62 12 28 1 48 5 46 9 -4 6 6 9 49 17 4 0 7 -4 7 -10z m-240
-19 c13 -8 13 -10 -2 -10 -9 0 -20 5 -23 10 -8 13 5 13 25 0z m5648 -142 c2
-71 0 -88 -12 -88 -11 0 -13 -10 -10 -42 3 -30 1 -36 -4 -19 l-8 25 -20 -26
c-11 -14 -30 -28 -42 -32 -12 -4 -22 -12 -22 -17 0 -5 -6 -9 -14 -9 -8 0 -17
-6 -19 -12 -4 -10 -8 -10 -15 1 -7 10 -11 10 -17 1 -4 -6 -4 -14 -1 -17 8 -9
-34 -53 -51 -53 -7 0 -13 -7 -13 -16 0 -15 -24 -45 -35 -44 -3 0 -9 0 -13 0
-5 0 -10 -26 -11 -57 -4 -98 -11 -72 -11 41 0 89 3 114 21 149 38 73 99 157
172 234 57 60 75 73 96 71 25 -3 26 -5 29 -90z m799 -20 c-2 -18 -4 -4 -4 32
0 36 2 50 4 33 2 -18 2 -48 0 -65z m-6202 52 c3 -5 1 -10 -4 -10 -6 0 -11 5
-11 10 0 6 2 10 4 10 3 0 8 -4 11 -10z m-358 -36 c71 -26 133 -113 133 -189 0
-28 -8 -44 -43 -78 -37 -38 -185 -135 -230 -153 -23 -9 -23 33 1 60 16 20 16
20 0 7 -17 -13 -18 -6 -17 120 1 188 8 230 39 246 26 13 50 10 117 -13z m6062
-91 c-11 -21 -17 -43 -15 -50 5 -12 -166 -183 -184 -183 -5 0 -10 2 -10 5 0
10 216 265 225 265 1 0 -6 -17 -16 -37z m-5519 -38 c-10 -12 -10 -15 0 -15 8
0 11 -3 7 -6 -3 -3 -11 -3 -17 1 -8 5 -8 11 1 21 6 8 14 14 16 14 3 0 0 -7 -7
-15z m5227 -22 c-3 -10 -5 -4 -5 12 0 17 2 24 5 18 2 -7 2 -21 0 -30z m790
-165 c-2 -35 -3 -9 -3 57 0 66 1 94 3 63 2 -32 2 -86 0 -120z m-780 110 c-3
-8 -6 -5 -6 6 -1 11 2 17 5 13 3 -3 4 -12 1 -19z m13 -43 c0 -26 -163 -239
-174 -227 -16 15 -1 48 58 125 36 47 62 88 58 92 -4 5 -2 5 5 1 7 -4 18 2 25
14 17 27 28 25 28 -5z m47 -128 l23 -13 -22 -29 c-24 -33 -254 -251 -303 -288
l-30 -22 25 35 c36 52 272 330 279 330 3 -1 16 -6 28 -13z m-5277 -125 c0 -46
-6 -55 -31 -41 -23 12 -24 37 -2 61 24 27 33 22 33 -20z m-110 -71 c0 -23 -34
-71 -51 -71 -7 0 -59 94 -59 106 0 3 10 8 23 13 34 13 87 -16 87 -48z m-169
17 c11 -10 14 -28 11 -70 -4 -55 -5 -58 -37 -68 -40 -13 -105 -77 -105 -103 0
-10 -4 -16 -9 -13 -5 3 -8 -2 -7 -12 1 -12 -8 -18 -27 -20 -23 -3 -26 -6 -17
-17 14 -17 5 -35 -16 -35 -9 0 -12 -5 -8 -12 4 -7 3 -8 -5 -4 -14 9 -5 26 15
26 8 0 14 5 14 11 0 7 -13 8 -39 4 -29 -5 -42 -2 -56 11 -21 21 -34 5 -27 -32
3 -16 11 -24 25 -24 31 0 17 -6 -28 -13 -27 -4 -35 -3 -25 3 10 6 11 10 3 10
-25 0 -28 -2 -25 -17 2 -8 -1 -12 -7 -8 -6 3 -11 1 -11 -4 0 -6 10 -12 23 -12
18 -1 16 -3 -8 -9 -61 -16 -65 -14 -65 35 0 143 136 293 323 357 96 32 89 31
108 16z m4669 -121 c76 -39 143 -108 176 -181 50 -111 33 -257 -42 -359 -41
-56 -106 -105 -172 -129 -44 -16 -179 -17 -1914 -18 l-1867 0 -58 22 c-69 25
-157 108 -191 179 -76 159 -33 356 100 451 17 12 56 32 87 45 l56 23 1885 -3
1885 -2 55 -28z m-4749 -128 c-18 -11 -35 -18 -38 -15 -5 5 46 35 62 36 6 0
-5 -9 -24 -21z m345 -36 c-1 -16 -8 -34 -16 -41 -13 -11 -11 -12 10 -7 24 6
24 5 -2 -10 -34 -19 -35 -25 -5 -18 18 3 17 1 -6 -12 -32 -19 -30 -33 2 -15
31 16 25 3 -6 -15 l-28 -16 28 4 c36 6 34 -1 -3 -14 -16 -6 -30 -15 -30 -20 0
-5 12 -4 26 2 15 5 29 7 32 5 2 -3 -7 -8 -21 -11 -15 -4 -32 -13 -38 -21 -10
-13 -8 -13 15 -4 47 17 53 10 9 -10 -47 -21 -59 -36 -17 -20 14 6 33 10 42 10
9 -1 0 -7 -22 -15 -21 -7 -44 -19 -50 -26 -8 -9 -6 -10 9 -4 11 4 31 9 45 12
14 2 7 -3 -15 -11 -22 -9 -41 -16 -42 -16 -2 0 -3 -5 -3 -10 0 -7 7 -7 21 0
11 6 25 9 32 6 8 -3 6 -5 -3 -5 -8 -1 -26 -11 -40 -22 l-25 -20 25 7 c21 5 16
-2 -25 -43 -27 -27 -51 -45 -53 -41 -2 4 19 70 46 145 27 76 60 171 73 211 24
75 37 92 35 45z m5239 -55 c15 -7 25 -18 23 -27 -3 -12 -18 -17 -68 -19 -36
-1 -75 -4 -87 -7 -29 -7 -84 -55 -145 -128 -41 -50 -48 -55 -48 -34 0 49 107
176 175 208 46 21 112 24 150 7z m170 -24 c9 -9 14 -21 12 -28 -6 -18 -52 -19
-67 0 -12 14 -12 18 5 30 24 18 30 18 50 -2z m-95 -19 c28 -14 60 -51 60 -68
0 -11 -41 11 -72 41 -43 40 -38 53 12 27z m-5721 -127 c-7 -96 -23 -138 -53
-138 -13 0 -26 -10 -33 -25 -6 -14 -7 -23 -2 -19 5 3 9 0 9 -5 0 -6 -3 -11 -8
-11 -4 0 -22 -13 -40 -30 -18 -16 -35 -30 -37 -30 -3 0 -9 0 -15 0 -5 0 -10
-7 -10 -15 0 -19 -46 -49 -61 -39 -7 4 -9 3 -6 -3 4 -6 -2 -13 -12 -16 -17 -4
-19 6 -24 127 -8 162 -6 172 41 181 64 12 151 45 200 75 26 16 49 30 52 30 3
0 2 -37 -1 -82z m5974 -47 c8 -8 -11 -11 -68 -11 -148 -1 -279 -63 -401 -193
-81 -86 -148 -204 -159 -282 -4 -25 -11 -43 -15 -40 -5 3 -11 -3 -14 -12 -3
-10 -3 5 0 32 19 182 161 372 352 469 93 48 273 69 305 37z m-5554 -188 c-2
-50 -6 -60 -37 -90 -19 -19 -51 -46 -71 -61 -72 -53 -164 -137 -183 -167 l-19
-30 7 30 c33 145 77 259 118 303 35 39 103 69 159 71 27 1 27 0 26 -56z m5671
-103 l0 -110 -42 -21 c-69 -35 -75 -55 -24 -83 37 -20 46 -44 46 -123 l0 -45
-55 56 c-67 67 -155 117 -155 87 0 -5 17 -15 37 -22 41 -13 124 -93 150 -143
9 -17 22 -53 29 -79 l13 -48 -52 -33 c-138 -87 -382 -214 -392 -204 -3 3 -10
31 -16 62 -11 61 2 221 21 257 9 15 3 19 -48 29 -31 7 -73 16 -92 21 -31 8
-29 8 15 4 28 -2 70 -7 95 -10 42 -6 46 -5 57 20 l12 27 -95 -4 c-74 -2 -94 0
-92 10 2 7 7 13 11 12 4 -1 23 16 42 37 22 25 30 40 22 45 -7 4 -3 11 13 17
14 5 19 10 12 10 -8 1 1 13 18 27 17 15 28 29 25 32 -3 3 7 14 22 24 16 10 24
18 18 18 -5 1 5 9 23 19 30 15 32 19 17 31 -13 11 -22 8 -58 -21 -115 -92
-219 -218 -268 -325 -82 -180 -78 -370 11 -498 34 -51 54 -67 105 -89 38 -16
39 -16 15 1 -39 27 -91 74 -87 78 2 3 38 -14 79 -36 97 -51 156 -64 239 -51
78 13 208 75 271 131 25 22 49 40 52 40 3 0 6 -13 6 -30 0 -24 -10 -37 -53
-69 -162 -123 -387 -172 -519 -113 -102 45 -189 157 -218 281 -16 70 -8 196
19 281 44 138 177 319 317 430 124 99 305 178 412 179 l42 1 0 -110z m-6150
-68 c0 -30 -35 -120 -53 -135 -12 -10 -16 -16 -9 -12 6 3 12 4 12 1 0 -3 -17
-13 -37 -21 -21 -9 -49 -26 -63 -39 -14 -12 -37 -30 -52 -39 l-28 -17 0 94 0
95 83 26 c45 14 93 32 107 40 29 16 40 18 40 7z m4870 -133 c118 -55 170 -128
178 -245 4 -65 1 -80 -22 -128 -31 -63 -99 -129 -164 -159 l-47 -22 -1890 -3
c-2122 -3 -1952 -9 -2043 73 -137 123 -142 308 -11 430 48 45 75 60 134 75 17
5 881 7 1920 7 l1890 -2 55 -26z m788 -266 c-10 -2 -26 -2 -35 0 -10 3 -2 5
17 5 19 0 27 -2 18 -5z m492 -233 c0 -98 -2 -110 -17 -111 -15 0 -15 -2 2 -9
29 -13 10 -11 -84 5 -84 15 -115 13 -70 -3 48 -18 53 -22 24 -17 -16 2 -52 7
-80 10 -48 6 -49 5 -25 -9 24 -14 23 -15 -24 -9 -56 6 -57 -9 0 -27 19 -7 33
-14 31 -16 -2 -3 -17 1 -33 7 -44 17 -84 28 -84 23 0 -2 15 -13 33 -24 17 -11
27 -20 21 -20 -6 0 -29 12 -50 26 -37 25 -40 26 -107 15 -37 -6 -71 -12 -75
-14 -4 -1 -9 2 -11 8 -5 11 5 16 94 45 75 24 304 137 395 194 30 19 56 35 58
35 1 1 2 -48 2 -109z m-6310 65 c39 -3 40 -4 40 -20 0 -11 11 -15 40 -15 33 0
40 -3 40 -20 0 -15 7 -20 24 -20 14 0 28 -4 31 -10 3 -5 15 -10 27 -10 11 0
22 -8 25 -20 3 -11 12 -20 19 -20 8 0 14 -4 14 -9 0 -5 9 -11 20 -14 14 -4 20
-14 20 -35 0 -26 4 -31 34 -36 35 -7 53 -35 34 -54 -14 -14 -1 -32 17 -25 25
9 47 -17 40 -47 -5 -22 -1 -30 20 -44 22 -15 24 -21 19 -58 -5 -27 -4 -39 3
-35 6 4 17 0 24 -9 10 -13 10 -17 -2 -25 -11 -7 -11 -9 0 -9 11 0 11 -3 1 -14
-9 -12 -7 -17 9 -28 12 -7 21 -23 21 -35 0 -21 -4 -23 -59 -23 -44 0 -60 4
-65 16 -3 8 -12 13 -18 9 -7 -3 -6 0 3 6 13 10 14 18 5 51 -7 25 -15 37 -23
34 -8 -3 -13 2 -13 12 0 10 -5 23 -12 30 -8 8 -8 15 1 25 9 11 7 17 -6 28 -16
13 -17 12 -4 -3 7 -10 10 -18 5 -18 -5 0 -24 27 -43 60 -64 111 -200 224 -308
256 l-53 15 0 65 c0 63 1 65 23 58 12 -4 33 -8 47 -9z m5800 -75 c0 -5 -7 -10
-15 -10 -8 0 -15 5 -15 10 0 6 7 10 15 10 8 0 15 -4 15 -10z m837 -132 c-2
-24 -4 -5 -4 42 0 47 2 66 4 43 2 -24 2 -62 0 -85z m-840 46 c-3 -3 -12 -4
-19 -1 -8 3 -5 6 6 6 11 1 17 -2 13 -5z m-5759 -40 c226 -112 335 -383 249
-614 -11 -30 -22 -50 -24 -44 -2 7 -12 10 -21 9 -68 -14 -72 -16 -73 -38 0
-20 -1 -21 -8 -2 -7 16 -9 17 -17 4 -15 -26 -183 -129 -209 -129 -3 0 -5 18
-5 40 0 29 4 40 15 40 33 0 114 51 159 101 80 89 98 228 46 346 -27 62 -108
144 -171 173 l-49 23 0 64 c0 77 6 79 108 27z m6085 -21 c-7 -2 -19 -2 -25 0
-7 3 -2 5 12 5 14 0 19 -2 13 -5z m514 -100 c-3 -10 -5 -4 -5 12 0 17 2 24 5
18 2 -7 2 -21 0 -30z m-3957 -280 c0 -124 4 -133 51 -133 39 0 39 0 39 39 0
57 38 91 100 91 63 0 95 -32 95 -95 0 -76 -70 -124 -135 -92 -16 9 -30 11 -30
6 0 -5 -40 -9 -90 -9 l-90 0 0 140 0 140 30 0 30 0 0 -87z m570 72 c20 -24 -3
-67 -33 -63 -16 2 -23 11 -25 32 -5 42 33 62 58 31z m-122 -76 l42 2 0 -106
c0 -104 -1 -107 -29 -136 -25 -24 -38 -29 -78 -29 -60 0 -93 20 -77 47 8 13
24 18 59 18 27 0 50 5 52 11 2 6 -10 8 -31 6 -52 -6 -86 31 -86 93 0 26 5 55
11 66 13 25 48 40 74 32 11 -3 39 -5 63 -4z m132 -94 l0 -95 -34 0 -34 0 -4
83 c-2 45 -2 88 0 95 2 6 19 12 38 12 l34 0 0 -95z m80 83 c0 -9 3 -9 12 0 7
7 27 12 44 12 48 0 64 -29 64 -117 l0 -73 -30 0 c-29 0 -29 1 -32 62 -2 52 -6
63 -22 66 -26 5 -36 -15 -36 -75 0 -52 0 -53 -30 -53 l-30 0 0 95 0 95 30 0
c17 0 30 -5 30 -12z m2676 -285 c98 -33 177 -105 223 -203 37 -80 36 -193 -2
-270 -15 -30 -26 -48 -23 -40 3 13 -9 14 -77 12 -56 -3 -82 0 -88 9 -5 9 -15
6 -38 -13 -67 -57 -170 -62 -245 -11 -23 15 -45 26 -51 24 -5 -2 -27 -3 -48
-2 -21 0 -56 -3 -77 -8 -38 -8 -39 -8 -28 13 10 18 9 19 -4 9 -12 -11 -17 -8
-28 15 -19 41 -24 143 -10 201 26 110 129 220 242 261 68 25 186 26 254 3z
m-5898 -81 c16 2 26 8 24 16 -1 8 2 11 8 7 6 -3 8 -11 5 -16 -4 -5 -1 -9 5 -9
6 0 8 -5 4 -11 -4 -8 -9 -7 -15 2 -8 13 -10 12 -13 -10 0 -5 -5 -13 -10 -18
-5 -5 -6 -3 -2 5 4 7 1 12 -7 12 -8 0 -17 -7 -21 -15 -3 -8 0 -15 7 -15 8 0 7
-4 -3 -9 -18 -12 -33 -3 -26 15 3 8 -1 14 -9 14 -8 0 -15 -7 -15 -15 0 -8 -4
-15 -10 -15 -5 0 -10 7 -10 15 0 8 -4 15 -10 15 -5 0 -6 -8 -3 -17 6 -15 5
-16 -9 -3 -19 18 -15 31 14 49 18 11 20 11 15 -4 -4 -9 -3 -14 3 -10 6 3 10
12 10 20 0 18 34 24 38 7 2 -8 14 -12 30 -10z m1170 -352 c44 -27 73 -77 70
-120 l-3 -35 -86 -9 c-66 -7 -98 -6 -133 5 -56 16 -66 41 -39 96 37 76 123
104 191 63z m3810 -52 c5 -7 13 -36 17 -65 6 -48 9 -53 42 -64 123 -40 179
-193 117 -317 -24 -49 -92 -112 -120 -112 -24 0 -44 -32 -44 -69 0 -72 -61
-81 -80 -13 -5 20 -10 43 -10 49 0 7 -15 20 -32 29 -62 31 -98 65 -124 116
-22 44 -25 62 -22 118 5 93 42 152 120 194 53 29 58 34 58 66 0 61 49 103 78
68z m-3088 -57 l0 -31 -60 0 -60 0 0 -30 c0 -30 0 -30 56 -30 47 0 55 -3 50
-16 -3 -9 -6 -20 -6 -25 0 -5 -22 -9 -50 -9 -49 0 -50 -1 -50 -29 0 -45 -10
-61 -36 -61 l-24 0 0 123 c0 68 2 126 4 128 3 2 43 5 90 7 l86 4 0 -31z m2360
17 c0 -5 0 -62 0 -128 l0 -120 -25 0 c-14 0 -25 5 -25 12 0 9 -3 9 -12 0 -39
-39 -118 10 -118 73 0 24 -5 35 -14 35 -23 0 -46 -41 -46 -82 0 -34 -3 -38
-25 -38 l-26 0 3 88 c3 82 4 87 26 90 12 2 22 -2 22 -9 0 -9 4 -8 15 1 20 17
45 5 46 -22 0 -13 3 -17 6 -10 9 22 63 44 94 37 29 -7 29 -6 29 40 0 44 1 46
25 43 14 -2 25 -6 25 -10z m-1263 -20 c16 -15 23 -33 23 -59 0 -53 -26 -80
-83 -86 l-47 -6 0 -38 c0 -37 -2 -39 -30 -39 l-30 0 0 125 0 125 72 0 c60 0
76 -4 95 -22z m-306 -5 c1 -10 2 -25 3 -33 0 -8 11 -16 24 -18 27 -4 29 -32 2
-39 -16 -4 -20 -14 -20 -44 0 -33 3 -39 21 -39 15 0 20 -5 17 -22 -2 -18 -11
-24 -34 -26 -45 -4 -64 19 -64 79 0 37 -4 49 -15 49 -8 0 -15 9 -15 20 0 11 7
20 15 20 10 0 15 11 15 35 0 31 3 35 25 35 17 0 25 -6 26 -17z m-648 -55 c34
-18 46 -39 47 -81 0 -55 -35 -87 -95 -87 -60 0 -95 32 -95 87 0 21 6 45 13 54
29 38 88 50 130 27z m113 1 c4 -8 9 -8 17 0 6 6 19 11 29 11 13 0 18 -8 18
-29 0 -25 -4 -30 -27 -33 -27 -3 -28 -6 -31 -60 -3 -54 -5 -58 -27 -58 -25 0
-25 1 -25 90 0 82 2 90 19 90 11 0 23 -5 27 -11z m195 1 c13 -7 19 -7 19 0 0
5 9 10 20 10 19 0 20 -7 20 -99 0 -84 -3 -102 -20 -124 -27 -34 -76 -43 -124
-23 -31 13 -36 18 -27 33 7 13 22 18 58 18 35 0 48 4 51 15 2 12 -6 15 -37 12
-53 -5 -81 22 -81 80 0 71 60 110 121 78z m231 -19 c67 -59 28 -151 -64 -151
-59 0 -88 29 -88 87 0 88 85 124 152 64z m588 9 c11 -11 22 -40 26 -70 5 -35
10 -48 17 -41 6 6 29 8 55 4 50 -7 53 10 5 22 -60 15 -81 61 -41 89 28 20 102
21 118 1 19 -23 2 -38 -36 -30 -47 8 -43 -7 9 -30 78 -37 53 -105 -38 -105
-22 0 -50 7 -62 15 -17 12 -22 12 -26 1 -4 -10 -25 -14 -72 -14 -53 0 -70 3
-86 19 -37 37 -14 75 52 85 51 8 50 24 -1 24 -43 0 -66 24 -39 41 26 17 98 10
119 -11z m349 11 c8 -5 11 -16 8 -25 -5 -13 -14 -16 -41 -11 -51 10 -52 -10
-1 -29 25 -10 47 -26 50 -37 9 -27 -20 -69 -48 -70 -68 -4 -107 11 -107 41 0
23 5 24 49 9 54 -19 60 5 6 25 -56 22 -71 59 -35 88 24 19 94 25 119 9z m256
0 c3 -6 -7 -46 -22 -90 -33 -95 -51 -104 -78 -38 l-17 42 -19 -43 c-32 -74
-63 -41 -94 97 -6 28 -4 31 19 31 21 0 27 -7 38 -41 l12 -42 14 42 c19 56 50
54 67 -4 l12 -40 8 30 c4 17 12 38 17 48 9 18 33 23 43 8z m156 -20 c62 -62
24 -151 -64 -151 -72 0 -113 57 -87 121 27 65 101 80 151 30z m2001 -385 c46
-13 103 -49 168 -104 31 -26 33 -32 23 -54 -8 -19 -28 -30 -85 -48 -60 -19
-94 -23 -194 -23 -137 1 -239 -13 -124 -17 59 -2 62 -3 30 -11 -19 -5 -51 -6
-70 -3 -56 9 -26 -8 48 -27 l67 -17 -79 5 c-59 5 -77 3 -72 -5 4 -7 32 -12 64
-12 45 -1 53 -3 39 -11 -10 -6 -30 -8 -45 -5 -19 5 -23 4 -13 -3 11 -7 5 -11
-25 -14 -21 -2 2 -4 51 -5 50 -1 144 5 210 13 133 17 275 20 275 6 0 -10 -11
-13 -145 -37 -119 -21 -105 -31 50 -35 l100 -2 -95 -9 c-52 -5 -103 -13 -112
-19 -10 -5 -35 -9 -56 -9 -21 0 -42 -4 -47 -9 -6 -5 -65 -11 -133 -13 -78 -3
-127 -9 -134 -16 -10 -10 -1 -12 42 -9 30 3 45 3 34 0 -14 -3 -24 -14 -27 -32
-7 -31 -60 -63 -108 -65 -15 -1 -25 -4 -23 -7 2 -3 -14 -11 -35 -17 -30 -10
-115 -50 -272 -130 -4 -2 -12 10 -17 25 -7 17 -11 21 -11 11 -1 -10 -5 -18 -9
-18 -7 0 -30 -37 -37 -60 -1 -3 -6 -14 -10 -24 -8 -19 -9 -19 -16 0 -13 32 -9
185 5 255 37 171 154 342 309 448 142 97 354 145 479 107z m-4735 -162 l-32
-32 -32 31 -32 30 32 31 32 31 32 -30 31 -29 -31 -32z m1769 34 c-10 -6 -31
-12 -45 -13 -27 -3 -66 -17 -103 -36 -15 -8 -19 -8 -14 0 4 6 1 11 -6 11 -7 0
-4 6 7 12 33 19 98 37 140 37 34 0 37 -1 21 -11z m113 6 c17 -4 28 -10 25 -15
-3 -5 2 -6 11 -3 20 8 77 -15 68 -29 -3 -6 -1 -7 6 -3 14 9 64 -21 56 -34 -3
-5 3 -11 12 -13 15 -4 14 -5 -3 -6 -22 -1 -48 21 -38 32 4 3 -2 6 -12 6 -11
-1 -44 8 -74 19 -30 12 -67 23 -82 27 -16 3 -28 10 -28 15 0 12 15 12 59 4z
m-1243 -75 c58 -30 113 -94 96 -111 -8 -8 -12 -8 -12 -1 0 16 -63 79 -96 95
-44 23 -101 28 -158 16 -40 -8 -60 -20 -96 -57 -76 -78 -88 -157 -40 -261 31
-67 15 -56 -23 15 -27 52 -29 145 -3 195 66 126 208 173 332 109z m937 16 c-3
-9 -8 -14 -10 -11 -3 3 -2 9 2 15 9 16 15 13 8 -4z m1607 -44 c56 -29 77 -69
85 -166 7 -80 9 -85 31 -85 49 0 54 -26 54 -263 l0 -218 -26 -26 -26 -26 -226
6 c-142 5 -230 11 -238 18 -11 9 -14 62 -14 250 0 225 1 239 19 249 11 5 29
10 40 10 19 0 21 6 21 71 0 83 18 129 65 164 60 46 143 52 215 16z m-1663 -5
c-8 -8 -17 -12 -21 -9 -3 3 2 12 12 19 22 16 29 9 9 -10z m-48 -53 c-19 -32
-20 -36 -4 -23 17 14 17 14 7 -5 -6 -11 -16 -27 -23 -35 -9 -13 -10 -12 -5 3
4 11 2 16 -5 12 -5 -4 -7 -19 -4 -34 4 -19 1 -32 -10 -41 -8 -7 -15 -22 -14
-34 0 -20 1 -21 9 -1 11 26 12 -3 0 -30 -15 -37 -23 30 -10 84 11 46 62 141
76 141 3 0 -5 -17 -17 -37z m3158 21 c-3 -3 -12 -4 -19 -1 -8 3 -5 6 6 6 11 1
17 -2 13 -5z m-50 -10 c-3 -3 -12 -4 -19 -1 -8 3 -5 6 6 6 11 1 17 -2 13 -5z
m-2715 -46 c33 -23 50 -77 38 -119 -5 -17 -30 -53 -55 -80 -25 -26 -45 -53
-45 -59 0 -5 14 -10 31 -10 29 0 30 -2 27 -35 l-3 -36 -98 -2 c-80 -2 -97 1
-97 13 0 8 41 62 90 118 66 76 90 111 90 131 0 33 -16 51 -46 51 -32 0 -47
-25 -41 -65 6 -38 2 -40 -38 -25 -54 20 -50 100 7 127 54 27 94 24 140 -9z
m-1222 -12 c0 -8 -8 -21 -17 -28 -10 -7 -22 -21 -28 -30 -5 -8 -38 -48 -73
-87 -46 -53 -64 -68 -68 -56 -6 14 18 52 63 100 10 11 36 41 57 68 38 47 66
60 66 33z m113 0 c4 -10 1 -13 -8 -9 -8 3 -12 9 -9 14 7 12 11 11 17 -5z
m-2083 -101 c42 -15 170 -100 170 -113 0 -3 -5 -1 -12 6 -16 16 -23 15 -42 -4
-15 -14 -19 -13 -46 6 -17 12 -35 20 -41 18 -6 -2 9 -18 33 -35 24 -17 54 -40
67 -52 13 -12 28 -21 33 -21 4 0 8 -5 8 -10 0 -6 -7 -7 -17 -1 -42 20 -81 26
-123 19 -25 -4 -51 -6 -57 -3 -20 7 -15 25 7 25 11 0 20 7 20 15 0 13 4 14 20
5 11 -6 20 -8 20 -6 0 3 -18 15 -40 26 -44 22 -61 47 -40 60 8 5 9 9 1 14 -10
6 -16 66 -7 66 2 0 23 -7 46 -15z m631 -188 c-10 -9 -11 -8 -5 6 3 10 9 15 12
12 3 -3 0 -11 -7 -18z m-573 -28 c-10 -5 -18 -15 -18 -20 0 -6 4 -8 9 -4 5 3
12 1 16 -5 10 -17 -22 -11 -41 7 -15 16 -15 17 2 24 11 4 26 8 34 8 12 0 11
-2 -2 -10z m65 -65 c-5 -13 -1 -15 18 -10 l24 6 -22 -11 c-17 -9 -29 -9 -45
-2 l-23 11 25 10 c14 6 26 11 27 11 1 1 0 -6 -4 -15z m53 -39 c-4 -12 0 -14
19 -11 14 3 23 1 20 -5 -7 -10 -38 -12 -48 -3 -6 6 2 34 10 34 3 0 3 -7 -1
-15z m-104 -214 c-1 -7 2 -10 8 -6 5 3 15 3 20 0 20 -13 -35 -44 -69 -40 l-33
4 26 -26 c15 -14 25 -27 24 -28 -2 -1 -24 -5 -50 -8 l-48 -7 0 85 0 84 63 -22
c36 -14 61 -28 59 -36z m2567 25 c10 -12 6 -14 -20 -13 -63 4 -65 -61 -3 -74
25 -5 27 -7 10 -14 -28 -12 -70 15 -74 47 -6 49 58 89 87 54z m-562 -18 c-3
-8 -6 -5 -6 6 -1 11 2 17 5 13 3 -3 4 -12 1 -19z m83 12 c0 -5 -4 -10 -10 -10
-5 0 -10 5 -10 10 0 6 5 10 10 10 6 0 10 -4 10 -10z m988 -39 c8 -23 11 -45 7
-49 -4 -4 -10 -1 -12 6 -7 18 -53 15 -53 -3 0 -8 -5 -15 -11 -15 -6 0 -9 3 -7
8 2 4 12 29 22 55 10 26 24 46 29 44 6 -2 17 -22 25 -46z m-1765 -44 c18 -4
17 -5 -5 -6 -27 -1 -28 1 -26 47 l1 47 4 -42 c3 -33 8 -43 26 -46z m1543 68
c9 -8 11 -15 5 -15 -6 0 -11 -11 -11 -25 0 -14 5 -25 10 -25 6 0 10 -5 10 -11
0 -6 -8 -9 -17 -7 -18 3 -34 59 -25 86 5 16 10 15 28 -3z m750 0 c9 -8 11 -15
5 -15 -15 0 -14 -47 2 -53 6 -2 9 -8 4 -13 -11 -12 -35 17 -37 46 -4 54 1 60
26 35z m-1716 -12 c0 -10 -5 -25 -11 -33 -8 -12 -9 -9 -5 13 5 22 3 27 -13 27
-15 0 -21 -8 -24 -37 l-4 -38 -1 43 c-2 40 -1 42 28 42 22 0 30 -5 30 -17z
m820 7 c4 0 10 -9 13 -20 4 -17 0 -20 -30 -20 -20 0 -32 -4 -28 -10 3 -5 15
-10 26 -10 11 0 17 -4 14 -10 -14 -23 -65 4 -65 35 0 21 31 47 47 41 8 -3 18
-6 23 -6z m231 0 c20 -11 27 -40 9 -40 -5 0 -10 7 -10 15 0 20 -29 19 -36 0
-8 -21 14 -45 34 -38 13 5 14 3 6 -7 -16 -16 -51 -4 -59 21 -4 13 0 28 11 40
20 22 20 22 45 9z m-1584 -52 c-2 -13 -4 -5 -4 17 -1 22 1 32 4 23 2 -10 2
-28 0 -40z m48 17 c0 -19 -3 -35 -7 -35 -10 0 -10 54 -1 63 3 4 7 7 7 7 1 0 1
-16 1 -35z m58 28 c-28 -5 -30 -19 -3 -26 20 -5 29 -37 10 -37 -5 0 -7 7 -4
15 4 9 0 15 -9 15 -9 0 -19 5 -22 10 -10 16 4 30 28 29 22 -2 22 -2 0 -6z m55
-28 c-1 -19 -6 -35 -10 -35 -4 0 -8 16 -8 35 0 19 5 35 10 35 6 0 10 -16 8
-35z m59 29 c-3 -3 -12 -4 -19 -1 -8 3 -5 6 6 6 11 1 17 -2 13 -5z m81 -34 c0
-16 -4 -30 -9 -30 -5 0 -9 16 -9 36 0 42 17 38 18 -6z m52 -2 c0 -38 -5 -34
-13 10 -4 21 -3 31 3 27 6 -3 10 -20 10 -37z m47 31 c-9 -6 -15 -14 -12 -20 4
-5 1 -9 -4 -9 -6 0 -11 4 -11 8 0 12 22 32 35 32 5 0 2 -5 -8 -11z m191 0
c-20 -11 -24 -44 -8 -52 6 -3 5 -4 -2 -3 -32 6 -16 66 17 66 6 -1 2 -5 -7 -11z
m125 -10 c17 -28 1 -49 -37 -49 -32 0 -35 2 -33 28 3 41 49 55 70 21z m50 -13
c-4 -19 0 -25 18 -29 23 -4 23 -4 -2 -6 -29 -1 -43 20 -34 51 9 26 23 13 18
-16z m105 22 c19 -19 14 -28 -13 -28 -31 0 -33 -20 -2 -21 19 -1 20 -2 3 -6
-27 -7 -49 23 -35 48 11 22 30 24 47 7z m400 1 c-11 -6 -18 -22 -18 -39 0 -17
-4 -30 -10 -30 -5 0 -10 18 -10 40 0 37 2 40 28 40 23 -1 24 -2 10 -11z m173
-4 c1 -8 2 -22 3 -31 1 -21 -26 -39 -48 -31 -11 4 -16 18 -16 42 0 32 2 35 30
35 19 0 30 -5 31 -15z m369 5 c0 -5 -6 -7 -12 -5 -20 7 -42 -11 -35 -29 4 -9
18 -16 34 -17 27 0 27 -1 6 -11 -17 -8 -26 -8 -38 2 -18 15 -20 56 -2 63 21 9
47 7 47 -3z m76 -2 c5 -7 2 -9 -9 -5 -18 7 -42 -17 -32 -33 3 -5 16 -10 28
-10 17 0 19 -2 8 -9 -22 -14 -51 5 -51 33 0 12 3 26 7 29 10 11 41 8 49 -5z
m104 -3 c14 -17 5 -51 -17 -59 -22 -9 -50 1 -57 20 -16 41 45 73 74 39z m68
-43 c10 2 18 14 20 31 5 42 18 32 14 -11 -4 -38 -12 -42 -64 -33 -5 0 -8 18
-7 39 l1 37 9 -33 c7 -23 15 -32 27 -30z m129 13 c2 -42 -1 -39 -11 8 -9 38
-36 36 -36 -3 0 -16 -4 -30 -10 -30 -5 0 -10 16 -10 36 0 34 1 35 33 32 30 -3
32 -6 34 -43z m113 33 c0 -9 3 -9 12 0 7 7 17 12 22 12 6 0 0 -7 -12 -16 -12
-8 -22 -26 -22 -40 0 -13 -4 -24 -10 -24 -5 0 -10 18 -10 40 0 22 5 40 10 40
6 0 10 -5 10 -12z m-2067 -49 c-6 -6 -7 3 -4 23 4 28 6 29 9 9 2 -13 0 -27 -5
-32z m204 29 c-3 -8 -6 -5 -6 6 -1 11 2 17 5 13 3 -3 4 -12 1 -19z m193 -2 c0
-8 -7 -20 -17 -27 -15 -13 -15 -12 -6 6 6 11 8 26 5 34 -3 8 0 11 7 7 6 -4 11
-13 11 -20z m-422 -3 c-10 -2 -18 -12 -18 -20 0 -9 -3 -14 -6 -10 -12 11 5 37
23 36 17 -1 17 -2 1 -6z m187 -31 c-3 -3 -11 0 -18 7 -9 10 -8 11 6 5 10 -3
15 -9 12 -12z m-1755 -52 c0 -13 -78 -52 -90 -45 -6 3 -10 0 -11 -7 -1 -7 -4
-2 -8 12 -10 31 -9 32 36 40 56 11 73 11 73 0z m6587 -82 c-3 -7 -5 -2 -5 12
0 14 2 19 5 13 2 -7 2 -19 0 -25z"/>
<path d="M8685 7400 c-4 -17 -5 -34 -2 -36 2 -3 7 10 11 27 3 18 4 34 2 36 -2
3 -7 -10 -11 -27z"/>
<path d="M3010 7764 c-73 -63 -87 -83 -43 -61 36 19 129 117 110 117 -1 0 -31
-25 -67 -56z"/>
<path d="M3135 7714 c-18 -16 -22 -22 -9 -15 18 9 53 42 43 41 -2 -1 -17 -12
-34 -26z"/>
<path d="M3390 7500 c-13 -8 -13 -11 -1 -22 10 -10 12 -10 7 0 -4 6 -2 12 3
12 6 0 11 -7 11 -15 0 -8 5 -15 10 -15 9 0 0 27 -14 47 -1 1 -8 -2 -16 -7z"/>
<path d="M6880 7080 c0 -5 5 -10 11 -10 5 0 7 5 4 10 -3 6 -8 10 -11 10 -2 0
-4 -4 -4 -10z"/>
<path d="M6830 7076 c0 -2 7 -7 16 -10 8 -3 12 -2 9 4 -6 10 -25 14 -25 6z"/>
<path d="M4533 6438 c-65 -17 -106 -102 -83 -172 35 -109 182 -118 235 -16 52
101 -42 217 -152 188z"/>
<path d="M5085 6417 c-55 -47 -41 -158 25 -192 46 -24 78 -19 116 19 28 28 34
42 34 75 0 48 -21 96 -49 111 -35 18 -98 12 -126 -13z"/>
<path d="M3224 6266 c-52 -23 -77 -63 -71 -119 5 -56 34 -92 87 -108 70 -21
150 41 150 116 0 43 -35 94 -75 111 -42 17 -51 17 -91 0z"/>
<path d="M2288 6273 c7 -3 16 -2 19 1 4 3 -2 6 -13 5 -11 0 -14 -3 -6 -6z"/>
<path d="M2355 6254 c6 -5 23 -20 40 -34 29 -24 29 -24 10 -2 -11 13 -29 28
-40 34 -11 6 -15 6 -10 2z"/>
<path d="M2415 6230 c10 -11 20 -20 23 -20 3 0 -3 9 -13 20 -10 11 -20 20 -23
20 -3 0 3 -9 13 -20z"/>
<path d="M2440 6181 c0 -6 4 -13 10 -16 6 -3 7 1 4 9 -7 18 -14 21 -14 7z"/>
<path d="M2474 6159 c-7 -12 44 -70 60 -68 30 4 37 -2 30 -23 -6 -22 -6 -22
12 -3 12 12 15 20 7 22 -6 2 -21 13 -33 23 -13 11 -27 17 -32 14 -10 -7 -38
14 -38 28 0 6 8 4 18 -3 15 -13 16 -12 3 4 -16 20 -18 20 -27 6z m61 -49 c3
-5 1 -10 -4 -10 -6 0 -11 5 -11 10 0 6 2 10 4 10 3 0 8 -4 11 -10z"/>
<path d="M2592 6057 c-8 -10 -6 -13 7 -13 11 0 17 6 14 13 -3 7 -6 13 -8 13
-1 0 -7 -6 -13 -13z"/>
<path d="M7676 5956 c9 -15 21 -22 30 -19 11 4 8 10 -10 24 -33 26 -40 24 -20
-5z"/>
<path d="M7844 5966 c-3 -8 -1 -23 5 -35 10 -18 0 -44 -56 -130 -1 -2 -17 6
-36 18 -33 20 -34 23 -29 67 4 41 3 46 -14 42 -14 -2 -20 -14 -24 -43 -5 -37
-7 -40 -34 -37 l-29 4 8 -79 c8 -95 30 -126 85 -122 49 4 62 -6 50 -37 -13
-33 -13 -34 9 -34 10 0 25 7 32 16 11 13 11 23 -1 58 -8 22 -14 53 -12 68 3
26 3 26 39 12 24 -11 49 -13 77 -8 l41 7 -32 -30 c-36 -34 -53 -81 -33 -93 18
-11 67 39 85 89 19 56 19 126 -1 160 -8 14 -31 37 -50 49 -25 17 -34 29 -32
45 2 16 -3 23 -20 25 -13 2 -24 -3 -28 -12z"/>
<path d="M8022 5703 c4 -14 -13 -53 -23 -53 -6 0 -8 -4 -5 -9 4 -5 0 -12 -6
-14 -10 -4 -10 -6 -1 -6 17 -1 56 76 43 84 -6 4 -9 3 -8 -2z"/>
<path d="M7725 5539 c-4 -6 -5 -12 -2 -15 2 -3 7 2 10 11 7 17 1 20 -8 4z"/>
<path d="M6838 5455 c-57 -18 -123 -89 -139 -149 -35 -130 56 -258 195 -273
122 -14 219 85 220 223 1 51 -4 69 -29 110 -53 84 -150 119 -247 89z m134
-124 c29 -25 33 -36 34 -79 0 -40 6 -54 28 -77 15 -15 26 -34 24 -43 -5 -23
-46 -17 -75 10 -19 17 -25 19 -38 8 -8 -7 -33 -13 -56 -13 -74 0 -124 74 -99
148 25 77 121 101 182 46z"/>
<path d="M6850 5294 c-22 -25 -16 -75 10 -96 26 -21 56 -16 83 14 21 25 22 47
1 76 -18 26 -75 30 -94 6z"/>
<path d="M3277 5284 c-4 -4 -7 -60 -7 -125 0 -109 1 -117 20 -122 28 -7 40 15
40 74 0 30 1 30 48 27 l47 -3 3 -52 c3 -49 5 -53 28 -53 l24 0 0 125 0 125
-25 0 c-23 0 -25 -3 -25 -50 l0 -50 -49 0 -50 0 -3 53 c-3 44 -6 52 -23 55
-12 2 -24 0 -28 -4z"/>
<path d="M3543 5210 c-13 -5 -23 -17 -23 -26 0 -13 7 -16 36 -11 19 3 42 3 50
0 26 -10 14 -23 -21 -23 -41 0 -91 -41 -81 -66 3 -9 6 -19 6 -24 0 -14 33 -23
98 -25 l62 -3 0 72 c0 39 -4 76 -8 82 -20 31 -75 41 -119 24z m75 -112 c-4
-31 -58 -40 -58 -9 0 18 14 27 48 30 8 1 12 -8 10 -21z"/>
<path d="M3700 5124 c0 -93 1 -95 23 -92 20 3 23 10 27 68 4 49 9 65 20 65 11
0 16 -16 20 -65 4 -58 8 -65 27 -68 21 -3 22 1 25 65 3 61 5 68 25 71 21 3 22
-1 25 -65 3 -62 5 -68 26 -71 21 -3 22 -1 22 83 0 82 -1 86 -26 97 -21 10 -31
9 -53 -3 -23 -14 -30 -14 -48 -2 -16 11 -27 12 -41 4 -11 -6 -22 -7 -26 -4 -4
4 -15 8 -26 10 -19 3 -20 -3 -20 -93z"/>
<path d="M4015 5208 c-33 -19 -44 -41 -45 -89 0 -75 61 -111 134 -77 35 15 16
40 -25 31 -28 -5 -59 9 -59 28 0 5 27 9 60 9 65 0 67 3 46 55 -22 51 -67 68
-111 43z m63 -40 c20 -20 14 -28 -23 -28 -24 0 -35 5 -35 14 0 24 39 33 58 14z"/>
<path d="M4155 5200 c-8 -26 6 -43 31 -38 13 2 19 12 19 28 0 34 -40 41 -50
10z"/>
<path d="M4154 5075 c-4 -9 0 -23 9 -32 21 -21 49 -9 45 19 -4 28 -45 38 -54
13z"/>
<path d="M2344 5448 c-4 -6 -3 -8 4 -4 6 3 13 2 17 -4 3 -5 11 -10 16 -10 6 0
7 4 4 10 -3 6 1 7 10 3 12 -4 13 -8 5 -13 -7 -4 -8 -10 -4 -12 5 -3 3 -3 -3
-2 -24 6 -44 -7 -33 -21 8 -9 6 -14 -6 -19 -13 -5 -14 -9 -4 -21 11 -14 15
-13 32 5 17 18 22 19 36 8 13 -11 14 -11 7 2 -12 18 -14 73 -3 80 4 3 -10 6
-32 7 -22 1 -43 -3 -46 -9z m50 -44 c13 -5 12 -9 -8 -25 -13 -10 -28 -19 -32
-19 -5 0 2 7 15 16 18 13 20 18 10 25 -16 10 -8 12 15 3z"/>
<path d="M2038 5303 c-24 -28 -29 -54 -32 -183 -3 -117 7 -158 19 -82 10 57
13 61 15 17 l2 -40 13 50 13 50 1 -42 c1 -33 4 -41 16 -37 8 3 17 14 20 25 4
10 15 19 26 19 11 0 31 11 44 25 49 49 24 151 -47 195 -41 25 -70 25 -90 3z"/>
<path d="M2085 4449 c-4 -6 -5 -12 -2 -15 2 -3 7 2 10 11 7 17 1 20 -8 4z"/>
<path d="M3270 4256 c0 -90 4 -103 41 -121 41 -22 77 -18 104 10 22 22 25 32
25 105 0 72 -2 80 -19 80 -16 0 -19 -9 -23 -76 -3 -74 -13 -93 -45 -94 -29 0
-43 32 -43 101 0 62 -2 69 -20 69 -18 0 -20 -7 -20 -74z"/>
<path d="M3474 4249 c-12 -14 -19 -36 -19 -64 0 -51 0 -51 45 -60 43 -8 77 13
66 41 -5 14 -9 15 -15 5 -15 -24 -46 -8 -49 25 -4 36 18 50 49 34 14 -8 19 -7
19 3 0 39 -65 50 -96 16z"/>
<path d="M3595 4254 c-23 -23 -15 -47 23 -65 39 -20 38 -34 -2 -34 -37 0 -46
-22 -12 -31 41 -10 75 3 82 31 7 30 -7 51 -41 59 -36 9 -32 30 5 23 32 -7 51
10 29 24 -22 14 -66 10 -84 -7z"/>
<path d="M3721 4244 c-12 -15 -21 -37 -21 -49 0 -35 37 -75 70 -75 39 0 60 9
60 27 0 12 -8 14 -34 9 -24 -5 -37 -2 -46 9 -11 13 -6 15 39 15 48 0 51 2 51
25 0 61 -81 87 -119 39z m77 -21 c2 -9 -7 -13 -27 -13 -30 0 -39 9 -24 24 11
10 46 3 51 -11z"/>
<path d="M3858 4199 c-3 -66 -2 -69 20 -69 20 0 22 5 22 49 0 35 4 51 16 55
26 10 34 -3 34 -55 0 -45 2 -49 24 -49 23 0 25 4 28 53 2 38 7 52 18 52 11 0
16 -14 18 -52 3 -45 6 -53 23 -53 17 0 19 7 19 59 0 35 -5 63 -12 69 -7 5 -57
10 -110 10 l-96 -1 -4 -68z"/>
<path d="M4125 4254 c-21 -21 -1 -38 25 -22 19 12 50 5 50 -12 0 -5 -12 -10
-26 -10 -38 0 -64 -18 -64 -44 0 -34 18 -44 78 -43 l52 1 0 61 c0 34 -5 66
-12 73 -18 18 -84 15 -103 -4z m78 -71 c11 -10 -13 -33 -34 -33 -18 0 -26 20
-12 33 8 9 38 9 46 0z"/>
<path d="M4260 4199 c0 -62 2 -69 20 -69 17 0 20 7 20 50 0 43 3 50 20 50 17
0 20 -7 20 -50 0 -43 3 -50 19 -50 17 0 20 8 23 48 3 40 6 47 26 50 20 3 22 0
22 -47 0 -44 3 -51 20 -51 17 0 20 7 20 43 0 23 -3 52 -6 65 -8 26 -44 38 -72
23 -12 -6 -23 -7 -26 -2 -3 5 -28 9 -56 9 l-50 0 0 -69z"/>
<path d="M4501 4244 c-24 -30 -26 -43 -10 -78 21 -45 119 -62 119 -20 0 12 -6
15 -25 10 -29 -7 -69 10 -59 25 4 7 23 8 50 4 42 -6 44 -5 44 19 0 62 -81 89
-119 40z m77 -21 c2 -8 -6 -13 -22 -13 -26 0 -40 12 -29 24 11 11 46 2 51 -11z"/>
<path d="M4650 4144 c0 -33 33 -30 38 4 3 17 -2 22 -17 22 -16 0 -21 -6 -21
-26z"/>
<path d="M8070 3710 c0 -5 5 -10 11 -10 5 0 7 5 4 10 -3 6 -8 10 -11 10 -2 0
-4 -4 -4 -10z"/>
<path d="M7865 3610 c-4 -6 11 -10 36 -10 48 0 49 4 2 13 -18 4 -35 2 -38 -3z"/>
<path d="M3277 3505 c-46 -47 -44 -119 5 -160 42 -35 128 -32 128 5 0 15 -7
17 -43 13 -32 -4 -46 -1 -58 13 -29 33 -31 59 -8 87 22 29 48 34 81 16 15 -8
23 -8 32 1 18 18 -29 50 -74 50 -27 0 -44 -7 -63 -25z"/>
<path d="M3820 3490 c0 -11 -4 -20 -10 -20 -5 0 -10 -9 -10 -20 0 -11 5 -20
10 -20 6 0 10 -22 10 -50 0 -44 3 -50 24 -56 25 -6 46 1 46 15 0 5 -9 11 -20
14 -16 4 -20 14 -20 46 0 30 4 41 15 41 8 0 15 7 15 15 0 8 -6 15 -14 15 -7 0
-16 9 -19 20 -3 11 -10 20 -16 20 -6 0 -11 -9 -11 -20z"/>
<path d="M4980 3492 c0 -10 -5 -23 -12 -30 -9 -9 -9 -15 0 -24 7 -7 12 -30 12
-53 0 -46 13 -65 47 -65 29 0 32 35 3 43 -14 4 -20 14 -20 35 0 21 6 31 20 35
11 3 20 10 20 17 0 7 -9 14 -20 17 -11 3 -20 14 -20 24 0 11 -7 19 -15 19 -8
0 -15 -8 -15 -18z"/>
<path d="M3441 3462 c-7 -2 -11 -31 -11 -73 0 -62 2 -69 20 -69 17 0 20 7 20
45 0 35 5 49 27 70 15 14 23 26 18 27 -23 3 -64 3 -74 0z"/>
<path d="M3547 3458 c-38 -29 -40 -107 -4 -130 20 -13 72 -9 93 7 20 15 18 17
-35 19 -54 2 -51 26 3 26 44 0 46 1 46 28 0 51 -61 81 -103 50z m61 -35 c2 -8
-6 -13 -22 -13 -25 0 -33 10 -19 24 10 10 36 3 41 -11z"/>
<path d="M3680 3455 c-19 -22 3 -44 24 -25 18 14 46 7 46 -12 0 -7 -14 -14
-31 -15 -37 -3 -59 -19 -59 -43 0 -28 22 -39 78 -38 l52 0 0 57 c0 43 -5 62
-18 74 -23 21 -75 22 -92 2z m70 -89 c0 -8 -6 -16 -13 -19 -19 -7 -41 8 -33
22 10 16 46 14 46 -3z"/>
<path d="M3909 3451 c-29 -23 -31 -81 -4 -111 27 -30 105 -25 105 7 0 10 -8
12 -33 8 -24 -5 -37 -2 -46 9 -12 14 -8 16 38 16 48 0 51 2 51 25 0 32 -33 65
-64 65 -13 0 -34 -8 -47 -19z m71 -26 c11 -13 7 -15 -25 -15 -32 0 -36 2 -25
15 7 8 18 15 25 15 7 0 18 -7 25 -15z"/>
<path d="M4107 3464 c-3 -3 -3 -12 -1 -19 4 -9 16 -12 40 -8 47 8 44 -13 -3
-24 -28 -6 -40 -16 -47 -35 -15 -41 5 -57 70 -57 l54 1 0 55 c0 77 -11 93 -64
93 -23 0 -45 -3 -49 -6z m73 -89 c0 -21 -28 -31 -43 -16 -9 9 -8 14 3 21 22
14 40 12 40 -5z"/>
<path d="M4261 3451 c-13 -13 -21 -34 -21 -56 0 -49 30 -77 78 -73 24 2 38 8
40 19 2 13 -5 16 -35 15 -37 -1 -38 0 -41 36 -3 29 1 38 17 43 12 3 30 3 42 0
17 -6 20 -3 17 12 -5 28 -71 30 -97 4z"/>
<path d="M4386 3448 c-22 -31 -21 -91 3 -112 26 -24 94 -19 99 7 3 16 -1 18
-26 12 -21 -4 -34 -1 -46 10 -34 35 -4 81 46 70 25 -6 29 -4 26 12 -2 13 -14
19 -45 21 -33 2 -44 -1 -57 -20z"/>
<path d="M4521 3444 c-28 -35 -26 -69 4 -99 49 -50 125 -20 125 50 0 72 -86
104 -129 49z m73 -10 c21 -8 21 -58 0 -75 -33 -27 -72 33 -44 67 14 16 21 17
44 8z"/>
<path d="M4670 3414 c0 -82 9 -94 75 -92 l55 2 0 73 c0 66 -2 73 -19 73 -17 0
-20 -8 -23 -52 -3 -46 -6 -53 -25 -56 -22 -3 -23 0 -23 52 0 49 -2 56 -20 56
-18 0 -20 -7 -20 -56z"/>
<path d="M4820 3431 c0 -108 36 -158 42 -58 3 45 6 52 26 55 21 3 22 0 22 -52
0 -49 2 -56 20 -56 18 0 20 7 20 56 0 82 -9 92 -75 92 l-55 -1 0 -36z"/>
<path d="M2416 2821 c-3 -5 1 -14 8 -20 12 -10 13 -8 9 8 -6 23 -9 25 -17 12z"/>
<path d="M4915 2616 c-13 -9 -16 -20 -11 -40 5 -22 11 -27 34 -24 21 2 28 9
30 30 4 34 -26 54 -53 34z"/>
<path d="M5114 2606 c-11 -28 1 -51 27 -54 29 -3 44 18 34 49 -8 23 -53 26
-61 5z"/>
<path d="M7894 2121 c-90 -56 -49 -191 58 -191 32 0 47 7 75 35 32 32 35 40
30 77 -11 80 -96 122 -163 79z"/>
<path d="M3200 1861 c0 -17 12 -41 20 -41 10 0 1 38 -11 46 -5 3 -9 1 -9 -5z"/>
<path d="M3343 1855 c0 -8 6 -15 14 -15 7 0 13 7 13 15 0 8 -6 15 -13 15 -8 0
-14 -7 -14 -15z"/>
<path d="M7119 1838 c-1 -24 -1 -48 0 -55 1 -7 -23 -24 -54 -38 -167 -80 -162
-318 8 -374 31 -11 36 -17 42 -58 8 -55 14 -73 25 -73 8 0 12 19 24 105 2 10
13 22 27 26 78 20 122 66 140 145 22 95 -25 182 -120 223 l-50 21 -3 57 c-2
46 -7 59 -20 61 -15 3 -18 -4 -19 -40z m81 -173 c40 -21 60 -53 60 -95 l-1
-35 -13 30 c-16 36 -52 70 -84 80 -49 15 -112 -37 -112 -93 0 -25 35 -69 74
-93 l31 -19 -28 0 c-59 0 -107 57 -107 126 0 29 8 44 39 75 43 44 88 51 141
24z"/>
<path d="M6334 1732 c-18 -12 -23 -39 -10 -57 25 -35 83 6 60 43 -13 19 -34
26 -50 14z"/>
<path d="M5070 1775 c0 -35 1 -36 33 -33 28 3 32 6 32 33 0 27 -4 30 -32 33
-32 3 -33 2 -33 -33z"/>
<path d="M4153 1733 c-16 -6 -17 -45 -1 -61 32 -32 80 8 58 48 -10 19 -31 24
-57 13z"/>
<path d="M4470 1721 c-20 -38 13 -71 51 -51 21 12 25 40 7 58 -18 18 -46 14
-58 -7z"/>
<path d="M4668 1715 c-8 -19 -8 -28 2 -40 30 -36 83 3 60 45 -15 28 -48 25
-62 -5z"/>
<path d="M5277 1683 c-26 -7 -15 -28 14 -28 15 0 25 7 27 18 3 17 -6 19 -41
10z"/>
<path d="M6020 1726 c-6 -8 -10 -25 -8 -38 2 -18 9 -23 33 -23 24 0 31 5 33
23 4 25 -13 52 -33 52 -7 0 -18 -7 -25 -14z"/>
<path d="M3330 1209 c0 -5 5 -7 10 -4 6 3 10 8 10 11 0 2 -4 4 -10 4 -5 0 -10
-5 -10 -11z"/>
<path d="M5088 1243 c7 -3 16 -2 19 1 4 3 -2 6 -13 5 -11 0 -14 -3 -6 -6z"/>
<path d="M5228 1243 c7 -3 16 -2 19 1 4 3 -2 6 -13 5 -11 0 -14 -3 -6 -6z"/>
<path d="M6413 1087 c-45 -25 -63 -61 -63 -126 l0 -62 113 3 112 3 3 47 c4 64
-21 116 -64 134 -40 17 -72 17 -101 1z"/>
<path d="M6420 750 c-24 -24 -26 -57 -6 -86 11 -15 12 -30 6 -60 -17 -72 -16
-74 45 -74 l56 0 -2 63 c0 34 2 79 6 100 6 29 3 42 -10 57 -23 26 -70 25 -95
0z"/>
<path d="M5160 390 c0 -11 5 -20 10 -20 6 0 10 9 10 20 0 11 -4 20 -10 20 -5
0 -10 -9 -10 -20z"/>
<path d="M4790 390 c0 -5 7 -10 15 -10 8 0 15 5 15 10 0 6 -7 10 -15 10 -8 0
-15 -4 -15 -10z"/>
<path d="M4147 394 c-4 -4 -7 -16 -7 -26 0 -14 6 -19 23 -16 14 2 22 10 22 23
0 20 -25 32 -38 19z"/>
<path d="M4310 390 c0 -5 7 -10 15 -10 8 0 15 5 15 10 0 6 -7 10 -15 10 -8 0
-15 -4 -15 -10z"/>
<path d="M4870 390 c0 -5 9 -10 20 -10 11 0 20 5 20 10 0 6 -9 10 -20 10 -11
0 -20 -4 -20 -10z"/>
<path d="M4873 358 c2 -7 10 -13 17 -13 7 0 15 6 18 13 2 7 -5 12 -18 12 -13
0 -20 -5 -17 -12z"/>
<path d="M5414 385 c-4 -9 -2 -21 4 -27 15 -15 44 -1 40 19 -4 23 -36 29 -44
8z"/>
<path d="M3750 10236 c0 -15 123 -93 182 -114 l73 -27 1150 0 c1092 0 1153 1
1218 19 65 18 168 75 196 109 13 16 -80 17 -1403 17 -779 0 -1416 -2 -1416 -4z"/>
<path d="M6800 9524 c0 -9 6 -28 14 -42 27 -52 47 -105 42 -109 -3 -3 -19 0
-37 6 -41 14 -44 10 -17 -24 l22 -28 -56 -53 c-68 -65 -52 -69 48 -14 86 47
105 47 241 0 47 -17 88 -30 90 -30 1 0 3 11 3 25 0 18 -5 25 -19 25 -29 0 -51
11 -51 25 0 7 -7 18 -15 25 -12 10 -13 16 -4 26 9 12 1 14 -50 15 -84 2 -84 2
-87 21 -2 19 -14 36 -69 101 -41 50 -55 57 -55 31z"/>
<path d="M6452 9316 c7 -8 15 -12 17 -11 5 6 -10 25 -20 25 -5 0 -4 -6 3 -14z"/>
<path d="M2840 9299 c14 -12 38 -32 55 -45 l29 -23 -30 -37 c-32 -40 -36 -42
-101 -69 -33 -14 -58 -16 -120 -11 l-78 6 43 -20 c47 -21 55 -49 23 -77 -21
-18 -86 -43 -113 -43 -21 0 -24 -35 -4 -43 20 -8 107 36 139 70 27 29 28 29
95 21 37 -5 121 -10 188 -11 102 -1 125 2 149 17 26 17 27 17 22 1 -4 -9 -7
-21 -7 -26 0 -5 -12 -15 -27 -21 l-28 -12 37 -4 c29 -2 37 -8 42 -28 5 -17 13
-24 31 -24 28 0 32 18 12 61 -35 77 -113 125 -180 112 -19 -4 -28 -2 -24 4 4
6 -12 13 -41 16 -61 7 -65 2 -11 -14 42 -13 43 -13 14 -17 -16 -2 -31 1 -33 7
-2 6 -16 8 -34 4 -22 -4 -29 -3 -24 6 4 6 12 8 18 5 7 -4 8 -2 4 4 -4 7 5 23
19 38 20 20 34 25 60 22 18 -2 31 0 29 4 -3 4 -19 8 -37 8 -31 0 -31 0 -11 20
19 19 22 19 98 5 89 -17 196 -19 245 -5 l33 9 -18 -21 c-19 -21 -19 -21 6 -14
14 4 36 7 49 7 24 -1 95 65 85 80 -2 4 -43 10 -92 13 -48 4 -159 13 -247 21
-88 8 -189 17 -225 20 l-65 6 25 -22z"/>
<path d="M6468 9266 c-19 -14 -23 -26 -10 -26 4 0 13 9 20 20 14 23 13 24 -10
6z"/>
<path d="M6469 9233 c-55 -61 -55 -66 1 -33 67 41 71 44 43 38 -16 -4 -20 -2
-16 8 8 21 -1 17 -28 -13z"/>
<path d="M2920 8958 c0 -19 -93 -68 -128 -68 -16 0 -46 7 -65 15 -40 17 -114
20 -136 6 -24 -16 27 -65 104 -101 119 -55 324 -66 373 -20 39 37 20 49 -117
76 -28 5 -31 8 -19 20 11 12 22 10 73 -11 64 -26 100 -31 110 -15 3 6 -4 14
-17 19 -13 5 -38 21 -55 35 -17 14 -50 33 -73 41 -51 18 -50 18 -50 3z"/>
<path d="M7537 8335 c75 -83 91 -110 77 -133 -6 -8 -16 -18 -24 -20 -8 -3 -10
0 -5 8 5 8 3 11 -6 8 -8 -3 -33 6 -56 19 -23 14 -51 23 -63 21 -19 -3 -19 -4
6 -58 14 -30 33 -63 42 -74 43 -48 167 -105 186 -86 7 7 -1 21 -23 44 l-32 33
33 21 c18 11 64 35 102 51 82 37 126 67 126 87 0 12 -16 14 -90 11 l-89 -4
-63 63 c-60 60 -66 64 -123 70 l-60 7 62 -68z"/>
<path d="M7374 8041 c3 -4 -11 -15 -30 -26 -42 -23 -47 -48 -6 -39 73 18 101
54 51 67 -10 3 -17 2 -15 -2z"/>
<path d="M3460 8010 c0 -5 5 -10 11 -10 5 0 7 5 4 10 -3 6 -8 10 -11 10 -2 0
-4 -4 -4 -10z"/>
<path d="M3621 8004 c0 -11 3 -14 6 -6 3 7 2 16 -1 19 -3 4 -6 -2 -5 -13z"/>
<path d="M3570 7980 c6 -11 13 -20 16 -20 2 0 0 9 -6 20 -6 11 -13 20 -16 20
-2 0 0 -9 6 -20z"/>
<path d="M3671 7984 c0 -11 3 -14 6 -6 3 7 2 16 -1 19 -3 4 -6 -2 -5 -13z"/>
<path d="M3533 7946 c1 -11 9 -21 17 -23 10 -3 11 -2 4 4 -6 4 -14 15 -17 23
-5 11 -6 9 -4 -4z"/>
<path d="M3560 7951 c0 -6 4 -13 10 -16 6 -3 7 1 4 9 -7 18 -14 21 -14 7z"/>
<path d="M3640 7957 c0 -16 21 -47 33 -47 8 0 9 3 1 8 -6 4 -16 16 -22 27 -6
11 -12 16 -12 12z"/>
<path d="M3616 7915 c4 -8 8 -15 10 -15 2 0 4 7 4 15 0 8 -4 15 -10 15 -5 0
-7 -7 -4 -15z"/>
<path d="M3566 7897 c3 -10 9 -15 12 -12 3 3 0 11 -7 18 -10 9 -11 8 -5 -6z"/>
<path d="M3751 7884 c0 -11 3 -14 6 -6 3 7 2 16 -1 19 -3 4 -6 -2 -5 -13z"/>
<path d="M3540 7880 c0 -5 5 -10 11 -10 5 0 7 5 4 10 -3 6 -8 10 -11 10 -2 0
-4 -4 -4 -10z"/>
<path d="M3615 7880 c3 -5 8 -10 11 -10 2 0 4 5 4 10 0 6 -5 10 -11 10 -5 0
-7 -4 -4 -10z"/>
<path d="M3660 7886 c0 -4 7 -14 15 -22 8 -9 15 -11 15 -6 0 5 -7 15 -15 22
-8 7 -15 9 -15 6z"/>
<path d="M3731 7864 c0 -11 3 -14 6 -6 3 7 2 16 -1 19 -3 4 -6 -2 -5 -13z"/>
<path d="M3590 7859 c0 -5 5 -7 10 -4 6 3 10 8 10 11 0 2 -4 4 -10 4 -5 0 -10
-5 -10 -11z"/>
<path d="M3640 7860 c0 -5 5 -10 11 -10 5 0 7 5 4 10 -3 6 -8 10 -11 10 -2 0
-4 -4 -4 -10z"/>
<path d="M3621 7834 c0 -11 3 -14 6 -6 3 7 2 16 -1 19 -3 4 -6 -2 -5 -13z"/>
<path d="M3720 7826 c0 -10 4 -15 9 -12 5 4 12 0 14 -6 4 -8 6 -9 6 -2 1 6 -6
17 -14 24 -12 10 -15 9 -15 -4z"/>
<path d="M3641 7814 c0 -11 3 -14 6 -6 3 7 2 16 -1 19 -3 4 -6 -2 -5 -13z"/>
<path d="M3766 7815 c-3 -8 -1 -15 4 -15 6 0 10 7 10 15 0 8 -2 15 -4 15 -2 0
-6 -7 -10 -15z"/>
<path d="M3790 7810 c0 -5 5 -10 11 -10 5 0 7 5 4 10 -3 6 -8 10 -11 10 -2 0
-4 -4 -4 -10z"/>
<path d="M3660 7800 c0 -5 5 -10 11 -10 5 0 7 5 4 10 -3 6 -8 10 -11 10 -2 0
-4 -4 -4 -10z"/>
<path d="M3645 7770 c3 -5 8 -10 11 -10 2 0 4 5 4 10 0 6 -5 10 -11 10 -5 0
-7 -4 -4 -10z"/>
<path d="M3695 7768 c11 -6 23 -16 27 -22 5 -8 8 -7 8 1 0 7 -9 17 -19 23 -27
14 -41 12 -16 -2z"/>
<path d="M3750 7765 c0 -10 3 -16 6 -12 4 3 13 0 21 -8 8 -8 19 -15 25 -15 6
0 9 1 7 3 -2 1 -16 13 -31 26 -25 22 -28 23 -28 6z"/>
<path d="M3800 7761 c0 -5 7 -12 16 -15 24 -9 27 -7 10 9 -17 17 -26 19 -26 6z"/>
<path d="M3670 7749 c0 -5 5 -7 10 -4 6 3 10 8 10 11 0 2 -4 4 -10 4 -5 0 -10
-5 -10 -11z"/>
<path d="M3695 7740 c-3 -5 -1 -10 4 -10 6 0 11 5 11 10 0 6 -2 10 -4 10 -3 0
-8 -4 -11 -10z"/>
<path d="M3740 7728 c0 -6 3 -9 6 -5 4 3 12 1 20 -6 37 -33 46 -38 52 -32 4 4
2 10 -5 12 -6 2 -21 13 -34 24 -25 22 -39 24 -39 7z"/>
<path d="M3716 7722 c-3 -5 7 -15 22 -23 15 -8 30 -18 33 -23 4 -4 9 -3 13 2
3 6 -3 13 -14 17 -11 3 -26 13 -34 21 -8 8 -17 10 -20 6z"/>
<path d="M1532 7659 c5 -29 8 -87 6 -130 -2 -58 0 -79 10 -79 9 0 12 31 12
124 0 104 -3 125 -16 130 -9 3 -17 6 -18 6 -2 0 1 -23 6 -51z"/>
<path d="M3710 7680 c0 -5 5 -10 10 -10 6 0 10 5 10 10 0 6 -4 10 -10 10 -5 0
-10 -4 -10 -10z"/>
<path d="M3759 7656 c9 -11 9 -15 -1 -19 -9 -3 -7 -9 7 -20 11 -8 22 -13 25
-10 3 3 -1 8 -7 10 -7 3 -13 9 -13 14 0 4 8 6 18 2 12 -4 10 1 -7 15 -27 25
-39 29 -22 8z"/>
<path d="M3813 7644 c16 -14 31 -23 35 -19 4 4 1 10 -6 12 -7 3 -19 11 -26 19
-8 8 -18 14 -23 14 -4 0 5 -12 20 -26z"/>
<path d="M3830 7660 c8 -5 20 -10 25 -10 6 0 3 5 -5 10 -8 5 -19 10 -25 10 -5
0 -3 -5 5 -10z"/>
<path d="M3806 7621 c-3 -5 1 -12 10 -15 22 -8 25 -4 9 11 -8 7 -16 9 -19 4z"/>
<path d="M2336 7449 c-20 -17 -40 -28 -45 -25 -5 3 -8 -1 -7 -11 2 -9 10 -17
19 -19 10 -1 15 2 12 6 -3 5 12 21 35 36 38 25 51 44 30 44 -5 0 -25 -14 -44
-31z"/>
<path d="M2090 7220 c0 -5 5 -10 10 -10 6 0 10 5 10 10 0 6 -4 10 -10 10 -5 0
-10 -4 -10 -10z"/>
<path d="M2020 7204 c0 -3 7 -12 15 -20 16 -17 18 -14 9 10 -6 15 -24 23 -24
10z"/>
<path d="M1530 3370 c0 -2986 2 -3370 15 -3370 13 0 15 385 17 3370 3 3204 2
3370 -14 3370 -17 0 -18 -167 -18 -3370z"/>
<path d="M2739 733 c-13 -16 -12 -17 4 -4 16 13 21 21 13 21 -2 0 -10 -8 -17
-17z"/>
<path d="M3011 30 c6 -16 15 -30 20 -30 5 0 3 13 -6 30 -9 17 -17 30 -20 30
-2 0 1 -13 6 -30z"/>
<path d="M3516 13 c-6 -14 -5 -15 5 -6 7 7 10 15 7 18 -3 3 -9 -2 -12 -12z"/>
</g>
</svg>
