<svg version="1.1" id="Layer_1" xmlns="http://www.w3.org/2000/svg" xmlns:xlink="http://www.w3.org/1999/xlink" x="0px" y="0px"
	 width="100%" viewBox="0 0 1197 309" enable-background="new 0 0 1197 309" xml:space="preserve">
<path fill="#000000" opacity="1.000000" stroke="none" 
	d="
M793.000000,310.000000 
	C528.666687,310.000000 264.833344,310.000000 1.000000,310.000000 
	C1.000000,207.000000 1.000000,104.000000 1.000000,1.000000 
	C400.000000,1.000000 799.000000,1.000000 1198.000000,1.000000 
	C1198.000000,104.000000 1198.000000,207.000000 1198.000000,310.000000 
	C1063.166626,310.000000 928.333313,310.000000 793.000000,310.000000 
M986.114868,122.737450 
	C986.816895,124.078728 987.190857,125.835480 988.275696,126.691978 
	C994.071777,131.268509 1000.045471,135.620163 1006.335815,140.332840 
	C1008.663025,137.467468 1011.010803,135.101089 1012.729370,132.342682 
	C1015.583923,127.760887 1019.039978,125.416595 1024.813110,125.839188 
	C1032.262939,126.384499 1039.854248,126.623245 1047.254883,125.811073 
	C1057.022217,124.739174 1064.421631,127.171921 1068.873535,136.359360 
	C1070.953003,140.650894 1073.496948,140.334106 1076.396729,137.140457 
	C1076.936035,136.546585 1077.771729,136.231522 1078.432983,135.737366 
	C1083.248657,132.138382 1088.054565,128.526550 1093.119507,124.726791 
	C1074.908203,101.275673 1057.239380,78.523148 1039.291626,55.411591 
	C1024.366821,74.642998 1010.150757,93.075783 995.778625,111.386002 
	C992.811646,115.165916 989.263062,118.489311 986.041809,121.232918 
	C989.260986,112.099739 987.452942,104.419571 979.204224,98.869087 
	C979.695740,98.075996 979.898987,97.606163 980.223450,97.245232 
	C989.700684,86.701485 987.338379,72.385307 974.307556,67.057426 
	C966.502991,63.866417 957.836426,61.962692 949.414062,61.299511 
	C937.333801,60.348305 925.120972,60.939537 912.968689,61.126335 
	C909.089966,61.185955 905.223572,62.053101 901.055420,62.588814 
	C901.055420,64.839043 901.055420,66.653015 901.055420,68.466995 
	C901.055420,88.781113 901.053650,109.095230 901.056396,129.409348 
	C901.057312,136.095718 901.666199,136.971817 908.288818,136.897354 
	C924.732483,136.712524 941.191101,136.634583 957.609070,135.817673 
	C968.804016,135.260635 979.055908,131.729889 986.114868,122.737450 
M915.998596,160.056366 
	C905.505249,160.037582 895.011902,159.992538 884.518616,160.004822 
	C850.375000,160.044815 816.231323,160.105789 781.297241,160.185623 
	C780.547546,161.813019 779.148132,163.438431 779.143127,165.068100 
	C779.021484,204.838196 779.080444,244.608795 778.990417,284.379059 
	C778.982788,287.756531 779.888733,289.026093 783.465698,289.017792 
	C827.229614,288.916229 870.993835,288.923157 914.757812,289.007874 
	C918.068542,289.014282 919.056213,287.859070 919.009521,284.657837 
	C918.858948,274.343018 919.037964,264.023193 918.861633,253.709183 
	C918.835510,252.180923 917.577942,250.673706 915.978577,249.048523 
	C886.357178,249.091980 856.735718,249.135437 826.355225,248.959396 
	C823.927734,244.501617 824.850342,242.982513 830.249207,242.972137 
	C851.905151,242.930557 873.561890,242.874191 895.216858,243.029083 
	C898.961304,243.055878 900.138367,241.910629 900.030884,238.189163 
	C899.790588,229.866852 899.604004,221.512436 900.084045,213.210922 
	C900.389648,207.925262 898.510193,206.874634 893.612061,206.933304 
	C872.292236,207.188675 850.967590,207.056503 829.644653,207.029984 
	C825.432739,207.024750 823.528503,204.939835 825.251587,201.817810 
	C825.900024,200.642975 828.498291,200.038895 830.210999,200.032303 
	C858.030334,199.925247 885.850159,199.958801 913.669922,199.951553 
	C916.278015,199.950867 919.082336,200.608597 919.010010,196.239426 
	C918.828064,185.247818 919.004089,174.250473 918.861084,163.257706 
	C918.847595,162.222076 917.591919,161.202637 915.998596,160.056366 
M376.210175,156.726959 
	C375.688751,155.215500 375.409973,153.558060 374.603821,152.217880 
	C371.126404,146.436829 367.494446,140.748718 364.864471,134.980576 
	C369.029114,134.973419 373.193787,134.965057 377.358429,134.959366 
	C383.950195,134.950378 383.954834,134.951126 383.960022,128.559082 
	C383.965607,121.679962 383.961304,114.800842 383.961304,106.872696 
	C392.024323,112.689629 399.094452,117.790253 406.035278,122.797577 
	C413.196198,117.619568 420.213806,112.545204 428.042206,106.884552 
	C428.042206,115.673676 428.139160,123.302147 427.993958,130.926010 
	C427.936859,133.924911 428.938446,135.088013 432.013153,135.006409 
	C438.338989,134.838547 444.683838,134.728012 450.998688,135.041153 
	C455.041840,135.241653 456.063110,133.769577 456.034271,129.907806 
	C455.875061,108.585808 456.009247,87.261665 455.868652,65.939415 
	C455.856506,64.097115 455.002167,61.147339 453.787750,60.684895 
	C451.931091,59.977871 448.938232,60.269203 447.263428,61.387913 
	C435.169678,69.466156 423.151978,77.675507 411.409424,86.252953 
	C407.308594,89.248428 404.413696,88.974281 400.466370,86.118950 
	C388.682800,77.595207 376.682526,69.364746 364.603638,61.263134 
	C363.016693,60.198742 360.145172,59.780369 358.487091,60.495914 
	C357.178253,61.060719 356.156616,63.822769 356.141022,65.618813 
	C355.960327,86.440460 355.995483,107.263969 355.310242,127.820076 
	C354.612457,127.439377 353.890289,127.097107 353.220490,126.672302 
	C338.606659,117.404129 322.930634,113.371330 305.633881,116.654633 
	C304.614166,116.848183 302.538971,115.280655 302.097961,114.104187 
	C299.328735,106.716812 296.833496,99.224594 294.342316,91.735565 
	C289.633453,77.579697 284.988525,63.402557 280.239990,49.000687 
	C288.674316,49.000687 296.673920,49.110828 304.667755,48.944286 
	C307.693542,48.881248 309.808197,49.392097 309.999115,52.884041 
	C310.154755,55.730896 310.125671,57.863834 306.102783,58.290203 
	C304.248169,58.486763 301.825470,61.234314 301.200714,63.292713 
	C300.233856,66.478287 301.118805,69.589417 305.059631,71.077644 
	C309.151367,72.622849 316.544128,69.889000 319.866180,65.537193 
	C323.233612,61.125965 322.660645,56.096020 323.109955,51.073139 
	C323.785492,43.521843 316.175842,34.811924 307.279999,34.952606 
	C295.449738,35.139683 283.614166,34.973682 271.781067,35.009453 
	C265.551178,35.028286 262.613068,39.068417 264.516205,45.031223 
	C266.131409,50.091896 267.917755,55.097672 269.583893,60.142441 
	C271.825378,66.929329 274.024139,73.730339 276.316986,80.757431 
	C240.106384,80.757431 204.663086,80.757431 169.260315,80.757431 
	C167.534180,70.137238 165.847382,59.759079 164.098740,49.000343 
	C168.915192,49.000343 173.562515,49.081753 178.205627,48.976833 
	C182.610062,48.877308 186.138351,45.486450 185.934052,41.765415 
	C185.734207,38.125965 182.415176,35.049267 178.232224,35.028404 
	C163.399384,34.954426 148.565659,34.948864 133.732910,35.031296 
	C129.370361,35.055542 125.826706,38.559685 126.001129,42.265995 
	C126.166840,45.787231 129.616226,48.871754 133.746216,48.976933 
	C137.910141,49.082981 142.091797,49.203007 146.241547,48.938393 
	C149.733994,48.715694 150.628998,50.351910 151.068832,53.451431 
	C152.116669,60.835678 153.745590,68.139297 154.730759,75.529999 
	C155.449707,80.923721 157.879684,86.434151 151.710144,91.137161 
	C147.707321,94.188492 145.274445,99.246231 141.941711,103.241112 
	C135.566910,110.882484 129.051987,118.406982 122.626701,125.943047 
	C87.075905,102.854156 45.996986,120.587669 30.208715,149.422791 
	C13.496859,179.944702 26.069376,223.852676 60.948193,238.010056 
	C78.040070,244.947678 95.520126,245.572571 112.380203,238.672089 
	C135.593719,229.171280 147.326569,210.149261 151.224564,186.000793 
	C155.295319,186.000793 158.789383,186.000793 162.283447,186.000793 
	C165.769119,186.000793 169.254791,186.000793 172.650757,186.000793 
	C176.481537,199.466232 186.926849,209.449783 201.067230,208.958267 
	C204.368896,208.843491 204.552505,210.887650 205.044388,213.256577 
	C206.342072,219.506378 208.320694,220.993439 214.758392,220.999481 
	C220.758347,221.005112 226.759933,221.079514 232.757278,220.954712 
	C234.668045,220.914948 236.621567,220.514084 238.460571,219.962097 
	C241.929550,218.920853 243.550461,216.488800 242.984833,212.838058 
	C242.409927,209.127579 240.320633,207.010574 236.420059,207.002258 
	C231.586792,206.991943 226.752808,207.044800 221.920578,206.973358 
	C220.381516,206.950623 218.847000,206.618362 216.550537,206.333496 
	C217.785370,204.911301 218.274551,203.943802 219.059402,203.504181 
	C232.085480,196.207993 233.662827,177.040665 228.474136,166.115555 
	C227.146286,163.319687 227.221329,161.416962 229.200211,159.290039 
	C237.746475,150.104309 246.300903,140.925858 254.792923,131.690109 
	C261.251038,124.666405 267.575226,117.519440 274.048248,110.509712 
	C276.907928,107.412933 279.988525,104.520157 283.262543,101.240524 
	C285.620667,108.370636 287.669342,114.565079 289.759125,120.883865 
	C287.232697,122.364944 284.815338,123.650192 282.532166,125.140930 
	C259.693085,140.053009 249.836014,161.632233 253.281677,188.136307 
	C256.460663,212.588989 269.773529,230.856186 293.571991,239.608170 
	C300.893768,242.300766 309.141113,243.970200 316.881897,243.703812 
	C330.890991,243.221695 344.240265,239.147125 356.012787,231.863831 
	C356.012787,251.318146 356.012787,270.772461 356.012787,290.914703 
	C365.555176,291.654205 374.580780,293.109253 383.568665,292.904877 
	C407.980743,292.349792 432.452820,294.685150 456.816956,291.068695 
	C469.236023,289.225281 481.198181,286.367920 492.283478,280.308929 
	C510.445251,270.382111 515.694763,249.446411 503.592468,233.537079 
	C500.601440,229.605209 496.269226,226.693604 492.524261,223.286301 
	C492.909271,222.792130 493.137512,222.289871 493.527344,222.028946 
	C507.390808,212.749878 508.244751,199.258408 505.348694,187.040436 
	C502.904327,176.728134 494.617523,170.472778 485.353210,166.211075 
	C468.194183,158.317734 449.654114,156.617279 431.160156,156.175079 
	C413.070007,155.742508 394.945435,156.750351 376.210175,156.726959 
M1019.489380,292.959351 
	C1027.393433,292.295990 1035.362061,292.060120 1043.188232,290.880463 
	C1059.607910,288.405548 1074.817505,282.871674 1085.259033,269.103363 
	C1095.713745,255.317719 1095.422119,231.779404 1077.651245,219.857758 
	C1061.810425,209.230927 1043.453857,207.145538 1025.198853,205.098099 
	C1015.179138,203.974304 1005.059875,203.763611 995.003845,202.922180 
	C991.848877,202.658203 988.753662,201.680893 985.631104,201.030075 
	C987.391296,199.035828 989.249573,197.624496 991.173828,197.528015 
	C1002.915771,196.939270 1014.826721,195.299301 1026.383789,196.617828 
	C1039.397217,198.102493 1052.107666,202.297028 1064.922852,205.423279 
	C1067.530396,206.059357 1069.228271,206.172241 1070.209473,202.956863 
	C1071.266235,199.494034 1073.119995,196.278275 1074.572998,192.931656 
	C1077.775024,185.556259 1080.943604,178.166351 1084.462524,170.001221 
	C1074.073730,166.523376 1064.585205,162.319199 1054.651978,160.241165 
	C1035.501953,156.234940 1016.077759,154.581116 996.435669,156.923218 
	C984.858643,158.303650 973.743225,160.681686 963.176270,165.883087 
	C946.877747,173.905746 937.827942,185.803421 938.885010,204.831223 
	C939.580933,217.357956 944.965759,226.139481 955.828064,231.887161 
	C973.244202,241.102707 992.392639,242.995300 1011.507629,244.931107 
	C1020.065369,245.797729 1028.664673,246.250870 1037.225586,247.091187 
	C1039.697021,247.333755 1042.100220,248.269745 1044.534790,248.887817 
	C1044.426270,249.554749 1044.317871,250.221680 1044.209351,250.888611 
	C1011.815308,255.940445 980.224854,253.580872 949.877136,238.744095 
	C944.342712,250.363480 938.928528,261.525574 933.838562,272.833649 
	C933.460693,273.673035 935.084229,276.301117 936.328796,276.852081 
	C962.481934,288.429810 989.787964,294.311951 1019.489380,292.959351 
M734.057678,241.484985 
	C725.500977,235.179245 716.944275,228.873505 707.977356,222.265503 
	C710.264648,220.814087 712.047852,219.645920 713.865845,218.534744 
	C727.265686,210.344849 740.607422,202.056580 754.115051,194.048279 
	C758.396484,191.509903 758.488708,189.095108 755.653259,185.408615 
	C752.427307,181.214264 749.609863,176.705124 746.625854,172.325287 
	C742.724182,166.598419 738.833252,160.864166 734.755432,154.864853 
	C719.724365,164.337036 705.084900,173.613388 690.393311,182.806396 
	C675.668152,192.020447 660.890991,201.151321 644.967224,211.045212 
	C644.967224,207.660202 644.967285,205.881607 644.967285,204.103012 
	C644.967102,191.111038 644.853027,178.117432 645.037720,165.128082 
	C645.091431,161.352814 644.172363,159.815659 640.057068,159.901794 
	C628.069641,160.152664 616.070740,160.144409 604.082764,159.907654 
	C599.965881,159.826340 598.976807,161.462433 598.984436,165.202667 
	C599.065918,205.011261 599.061890,244.820129 598.984619,284.628754 
	C598.978455,287.791840 599.857788,289.063385 603.210266,289.022766 
	C615.700745,288.871429 628.195007,288.879578 640.685791,289.019226 
	C643.916565,289.055359 645.116028,288.025787 645.021667,284.733795 
	C644.830750,278.076782 644.743408,271.398041 645.107727,264.755371 
	C645.215576,262.788574 646.493347,260.217896 648.068604,259.120117 
	C653.636108,255.240280 659.483154,251.731781 665.417603,248.430130 
	C666.802490,247.659622 669.425415,247.536270 670.663086,248.352234 
	C676.039795,251.896805 681.112976,255.901459 686.299988,259.734100 
	C700.804565,270.451447 715.319092,281.155365 729.808838,291.892670 
	C732.334351,293.764099 734.419006,294.729767 736.872559,291.465454 
	C743.520203,282.621155 750.229309,273.805267 757.334839,265.330902 
	C760.481750,261.577667 759.751099,259.476501 756.150452,257.010986 
	C748.923096,252.062210 741.821289,246.930161 734.057678,241.484985 
M611.933350,82.517693 
	C610.612915,81.820747 609.241943,81.204437 607.979980,80.414101 
	C597.765869,74.017113 587.603760,67.536476 577.359070,61.189064 
	C572.168579,57.973103 568.104492,59.750843 568.080200,65.312103 
	C567.984253,87.292084 568.073303,109.272835 568.000122,131.252991 
	C567.990662,134.092377 569.077271,135.053726 571.831482,134.990875 
	C577.490112,134.861786 583.153809,134.956451 588.815430,134.955307 
	C595.953735,134.953857 595.954651,134.952271 595.955994,127.601074 
	C595.957275,120.549683 595.956299,113.498291 595.956299,105.908508 
	C597.705811,106.530991 598.537415,106.673988 599.201965,107.086220 
	C609.306641,113.354332 619.386719,119.662132 629.478394,125.951157 
	C635.789795,129.884354 642.014282,133.971161 648.465942,137.659927 
	C652.087341,139.730484 655.901428,137.722397 655.913391,133.971878 
	C655.985352,111.492172 655.923462,89.012062 655.977539,66.532249 
	C655.983704,63.950428 654.993591,62.986454 652.439575,63.021225 
	C645.613647,63.114140 638.782532,63.167725 631.959656,62.995552 
	C628.821777,62.916370 627.915344,64.199806 628.003723,67.133110 
	C628.159058,72.290459 628.045105,77.455917 628.044312,82.617981 
	C628.043823,85.628708 628.044189,88.639435 628.044189,92.576431 
	C622.023010,88.876015 617.249207,85.942200 611.933350,82.517693 
M573.979126,282.377014 
	C573.979126,243.748581 573.903198,205.119812 574.073914,166.492126 
	C574.095581,161.588837 572.880066,159.658066 567.665771,159.868896 
	C558.190674,160.251968 548.688904,159.977493 539.198303,159.977432 
	C535.609924,159.977417 532.021484,159.977432 528.454468,159.977432 
	C528.238220,161.418991 528.057251,162.063309 528.056946,162.707733 
	C528.036499,203.500580 528.066528,244.293518 527.963013,285.086121 
	C527.953674,288.765594 529.810974,289.028320 532.643433,289.010437 
	C544.631104,288.934662 556.625488,288.760864 568.604675,289.088928 
	C573.231445,289.215607 574.611816,287.522919 573.979126,282.377014 
M542.826660,94.686028 
	C532.737854,81.717255 522.649048,68.748474 512.391296,55.562485 
	C509.266510,59.402042 506.708649,62.420898 504.284729,65.543732 
	C489.698212,84.336266 475.178009,103.180504 460.525421,121.921272 
	C458.925903,123.967049 458.736420,125.023788 460.993134,126.639847 
	C467.013031,130.950790 472.863770,135.497894 479.283997,140.329086 
	C481.604309,137.468903 483.975311,134.962891 485.855560,132.131027 
	C488.691223,127.860260 491.928070,125.375488 497.562866,125.836319 
	C504.507721,126.404312 511.622223,126.673615 518.505676,125.812004 
	C529.567139,124.427406 537.867310,127.448944 542.901001,137.768356 
	C542.973877,137.917770 543.004639,138.186050 543.101990,138.210297 
	C544.355225,138.522736 546.091736,139.479126 546.802612,138.981674 
	C553.249329,134.470505 559.517273,129.703796 566.198669,124.743790 
	C558.213867,114.567474 550.668518,104.951225 542.826660,94.686028 
M791.883789,64.915779 
	C790.542908,64.283104 789.204163,63.103680 787.860840,63.098408 
	C760.550720,62.991222 733.239868,63.054989 705.929626,62.969067 
	C702.792786,62.959198 701.891479,64.205223 701.976013,67.124809 
	C702.125427,72.282829 702.210815,77.458076 701.951233,82.607376 
	C701.766235,86.277901 703.340576,87.136391 706.660034,87.043770 
	C713.315979,86.858063 719.989746,87.198929 726.638489,86.912155 
	C730.682739,86.737732 732.173828,87.881798 732.083801,92.162987 
	C731.821289,104.647049 732.133423,117.142761 731.909424,129.628326 
	C731.837280,133.650970 732.843689,135.315918 737.152283,135.070541 
	C743.127869,134.730255 749.151611,134.732544 755.127686,135.068634 
	C759.580688,135.319061 761.230835,134.091492 761.100342,129.317978 
	C760.763550,117.004128 761.130005,104.672356 760.906677,92.353348 
	C760.833801,88.328590 761.858887,86.701332 766.159302,86.902252 
	C773.138184,87.228294 780.149170,86.822754 787.135376,87.057579 
	C790.754150,87.179222 792.265381,86.177406 792.059143,82.318970 
	C791.766235,76.838852 791.970703,71.332138 791.883789,64.915779 
M878.014038,127.544334 
	C898.729614,114.183846 899.004211,85.390862 879.060303,70.891266 
	C860.769470,57.593586 824.126709,56.949959 805.167786,72.500977 
	C796.683105,79.460564 792.065735,88.655014 792.258911,99.314857 
	C792.539368,114.786690 801.327576,126.107857 814.986572,131.600815 
	C835.927429,140.022186 857.270508,140.347076 878.014038,127.544334 
M690.336548,63.015079 
	C684.175842,63.016605 678.013611,63.098885 671.855103,62.982574 
	C669.135681,62.931206 667.972900,63.834015 667.982422,66.698921 
	C668.053711,88.177864 668.067444,109.657372 667.968750,131.136108 
	C667.954041,134.339859 669.343506,135.078781 672.189819,135.021667 
	C678.514465,134.894745 684.850586,134.802582 691.167847,135.053467 
	C694.835083,135.199112 696.090088,134.070862 696.060974,130.278488 
	C695.900879,109.466553 695.909973,88.652229 696.055176,67.840065 
	C696.080627,64.196953 695.090393,62.447403 690.336548,63.015079 
z"/>
<path fill="#F8DE82" opacity="1.000000" stroke="none" 
	d="
M355.971619,230.917450 
	C344.240265,239.147125 330.890991,243.221695 316.881897,243.703812 
	C309.141113,243.970200 300.893768,242.300766 293.571991,239.608170 
	C269.773529,230.856186 256.460663,212.588989 253.281677,188.136307 
	C249.836014,161.632233 259.693085,140.053009 282.532166,125.140930 
	C284.815338,123.650192 287.232697,122.364944 289.759125,120.883865 
	C287.669342,114.565079 285.620667,108.370636 283.262543,101.240524 
	C279.988525,104.520157 276.907928,107.412933 274.048248,110.509712 
	C267.575226,117.519440 261.251038,124.666405 254.792923,131.690109 
	C246.300903,140.925858 237.746475,150.104309 229.200211,159.290039 
	C227.221329,161.416962 227.146286,163.319687 228.474136,166.115555 
	C233.662827,177.040665 232.085480,196.207993 219.059402,203.504181 
	C218.274551,203.943802 217.785370,204.911301 216.550537,206.333496 
	C218.847000,206.618362 220.381516,206.950623 221.920578,206.973358 
	C226.752808,207.044800 231.586792,206.991943 236.420059,207.002258 
	C240.320633,207.010574 242.409927,209.127579 242.984833,212.838058 
	C243.550461,216.488800 241.929550,218.920853 238.460571,219.962097 
	C236.621567,220.514084 234.668045,220.914948 232.757278,220.954712 
	C226.759933,221.079514 220.758347,221.005112 214.758392,220.999481 
	C208.320694,220.993439 206.342072,219.506378 205.044388,213.256577 
	C204.552505,210.887650 204.368896,208.843491 201.067230,208.958267 
	C186.926849,209.449783 176.481537,199.466232 172.650757,186.000793 
	C169.254791,186.000793 165.769119,186.000793 162.283447,186.000793 
	C158.789383,186.000793 155.295319,186.000793 151.224564,186.000793 
	C147.326569,210.149261 135.593719,229.171280 112.380203,238.672089 
	C95.520126,245.572571 78.040070,244.947678 60.948193,238.010056 
	C26.069376,223.852676 13.496859,179.944702 30.208715,149.422791 
	C45.996986,120.587669 87.075905,102.854156 122.626701,125.943047 
	C129.051987,118.406982 135.566910,110.882484 141.941711,103.241112 
	C145.274445,99.246231 147.707321,94.188492 151.710144,91.137161 
	C157.879684,86.434151 155.449707,80.923721 154.730759,75.529999 
	C153.745590,68.139297 152.116669,60.835678 151.068832,53.451431 
	C150.628998,50.351910 149.733994,48.715694 146.241547,48.938393 
	C142.091797,49.203007 137.910141,49.082981 133.746216,48.976933 
	C129.616226,48.871754 126.166840,45.787231 126.001129,42.265995 
	C125.826706,38.559685 129.370361,35.055542 133.732910,35.031296 
	C148.565659,34.948864 163.399384,34.954426 178.232224,35.028404 
	C182.415176,35.049267 185.734207,38.125965 185.934052,41.765415 
	C186.138351,45.486450 182.610062,48.877308 178.205627,48.976833 
	C173.562515,49.081753 168.915192,49.000343 164.098740,49.000343 
	C165.847382,59.759079 167.534180,70.137238 169.260315,80.757431 
	C204.663086,80.757431 240.106384,80.757431 276.316986,80.757431 
	C274.024139,73.730339 271.825378,66.929329 269.583893,60.142441 
	C267.917755,55.097672 266.131409,50.091896 264.516205,45.031223 
	C262.613068,39.068417 265.551178,35.028286 271.781067,35.009453 
	C283.614166,34.973682 295.449738,35.139683 307.279999,34.952606 
	C316.175842,34.811924 323.785492,43.521843 323.109955,51.073139 
	C322.660645,56.096020 323.233612,61.125965 319.866180,65.537193 
	C316.544128,69.889000 309.151367,72.622849 305.059631,71.077644 
	C301.118805,69.589417 300.233856,66.478287 301.200714,63.292713 
	C301.825470,61.234314 304.248169,58.486763 306.102783,58.290203 
	C310.125671,57.863834 310.154755,55.730896 309.999115,52.884041 
	C309.808197,49.392097 307.693542,48.881248 304.667755,48.944286 
	C296.673920,49.110828 288.674316,49.000687 280.239990,49.000687 
	C284.988525,63.402557 289.633453,77.579697 294.342316,91.735565 
	C296.833496,99.224594 299.328735,106.716812 302.097961,114.104187 
	C302.538971,115.280655 304.614166,116.848183 305.633881,116.654633 
	C322.930634,113.371330 338.606659,117.404129 353.220490,126.672302 
	C353.890289,127.097107 354.612457,127.439377 355.715332,128.278152 
	C357.330017,129.598633 358.539642,130.461029 359.812012,131.418365 
	C359.874786,131.513336 359.821411,131.734650 359.925781,132.073212 
	C361.326355,133.283447 362.622559,134.155106 363.918732,135.026779 
	C367.494446,140.748718 371.126404,146.436829 374.603821,152.217880 
	C375.409973,153.558060 375.688751,155.215500 376.507324,157.289810 
	C377.147736,158.963760 377.490967,160.074860 377.874084,161.601273 
	C378.586456,167.117798 379.730316,172.208191 379.847656,177.322144 
	C380.294403,196.792542 373.429230,213.411758 359.317627,227.302826 
	C358.051453,228.641312 357.011536,229.779388 355.971619,230.917450 
M360.066315,205.684937 
	C368.382141,191.647461 368.972107,177.029831 363.314026,161.248123 
	C362.554138,160.154861 361.794250,159.061584 360.995575,157.225388 
	C353.322021,136.075165 324.494263,124.323883 308.111206,130.804810 
	C308.111206,131.641495 307.895477,132.539841 308.143127,133.283997 
	C312.871613,147.491959 317.767395,161.645874 322.309540,175.912537 
	C323.023041,178.153580 323.098633,181.642334 321.819427,183.195114 
	C320.386841,184.934113 316.793488,186.227448 314.665894,185.678345 
	C312.602692,185.145874 310.446289,182.296799 309.640381,180.004684 
	C304.378357,165.038651 299.472412,149.947418 294.414886,134.791809 
	C293.345062,135.067734 292.624390,135.083786 292.109253,135.417328 
	C290.349030,136.557037 288.676880,137.831528 286.943085,139.013443 
	C273.091888,148.455612 266.733093,162.152863 266.180817,178.321213 
	C265.780884,190.028534 269.679047,200.691666 276.708069,210.492691 
	C288.680237,227.186249 310.846558,233.422287 329.806274,228.170349 
	C340.504517,225.206879 349.215668,219.775528 356.880310,211.041580 
	C357.760376,209.369720 358.640442,207.697861 360.066315,205.684937 
M102.500977,186.000793 
	C98.004555,186.000793 93.507080,185.941116 89.012039,186.019806 
	C85.465691,186.081909 82.595169,185.926010 80.787964,181.744568 
	C78.995018,177.596100 81.711113,175.390854 83.485939,173.185211 
	C90.863365,164.017059 98.690727,155.212479 106.252953,146.190628 
	C108.776093,143.180481 111.000389,139.919846 113.381210,136.747177 
	C93.988152,123.946114 70.402458,127.640778 53.722256,141.941391 
	C33.377953,159.383362 31.788628,186.233749 44.286022,206.209808 
	C56.977913,226.496765 80.597435,235.618134 104.836342,226.909958 
	C122.961594,220.398209 136.872742,200.926010 136.422028,186.000793 
	C125.453964,186.000793 114.477280,186.000793 102.500977,186.000793 
M257.532990,108.976082 
	C261.535919,104.479485 265.538849,99.982887 269.775848,95.223343 
	C237.059311,95.223343 204.670044,95.223343 171.738983,95.223343 
	C175.166977,115.922401 178.544662,136.317780 181.937531,156.804779 
	C183.124084,156.346436 183.984451,156.192886 184.631897,155.736969 
	C193.207809,149.698090 202.481339,148.110809 212.231750,152.100388 
	C215.588196,153.473740 217.306778,152.399872 219.363983,150.163773 
	C231.875259,136.564499 244.457062,123.030106 257.532990,108.976082 
M158.579193,172.999237 
	C162.666763,172.999237 166.754349,172.999237 170.827164,172.999237 
	C166.997589,150.014023 163.260208,127.582283 159.303055,103.831436 
	C150.190277,114.635384 141.737335,124.657036 133.250320,134.719086 
	C143.590866,145.325851 148.872711,158.463547 151.162323,172.999237 
	C153.641098,172.999237 155.627625,172.999237 158.579193,172.999237 
M199.352142,195.056458 
	C200.260986,195.368927 201.242645,196.083115 202.067764,195.933609 
	C214.417374,193.695740 222.488663,182.430725 214.884018,170.696182 
	C211.224350,165.049072 203.023849,162.194901 196.586121,164.155258 
	C191.292633,165.767166 185.473267,174.458466 186.049271,180.412903 
	C186.645401,186.575165 190.727203,193.784164 199.352142,195.056458 
M102.703529,172.921616 
	C114.093674,172.921616 125.483818,172.921616 137.095123,172.921616 
	C135.524887,162.328964 131.362045,153.635513 124.332481,145.818970 
	C116.780403,154.896454 109.578835,163.552628 102.703529,172.921616 
z"/>
<path fill="#3B4140" opacity="1.000000" stroke="none" 
	d="
M1018.991211,292.959290 
	C989.787964,294.311951 962.481934,288.429810 936.328796,276.852081 
	C935.084229,276.301117 933.460693,273.673035 933.838562,272.833649 
	C938.928528,261.525574 944.342712,250.363480 949.877136,238.744095 
	C980.224854,253.580872 1011.815308,255.940445 1044.209351,250.888611 
	C1044.317871,250.221680 1044.426270,249.554749 1044.534790,248.887817 
	C1042.100220,248.269745 1039.697021,247.333755 1037.225586,247.091187 
	C1028.664673,246.250870 1020.065369,245.797729 1011.507629,244.931107 
	C992.392639,242.995300 973.244202,241.102707 955.828064,231.887161 
	C944.965759,226.139481 939.580933,217.357956 938.885010,204.831223 
	C937.827942,185.803421 946.877747,173.905746 963.176270,165.883087 
	C973.743225,160.681686 984.858643,158.303650 996.435669,156.923218 
	C1016.077759,154.581116 1035.501953,156.234940 1054.651978,160.241165 
	C1064.585205,162.319199 1074.073730,166.523376 1084.462524,170.001221 
	C1080.943604,178.166351 1077.775024,185.556259 1074.572998,192.931656 
	C1073.119995,196.278275 1071.266235,199.494034 1070.209473,202.956863 
	C1069.228271,206.172241 1067.530396,206.059357 1064.922852,205.423279 
	C1052.107666,202.297028 1039.397217,198.102493 1026.383789,196.617828 
	C1014.826721,195.299301 1002.915771,196.939270 991.173828,197.528015 
	C989.249573,197.624496 987.391296,199.035828 985.631104,201.030075 
	C988.753662,201.680893 991.848877,202.658203 995.003845,202.922180 
	C1005.059875,203.763611 1015.179138,203.974304 1025.198853,205.098099 
	C1043.453857,207.145538 1061.810425,209.230927 1077.651245,219.857758 
	C1095.422119,231.779404 1095.713745,255.317719 1085.259033,269.103363 
	C1074.817505,282.871674 1059.607910,288.405548 1043.188232,290.880463 
	C1035.362061,292.060120 1027.393433,292.295990 1018.991211,292.959290 
M1035.052734,288.825470 
	C1037.026611,288.519989 1039.006836,288.250092 1040.973511,287.903198 
	C1053.379028,285.714905 1065.199341,282.155823 1075.379395,274.240326 
	C1091.910767,261.386444 1095.218872,231.733841 1069.967041,219.806213 
	C1065.034912,217.476501 1059.883789,214.975067 1054.587402,214.166443 
	C1036.370117,211.385071 1018.041138,209.338165 999.760254,206.968552 
	C994.824158,206.328705 989.844299,205.804214 985.019470,204.658630 
	C983.500366,204.297913 981.480835,202.136414 981.402222,200.705063 
	C981.321838,199.243088 983.035950,197.148422 984.520508,196.263321 
	C986.595886,195.025955 989.140686,194.409714 991.564758,193.950943 
	C1004.625183,191.479187 1017.815857,191.589096 1030.848755,193.561157 
	C1042.771240,195.365189 1054.520752,198.311188 1066.938477,200.876205 
	C1070.761597,191.978790 1074.918091,182.305664 1079.119995,172.527069 
	C1077.623047,171.852463 1076.738159,171.395111 1075.812622,171.045135 
	C1046.820312,160.082260 1016.973267,157.199432 986.472412,162.320343 
	C973.908569,164.429733 961.874329,168.442230 952.389954,177.666824 
	C935.576416,194.019913 939.433838,219.906067 960.375122,230.183136 
	C965.406189,232.652191 970.815918,234.984497 976.287659,235.805023 
	C994.685120,238.563843 1013.191772,240.591064 1031.650391,242.948029 
	C1035.929443,243.494431 1040.280518,243.891998 1044.404907,245.048248 
	C1046.266846,245.570236 1047.654663,247.783783 1049.257568,249.229858 
	C1047.759766,250.824768 1046.518311,252.880798 1044.696777,253.893738 
	C1042.586914,255.067017 1040.004517,255.580902 1037.562622,255.936401 
	C1019.932678,258.502930 1002.296387,258.120544 984.940491,254.293015 
	C973.660583,251.805435 962.671204,247.999939 951.137939,244.665283 
	C946.826477,253.807388 942.258179,263.494049 937.520691,273.539459 
	C943.262512,275.842621 948.270691,278.077850 953.429443,279.882782 
	C979.635315,289.051392 1006.606201,291.578400 1035.052734,288.825470 
z"/>
<path fill="#3C4241" opacity="1.000000" stroke="none" 
	d="
M916.890137,249.156769 
	C917.577942,250.673706 918.835510,252.180923 918.861633,253.709183 
	C919.037964,264.023193 918.858948,274.343018 919.009521,284.657837 
	C919.056213,287.859070 918.068542,289.014282 914.757812,289.007874 
	C870.993835,288.923157 827.229614,288.916229 783.465698,289.017792 
	C779.888733,289.026093 778.982788,287.756531 778.990417,284.379059 
	C779.080444,244.608795 779.021484,204.838196 779.143127,165.068100 
	C779.148132,163.438431 780.547546,161.813019 782.026123,160.394623 
	C783.736694,160.734970 784.718323,160.980743 785.700012,160.981201 
	C827.998901,161.000946 870.297729,161.007019 912.596558,160.964844 
	C914.035645,160.963409 915.474182,160.450317 916.912964,160.175690 
	C917.591919,161.202637 918.847595,162.222076 918.861084,163.257706 
	C919.004089,174.250473 918.828064,185.247818 919.010010,196.239426 
	C919.082336,200.608597 916.278015,199.950867 913.669922,199.951553 
	C885.850159,199.958801 858.030334,199.925247 830.210999,200.032303 
	C828.498291,200.038895 825.900024,200.642975 825.251587,201.817810 
	C823.528503,204.939835 825.432739,207.024750 829.644653,207.029984 
	C850.967590,207.056503 872.292236,207.188675 893.612061,206.933304 
	C898.510193,206.874634 900.389648,207.925262 900.084045,213.210922 
	C899.604004,221.512436 899.790588,229.866852 900.030884,238.189163 
	C900.138367,241.910629 898.961304,243.055878 895.216858,243.029083 
	C873.561890,242.874191 851.905151,242.930557 830.249207,242.972137 
	C824.850342,242.982513 823.927734,244.501617 827.067993,249.288177 
	C828.596558,249.740860 829.412354,249.972443 830.228210,249.973022 
	C857.847534,249.992722 885.466919,250.001526 913.086182,249.955994 
	C914.354614,249.953903 915.622192,249.434967 916.890137,249.156769 
M782.420532,266.499268 
	C782.420532,272.790955 782.420532,279.082672 782.420532,285.598663 
	C827.039246,285.598663 871.085938,285.598663 915.053589,285.598663 
	C915.053589,274.851349 915.053589,264.425690 915.053589,253.642288 
	C897.964172,253.642288 881.164368,253.642349 864.364502,253.642288 
	C851.699158,253.642242 839.029907,253.464828 826.370544,253.740158 
	C822.068970,253.833740 820.747253,252.363754 821.172180,248.314331 
	C821.444336,245.720612 821.223145,243.075119 821.223145,239.973633 
	C846.480896,239.973633 871.227417,239.973633 896.193604,239.973633 
	C896.193604,230.091629 896.193604,220.696930 896.193604,210.755371 
	C871.253845,210.755371 846.518005,210.755371 821.222839,210.755371 
	C821.222839,207.259735 821.466309,204.277512 821.164612,201.351471 
	C820.733887,197.173691 822.305664,195.996216 826.464294,196.021820 
	C854.293762,196.193192 882.124695,196.110809 909.955200,196.110748 
	C911.744080,196.110748 913.532898,196.110733 915.312134,196.110733 
	C915.312134,185.140259 915.312134,174.725571 915.312134,164.264465 
	C870.968933,164.264465 826.878052,164.264465 782.420410,164.264465 
	C782.420410,198.210388 782.420410,231.854919 782.420532,266.499268 
z"/>
<path fill="#3A403F" opacity="1.000000" stroke="none" 
	d="
M734.362671,241.679382 
	C741.821289,246.930161 748.923096,252.062210 756.150452,257.010986 
	C759.751099,259.476501 760.481750,261.577667 757.334839,265.330902 
	C750.229309,273.805267 743.520203,282.621155 736.872559,291.465454 
	C734.419006,294.729767 732.334351,293.764099 729.808838,291.892670 
	C715.319092,281.155365 700.804565,270.451447 686.299988,259.734100 
	C681.112976,255.901459 676.039795,251.896805 670.663086,248.352234 
	C669.425415,247.536270 666.802490,247.659622 665.417603,248.430130 
	C659.483154,251.731781 653.636108,255.240280 648.068604,259.120117 
	C646.493347,260.217896 645.215576,262.788574 645.107727,264.755371 
	C644.743408,271.398041 644.830750,278.076782 645.021667,284.733795 
	C645.116028,288.025787 643.916565,289.055359 640.685791,289.019226 
	C628.195007,288.879578 615.700745,288.871429 603.210266,289.022766 
	C599.857788,289.063385 598.978455,287.791840 598.984619,284.628754 
	C599.061890,244.820129 599.065918,205.011261 598.984436,165.202667 
	C598.976807,161.462433 599.965881,159.826340 604.082764,159.907654 
	C616.070740,160.144409 628.069641,160.152664 640.057068,159.901794 
	C644.172363,159.815659 645.091431,161.352814 645.037720,165.128082 
	C644.853027,178.117432 644.967102,191.111038 644.967285,204.103012 
	C644.967285,205.881607 644.967224,207.660202 644.967224,211.045212 
	C660.890991,201.151321 675.668152,192.020447 690.393311,182.806396 
	C705.084900,173.613388 719.724365,164.337036 734.755432,154.864853 
	C738.833252,160.864166 742.724182,166.598419 746.625854,172.325287 
	C749.609863,176.705124 752.427307,181.214264 755.653259,185.408615 
	C758.488708,189.095108 758.396484,191.509903 754.115051,194.048279 
	C740.607422,202.056580 727.265686,210.344849 713.865845,218.534744 
	C712.047852,219.645920 710.264648,220.814087 707.977356,222.265503 
	C716.944275,228.873505 725.500977,235.179245 734.362671,241.679382 
M751.799072,266.249542 
	C752.989502,264.696381 754.179993,263.143250 755.601379,261.288788 
	C737.436523,248.231705 719.564819,235.385361 701.141785,222.142731 
	C719.168945,211.078094 736.421387,200.488937 753.897766,189.762344 
	C747.069092,179.600449 740.514832,169.846939 733.856018,159.937820 
	C703.093201,179.266647 672.878967,198.250778 641.863647,217.738266 
	C641.863647,199.233292 641.863647,181.826431 641.863647,164.285431 
	C628.716675,164.285431 616.001526,164.285431 603.341614,164.285431 
	C603.341614,204.976547 603.341614,245.337128 603.341614,285.636047 
	C616.363098,285.636047 628.949158,285.636047 641.848633,285.636047 
	C641.848633,277.551910 641.679382,269.744263 641.978821,261.954620 
	C642.045776,260.214020 643.335876,257.905182 644.784058,256.938721 
	C651.284668,252.600418 658.152832,248.813782 664.663452,244.489380 
	C667.574585,242.555771 669.523132,242.980179 672.144958,244.969986 
	C681.696167,252.218719 691.431335,259.225159 701.100403,266.318451 
	C711.678650,274.078766 722.260498,281.834045 733.180298,289.840454 
	C739.426697,281.919098 745.383911,274.364471 751.799072,266.249542 
z"/>
<path fill="#3A403F" opacity="1.000000" stroke="none" 
	d="
M377.834198,161.185959 
	C377.490967,160.074860 377.147736,158.963760 376.820251,157.489288 
	C394.945435,156.750351 413.070007,155.742508 431.160156,156.175079 
	C449.654114,156.617279 468.194183,158.317734 485.353210,166.211075 
	C494.617523,170.472778 502.904327,176.728134 505.348694,187.040436 
	C508.244751,199.258408 507.390808,212.749878 493.527344,222.028946 
	C493.137512,222.289871 492.909271,222.792130 492.524261,223.286301 
	C496.269226,226.693604 500.601440,229.605209 503.592468,233.537079 
	C515.694763,249.446411 510.445251,270.382111 492.283478,280.308929 
	C481.198181,286.367920 469.236023,289.225281 456.816956,291.068695 
	C432.452820,294.685150 407.980743,292.349792 383.568665,292.904877 
	C374.580780,293.109253 365.555176,291.654205 356.012787,290.914703 
	C356.012787,270.772461 356.012787,251.318146 355.992188,231.390656 
	C357.011536,229.779388 358.051453,228.641312 359.307800,227.771423 
	C359.524200,247.817596 359.524200,267.595581 359.524200,287.564789 
	C361.153259,287.740082 362.273010,287.920441 363.398682,287.972443 
	C375.372620,288.526062 387.344147,289.154205 399.322845,289.577515 
	C421.645416,290.366455 443.938721,290.296021 465.975769,285.928650 
	C476.315033,283.879608 486.335602,280.869934 494.852509,274.303497 
	C511.331482,261.598541 509.625519,238.283600 491.483093,228.187820 
	C488.805908,226.698013 485.923462,225.577042 482.554199,224.015823 
	C485.087860,222.658249 487.126221,221.656937 489.075897,220.505463 
	C497.037445,215.803375 501.818939,209.051193 502.675873,199.652298 
	C503.869110,186.565002 497.680847,176.365417 484.346039,169.994461 
	C472.296539,164.237579 459.315247,161.554321 446.202301,161.189865 
	C423.430481,160.556946 400.625366,161.122787 377.834198,161.185959 
z"/>
<path fill="#3B4140" opacity="1.000000" stroke="none" 
	d="
M359.749268,131.323410 
	C358.539642,130.461029 357.330017,129.598633 356.046875,128.411621 
	C355.995483,107.263969 355.960327,86.440460 356.141022,65.618813 
	C356.156616,63.822769 357.178253,61.060719 358.487091,60.495914 
	C360.145172,59.780369 363.016693,60.198742 364.603638,61.263134 
	C376.682526,69.364746 388.682800,77.595207 400.466370,86.118950 
	C404.413696,88.974281 407.308594,89.248428 411.409424,86.252953 
	C423.151978,77.675507 435.169678,69.466156 447.263428,61.387913 
	C448.938232,60.269203 451.931091,59.977871 453.787750,60.684895 
	C455.002167,61.147339 455.856506,64.097115 455.868652,65.939415 
	C456.009247,87.261665 455.875061,108.585808 456.034271,129.907806 
	C456.063110,133.769577 455.041840,135.241653 450.998688,135.041153 
	C444.683838,134.728012 438.338989,134.838547 432.013153,135.006409 
	C428.938446,135.088013 427.936859,133.924911 427.993958,130.926010 
	C428.139160,123.302147 428.042206,115.673676 428.042206,106.884552 
	C420.213806,112.545204 413.196198,117.619568 406.035278,122.797577 
	C399.094452,117.790253 392.024323,112.689629 383.961304,106.872696 
	C383.961304,114.800842 383.965607,121.679962 383.960022,128.559082 
	C383.954834,134.951126 383.950195,134.950378 377.358429,134.959366 
	C373.193787,134.965057 369.029114,134.973419 364.391602,135.003677 
	C362.622559,134.155106 361.326355,133.283447 360.402283,132.191971 
	C367.348419,131.972168 373.922455,131.972168 380.931000,131.972168 
	C380.931000,121.157974 380.931000,111.111122 380.931000,100.111504 
	C388.737976,105.845512 395.880768,110.905762 402.790222,116.266769 
	C405.227600,118.157875 406.839691,118.086548 409.237305,116.234642 
	C416.154083,110.892136 423.286346,105.828560 431.256531,99.978241 
	C431.256531,111.263596 431.256531,121.453598 431.256531,131.703094 
	C438.621460,131.703094 445.373260,131.703094 452.112305,131.703094 
	C452.112305,108.697380 452.112305,85.974709 452.112305,62.604046 
	C450.264679,63.755791 448.881317,64.549492 447.568848,65.446915 
	C434.932404,74.087311 422.245026,82.655937 409.729492,91.468422 
	C407.010895,93.382660 405.228943,93.585098 402.387329,91.577606 
	C389.478546,82.458183 376.367584,73.624748 363.314514,64.710136 
	C362.322327,64.032516 361.214478,63.524250 359.749268,62.708328 
	C359.749268,86.046455 359.749268,108.684929 359.749268,131.323410 
z"/>
<path fill="#3C4241" opacity="1.000000" stroke="none" 
	d="
M612.204346,82.763039 
	C617.249207,85.942200 622.023010,88.876015 628.044189,92.576431 
	C628.044189,88.639435 628.043823,85.628708 628.044312,82.617981 
	C628.045105,77.455917 628.159058,72.290459 628.003723,67.133110 
	C627.915344,64.199806 628.821777,62.916370 631.959656,62.995552 
	C638.782532,63.167725 645.613647,63.114140 652.439575,63.021225 
	C654.993591,62.986454 655.983704,63.950428 655.977539,66.532249 
	C655.923462,89.012062 655.985352,111.492172 655.913391,133.971878 
	C655.901428,137.722397 652.087341,139.730484 648.465942,137.659927 
	C642.014282,133.971161 635.789795,129.884354 629.478394,125.951157 
	C619.386719,119.662132 609.306641,113.354332 599.201965,107.086220 
	C598.537415,106.673988 597.705811,106.530991 595.956299,105.908508 
	C595.956299,113.498291 595.957275,120.549683 595.955994,127.601074 
	C595.954651,134.952271 595.953735,134.953857 588.815430,134.955307 
	C583.153809,134.956451 577.490112,134.861786 571.831482,134.990875 
	C569.077271,135.053726 567.990662,134.092377 568.000122,131.252991 
	C568.073303,109.272835 567.984253,87.292084 568.080200,65.312103 
	C568.104492,59.750843 572.168579,57.973103 577.359070,61.189064 
	C587.603760,67.536476 597.765869,74.017113 607.979980,80.414101 
	C609.241943,81.204437 610.612915,81.820747 612.204346,82.763039 
M652.284912,104.500122 
	C652.284912,91.759422 652.284912,79.018730 652.284912,66.412048 
	C644.860596,66.412048 638.143127,66.412048 630.956787,66.412048 
	C630.956787,77.163559 630.956787,87.527100 630.956787,98.618309 
	C611.028931,86.328308 591.783569,74.459198 572.153564,62.352856 
	C572.153564,86.083908 572.153564,108.841660 572.153564,131.693268 
	C579.141541,131.693268 585.869751,131.693268 592.984558,131.693268 
	C592.984558,121.004478 592.984558,110.598625 592.984558,99.249527 
	C612.939880,111.560829 632.195984,123.440750 652.284912,135.834488 
	C652.284912,125.033310 652.284912,115.266716 652.284912,104.500122 
z"/>
<path fill="#383D3C" opacity="1.000000" stroke="none" 
	d="
M573.979004,282.856201 
	C574.611816,287.522919 573.231445,289.215607 568.604675,289.088928 
	C556.625488,288.760864 544.631104,288.934662 532.643433,289.010437 
	C529.810974,289.028320 527.953674,288.765594 527.963013,285.086121 
	C528.066528,244.293518 528.036499,203.500580 528.056946,162.707733 
	C528.057251,162.063309 528.238220,161.418991 528.454468,159.977432 
	C532.021484,159.977432 535.609924,159.977417 539.198303,159.977432 
	C548.688904,159.977493 558.190674,160.251968 567.665771,159.868896 
	C572.880066,159.658066 574.095581,161.588837 574.073914,166.492126 
	C573.903198,205.119812 573.979126,243.748581 573.979004,282.856201 
M570.082886,195.500015 
	C570.082886,185.083755 570.082886,174.667480 570.082886,164.376480 
	C556.778931,164.376480 544.088318,164.376480 531.473938,164.376480 
	C531.473938,205.017487 531.473938,245.229507 531.473938,285.630951 
	C544.463318,285.630951 557.162903,285.630951 570.082886,285.630951 
	C570.082886,255.720428 570.082886,226.110229 570.082886,195.500015 
z"/>
<path fill="#3E4443" opacity="1.000000" stroke="none" 
	d="
M986.021606,121.983070 
	C979.055908,131.729889 968.804016,135.260635 957.609070,135.817673 
	C941.191101,136.634583 924.732483,136.712524 908.288818,136.897354 
	C901.666199,136.971817 901.057312,136.095718 901.056396,129.409348 
	C901.053650,109.095230 901.055420,88.781113 901.055420,68.466995 
	C901.055420,66.653015 901.055420,64.839043 901.055420,62.588814 
	C905.223572,62.053101 909.089966,61.185955 912.968689,61.126335 
	C925.120972,60.939537 937.333801,60.348305 949.414062,61.299511 
	C957.836426,61.962692 966.502991,63.866417 974.307556,67.057426 
	C987.338379,72.385307 989.700684,86.701485 980.223450,97.245232 
	C979.898987,97.606163 979.695740,98.075996 979.204224,98.869087 
	C987.452942,104.419571 989.260986,112.099739 986.027954,121.623840 
	C986.014160,122.014755 986.021606,121.983070 986.021606,121.983070 
M911.507202,133.169571 
	C925.961609,133.117279 940.475891,133.829895 954.846130,132.703598 
	C962.515991,132.102478 970.638733,129.542892 977.306519,125.698334 
	C987.389404,119.884590 986.315491,107.055351 976.208130,101.418312 
	C974.842529,100.656647 973.402405,100.028412 971.470642,99.080086 
	C972.750061,98.338013 973.424988,97.942520 974.103699,97.553566 
	C985.120483,91.239754 985.404846,77.392395 974.491333,70.853577 
	C971.552063,69.092529 968.195618,67.813820 964.865234,66.956467 
	C950.001770,63.130219 934.848267,63.813210 919.717529,64.497444 
	C914.793335,64.720131 909.875916,65.092644 904.894653,65.400383 
	C904.894653,88.148003 904.894653,110.364693 904.894653,132.829605 
	C906.936768,132.939102 908.735352,133.035553 911.507202,133.169571 
z"/>
<path fill="#383F3E" opacity="1.000000" stroke="none" 
	d="
M985.998352,122.018936 
	C989.263062,118.489311 992.811646,115.165916 995.778625,111.386002 
	C1010.150757,93.075783 1024.366821,74.642998 1039.291626,55.411591 
	C1057.239380,78.523148 1074.908203,101.275673 1093.119507,124.726791 
	C1088.054565,128.526550 1083.248657,132.138382 1078.432983,135.737366 
	C1077.771729,136.231522 1076.936035,136.546585 1076.396729,137.140457 
	C1073.496948,140.334106 1070.953003,140.650894 1068.873535,136.359360 
	C1064.421631,127.171921 1057.022217,124.739174 1047.254883,125.811073 
	C1039.854248,126.623245 1032.262939,126.384499 1024.813110,125.839188 
	C1019.039978,125.416595 1015.583923,127.760887 1012.729370,132.342682 
	C1011.010803,135.101089 1008.663025,137.467468 1006.335815,140.332840 
	C1000.045471,135.620163 994.071777,131.268509 988.275696,126.691978 
	C987.190857,125.835480 986.816895,124.078728 986.068237,122.360260 
	C986.021606,121.983070 986.014160,122.014755 985.998352,122.018936 
M1007.279114,133.880661 
	C1008.986328,131.627060 1010.925903,129.509613 1012.344788,127.087135 
	C1014.336548,123.686623 1016.965210,122.585869 1020.900818,122.711830 
	C1030.212036,123.009842 1039.619263,123.570755 1048.838501,122.603462 
	C1059.060913,121.530907 1066.517212,124.207024 1071.130249,133.624176 
	C1071.408325,134.191986 1071.998901,134.606720 1072.744873,135.421066 
	C1077.900146,131.619507 1083.007690,127.853119 1088.193481,124.029060 
	C1071.710815,102.867744 1055.679810,82.286293 1039.291626,61.246391 
	C1022.843201,82.378174 1006.679871,103.143639 990.418701,124.034836 
	C995.157715,127.542320 999.251709,130.669876 1003.471558,133.617294 
	C1004.363831,134.240524 1005.716370,134.204651 1007.279114,133.880661 
z"/>
<path fill="#383F3E" opacity="1.000000" stroke="none" 
	d="
M542.974915,95.010498 
	C550.668518,104.951225 558.213867,114.567474 566.198669,124.743790 
	C559.517273,129.703796 553.249329,134.470505 546.802612,138.981674 
	C546.091736,139.479126 544.355225,138.522736 543.101990,138.210297 
	C543.004639,138.186050 542.973877,137.917770 542.901001,137.768356 
	C537.867310,127.448944 529.567139,124.427406 518.505676,125.812004 
	C511.622223,126.673615 504.507721,126.404312 497.562866,125.836319 
	C491.928070,125.375488 488.691223,127.860260 485.855560,132.131027 
	C483.975311,134.962891 481.604309,137.468903 479.283997,140.329086 
	C472.863770,135.497894 467.013031,130.950790 460.993134,126.639847 
	C458.736420,125.023788 458.925903,123.967049 460.525421,121.921272 
	C475.178009,103.180504 489.698212,84.336266 504.284729,65.543732 
	C506.708649,62.420898 509.266510,59.402042 512.391296,55.562485 
	C522.649048,68.748474 532.737854,81.717255 542.974915,95.010498 
M506.501099,122.807556 
	C511.998199,122.807556 517.572937,123.393684 522.975281,122.677971 
	C532.418945,121.426872 539.386292,124.159325 543.635132,132.943512 
	C544.045227,133.791443 544.879700,134.434097 545.731934,135.420609 
	C550.897339,131.604782 555.927063,127.889206 561.177246,124.010727 
	C544.795532,102.980751 528.697510,82.314949 512.287415,61.248466 
	C495.780396,82.454666 479.679596,103.138985 463.411652,124.038063 
	C466.417511,126.258240 468.943481,128.127792 471.473663,129.991653 
	C473.955688,131.820007 476.442047,133.642502 478.698883,135.300354 
	C482.618469,130.799072 485.361145,125.270981 489.709656,123.317345 
	C494.153259,121.320984 500.172546,122.831963 506.501099,122.807556 
z"/>
<path fill="#363C3B" opacity="1.000000" stroke="none" 
	d="
M791.923218,65.376282 
	C791.970703,71.332138 791.766235,76.838852 792.059143,82.318970 
	C792.265381,86.177406 790.754150,87.179222 787.135376,87.057579 
	C780.149170,86.822754 773.138184,87.228294 766.159302,86.902252 
	C761.858887,86.701332 760.833801,88.328590 760.906677,92.353348 
	C761.130005,104.672356 760.763550,117.004128 761.100342,129.317978 
	C761.230835,134.091492 759.580688,135.319061 755.127686,135.068634 
	C749.151611,134.732544 743.127869,134.730255 737.152283,135.070541 
	C732.843689,135.315918 731.837280,133.650970 731.909424,129.628326 
	C732.133423,117.142761 731.821289,104.647049 732.083801,92.162987 
	C732.173828,87.881798 730.682739,86.737732 726.638489,86.912155 
	C719.989746,87.198929 713.315979,86.858063 706.660034,87.043770 
	C703.340576,87.136391 701.766235,86.277901 701.951233,82.607376 
	C702.210815,77.458076 702.125427,72.282829 701.976013,67.124809 
	C701.891479,64.205223 702.792786,62.959198 705.929626,62.969067 
	C733.239868,63.054989 760.550720,62.991222 787.860840,63.098408 
	C789.204163,63.103680 790.542908,64.283104 791.923218,65.376282 
M746.500000,65.999168 
	C732.771484,65.999168 719.042969,65.999168 705.351196,65.999168 
	C705.351196,72.206230 705.351196,77.645401 705.351196,83.770859 
	C715.578125,83.770859 725.601257,83.770859 736.012573,83.770859 
	C736.012573,100.185814 736.012573,115.915085 736.012573,131.605240 
	C743.461243,131.605240 750.488037,131.605240 757.740112,131.605240 
	C757.740112,123.404503 757.740112,115.597824 757.740112,107.791153 
	C757.740112,99.865196 757.740112,91.939240 757.740112,83.611595 
	C768.130249,83.611595 777.885864,83.611595 787.905762,83.611595 
	C787.905762,77.631981 787.905762,72.065987 787.905762,65.999168 
	C774.366272,65.999168 760.933105,65.999168 746.500000,65.999168 
z"/>
<path fill="#3A403E" opacity="1.000000" stroke="none" 
	d="
M877.724976,127.766083 
	C857.270508,140.347076 835.927429,140.022186 814.986572,131.600815 
	C801.327576,126.107857 792.539368,114.786690 792.258911,99.314857 
	C792.065735,88.655014 796.683105,79.460564 805.167786,72.500977 
	C824.126709,56.949959 860.769470,57.593586 879.060303,70.891266 
	C899.004211,85.390862 898.729614,114.183846 877.724976,127.766083 
M857.736938,132.487137 
	C864.093262,129.744995 871.112061,127.956604 876.684265,124.085686 
	C894.959839,111.389824 894.798157,87.015320 876.890381,73.814270 
	C859.037720,60.653847 826.860657,60.691444 809.128723,73.968704 
	C801.118469,79.966606 796.287354,87.830055 796.011597,98.033356 
	C795.625244,112.329140 804.584045,124.207085 820.066345,129.993622 
	C832.068970,134.479599 844.404236,134.930206 857.736938,132.487137 
z"/>
<path fill="#363C3B" opacity="1.000000" stroke="none" 
	d="
M690.812988,63.015465 
	C695.090393,62.447403 696.080627,64.196953 696.055176,67.840065 
	C695.909973,88.652229 695.900879,109.466553 696.060974,130.278488 
	C696.090088,134.070862 694.835083,135.199112 691.167847,135.053467 
	C684.850586,134.802582 678.514465,134.894745 672.189819,135.021667 
	C669.343506,135.078781 667.954041,134.339859 667.968750,131.136108 
	C668.067444,109.657372 668.053711,88.177864 667.982422,66.698921 
	C667.972900,63.834015 669.135681,62.931206 671.855103,62.982574 
	C678.013611,63.098885 684.175842,63.016605 690.812988,63.015465 
M691.261047,66.097176 
	C684.654175,66.097176 678.047302,66.097176 671.265381,66.097176 
	C671.265381,88.174797 671.265381,109.876335 671.265381,131.754242 
	C678.227417,131.754242 684.955078,131.754242 691.966492,131.754242 
	C691.966492,109.929939 691.966492,88.342812 691.261047,66.097176 
z"/>
<path fill="#404040" opacity="1.000000" stroke="none" 
	d="
M916.455811,160.116028 
	C915.474182,160.450317 914.035645,160.963409 912.596558,160.964844 
	C870.297729,161.007019 827.998901,161.000946 785.700012,160.981201 
	C784.718323,160.980743 783.736694,160.734970 782.421387,160.381165 
	C816.231323,160.105789 850.375000,160.044815 884.518616,160.004822 
	C895.011902,159.992538 905.505249,160.037582 916.455811,160.116028 
z"/>
<path fill="#474747" opacity="1.000000" stroke="none" 
	d="
M916.434326,249.102631 
	C915.622192,249.434967 914.354614,249.953903 913.086182,249.955994 
	C885.466919,250.001526 857.847534,249.992722 830.228210,249.973022 
	C829.412354,249.972443 828.596558,249.740860 827.447510,249.397934 
	C856.735718,249.135437 886.357178,249.091980 916.434326,249.102631 
z"/>
<path fill="#F9F9FA" opacity="1.000000" stroke="none" 
	d="
M377.874084,161.601273 
	C400.625366,161.122787 423.430481,160.556946 446.202301,161.189865 
	C459.315247,161.554321 472.296539,164.237579 484.346039,169.994461 
	C497.680847,176.365417 503.869110,186.565002 502.675873,199.652298 
	C501.818939,209.051193 497.037445,215.803375 489.075897,220.505463 
	C487.126221,221.656937 485.087860,222.658249 482.554199,224.015823 
	C485.923462,225.577042 488.805908,226.698013 491.483093,228.187820 
	C509.625519,238.283600 511.331482,261.598541 494.852509,274.303497 
	C486.335602,280.869934 476.315033,283.879608 465.975769,285.928650 
	C443.938721,290.296021 421.645416,290.366455 399.322845,289.577515 
	C387.344147,289.154205 375.372620,288.526062 363.398682,287.972443 
	C362.273010,287.920441 361.153259,287.740082 359.524200,287.564789 
	C359.524200,267.595581 359.524200,247.817596 359.534027,227.571014 
	C373.429230,213.411758 380.294403,196.792542 379.847656,177.322144 
	C379.730316,172.208191 378.586456,167.117798 377.874084,161.601273 
M463.077118,242.275665 
	C459.693878,241.476028 456.333679,240.112289 452.923431,239.972855 
	C436.802551,239.313614 420.668304,238.974777 404.537750,238.564072 
	C402.592255,238.514542 400.640198,238.721710 398.294403,238.827850 
	C398.294403,243.763199 398.521484,248.247864 398.225891,252.697784 
	C397.967590,256.586792 399.278046,258.031403 403.252716,257.977783 
	C415.905518,257.807007 428.586395,258.391144 441.207855,257.740631 
	C448.406311,257.369598 455.729401,255.831467 462.590027,253.580414 
	C468.502625,251.640411 468.656860,246.703156 463.077118,242.275665 
M445.603455,210.040405 
	C448.072571,209.725250 450.557739,209.502838 453.007782,209.077789 
	C460.772797,207.730591 464.367401,205.454453 463.899231,201.678741 
	C463.168610,195.786224 457.994934,194.351913 453.565247,194.089508 
	C436.008911,193.049500 418.415100,192.629272 400.831299,192.109497 
	C400.037018,192.086014 398.522247,193.306061 398.498779,193.986786 
	C398.307220,199.540298 398.390961,205.103317 398.390961,210.085678 
	C414.447784,210.085678 429.570221,210.085678 445.603455,210.040405 
z"/>
<path fill="#000000" opacity="1.000000" stroke="none" 
	d="
M356.249359,211.371658 
	C349.215668,219.775528 340.504517,225.206879 329.806274,228.170349 
	C310.846558,233.422287 288.680237,227.186249 276.708069,210.492691 
	C269.679047,200.691666 265.780884,190.028534 266.180817,178.321213 
	C266.733093,162.152863 273.091888,148.455612 286.943085,139.013443 
	C288.676880,137.831528 290.349030,136.557037 292.109253,135.417328 
	C292.624390,135.083786 293.345062,135.067734 294.414886,134.791809 
	C299.472412,149.947418 304.378357,165.038651 309.640381,180.004684 
	C310.446289,182.296799 312.602692,185.145874 314.665894,185.678345 
	C316.793488,186.227448 320.386841,184.934113 321.819427,183.195114 
	C323.098633,181.642334 323.023041,178.153580 322.309540,175.912537 
	C317.767395,161.645874 312.871613,147.491959 308.143127,133.283997 
	C307.895477,132.539841 308.111206,131.641495 308.111206,130.804810 
	C324.494263,124.323883 353.322021,136.075165 360.624207,157.641342 
	C358.069946,158.777100 355.907562,159.151398 355.951385,162.448044 
	C356.168213,178.754349 356.171082,195.063507 356.249359,211.371658 
z"/>
<path fill="#000000" opacity="1.000000" stroke="none" 
	d="
M103.000786,186.000793 
	C114.477280,186.000793 125.453964,186.000793 136.422028,186.000793 
	C136.872742,200.926010 122.961594,220.398209 104.836342,226.909958 
	C80.597435,235.618134 56.977913,226.496765 44.286022,206.209808 
	C31.788628,186.233749 33.377953,159.383362 53.722256,141.941391 
	C70.402458,127.640778 93.988152,123.946114 113.381210,136.747177 
	C111.000389,139.919846 108.776093,143.180481 106.252953,146.190628 
	C98.690727,155.212479 90.863365,164.017059 83.485939,173.185211 
	C81.711113,175.390854 78.995018,177.596100 80.787964,181.744568 
	C82.595169,185.926010 85.465691,186.081909 89.012039,186.019806 
	C93.507080,185.941116 98.004555,186.000793 103.000786,186.000793 
z"/>
<path fill="#000000" opacity="1.000000" stroke="none" 
	d="
M257.274170,109.225067 
	C244.457062,123.030106 231.875259,136.564499 219.363983,150.163773 
	C217.306778,152.399872 215.588196,153.473740 212.231750,152.100388 
	C202.481339,148.110809 193.207809,149.698090 184.631897,155.736969 
	C183.984451,156.192886 183.124084,156.346436 181.937531,156.804779 
	C178.544662,136.317780 175.166977,115.922401 171.738983,95.223343 
	C204.670044,95.223343 237.059311,95.223343 269.775848,95.223343 
	C265.538849,99.982887 261.535919,104.479485 257.274170,109.225067 
z"/>
<path fill="#F8F8F9" opacity="1.000000" stroke="none" 
	d="
M359.812012,131.418365 
	C359.749268,108.684929 359.749268,86.046455 359.749268,62.708328 
	C361.214478,63.524250 362.322327,64.032516 363.314514,64.710136 
	C376.367584,73.624748 389.478546,82.458183 402.387329,91.577606 
	C405.228943,93.585098 407.010895,93.382660 409.729492,91.468422 
	C422.245026,82.655937 434.932404,74.087311 447.568848,65.446915 
	C448.881317,64.549492 450.264679,63.755791 452.112305,62.604046 
	C452.112305,85.974709 452.112305,108.697380 452.112305,131.703094 
	C445.373260,131.703094 438.621460,131.703094 431.256531,131.703094 
	C431.256531,121.453598 431.256531,111.263596 431.256531,99.978241 
	C423.286346,105.828560 416.154083,110.892136 409.237305,116.234642 
	C406.839691,118.086548 405.227600,118.157875 402.790222,116.266769 
	C395.880768,110.905762 388.737976,105.845512 380.931000,100.111504 
	C380.931000,111.111122 380.931000,121.157974 380.931000,131.972168 
	C373.922455,131.972168 367.348419,131.972168 360.297913,131.853409 
	C359.821411,131.734650 359.874786,131.513336 359.812012,131.418365 
z"/>
<path fill="#000000" opacity="1.000000" stroke="none" 
	d="
M158.096680,172.999237 
	C155.627625,172.999237 153.641098,172.999237 151.162323,172.999237 
	C148.872711,158.463547 143.590866,145.325851 133.250320,134.719086 
	C141.737335,124.657036 150.190277,114.635384 159.303055,103.831436 
	C163.260208,127.582283 166.997589,150.014023 170.827164,172.999237 
	C166.754349,172.999237 162.666763,172.999237 158.096680,172.999237 
z"/>
<path fill="#000000" opacity="1.000000" stroke="none" 
	d="
M198.945145,195.030548 
	C190.727203,193.784164 186.645401,186.575165 186.049271,180.412903 
	C185.473267,174.458466 191.292633,165.767166 196.586121,164.155258 
	C203.023849,162.194901 211.224350,165.049072 214.884018,170.696182 
	C222.488663,182.430725 214.417374,193.695740 202.067764,195.933609 
	C201.242645,196.083115 200.260986,195.368927 198.945145,195.030548 
z"/>
<path fill="#000000" opacity="1.000000" stroke="none" 
	d="
M102.540398,172.565216 
	C109.578835,163.552628 116.780403,154.896454 124.332481,145.818970 
	C131.362045,153.635513 135.524887,162.328964 137.095123,172.921616 
	C125.483818,172.921616 114.093674,172.921616 102.540398,172.565216 
z"/>
<path fill="#F9F9F7" opacity="1.000000" stroke="none" 
	d="
M363.350830,161.945786 
	C368.972107,177.029831 368.382141,191.647461 359.776398,205.385071 
	C359.485046,192.275208 359.535217,179.464844 359.442596,166.655502 
	C359.421844,163.785797 359.751526,161.618210 363.350830,161.945786 
z"/>
<path fill="#353C3A" opacity="1.000000" stroke="none" 
	d="
M363.332428,161.596954 
	C359.751526,161.618210 359.421844,163.785797 359.442596,166.655502 
	C359.535217,179.464844 359.485046,192.275208 359.503479,205.555603 
	C358.640442,207.697861 357.760376,209.369720 356.564819,211.206619 
	C356.171082,195.063507 356.168213,178.754349 355.951385,162.448044 
	C355.907562,159.151398 358.069946,158.777100 360.643585,158.012802 
	C361.794250,159.061584 362.554138,160.154861 363.332428,161.596954 
z"/>
<path fill="#F8F8F9" opacity="1.000000" stroke="none" 
	d="
M1034.600098,288.858734 
	C1006.606201,291.578400 979.635315,289.051392 953.429443,279.882782 
	C948.270691,278.077850 943.262512,275.842621 937.520691,273.539459 
	C942.258179,263.494049 946.826477,253.807388 951.137939,244.665283 
	C962.671204,247.999939 973.660583,251.805435 984.940491,254.293015 
	C1002.296387,258.120544 1019.932678,258.502930 1037.562622,255.936401 
	C1040.004517,255.580902 1042.586914,255.067017 1044.696777,253.893738 
	C1046.518311,252.880798 1047.759766,250.824768 1049.257568,249.229858 
	C1047.654663,247.783783 1046.266846,245.570236 1044.404907,245.048248 
	C1040.280518,243.891998 1035.929443,243.494431 1031.650391,242.948029 
	C1013.191772,240.591064 994.685120,238.563843 976.287659,235.805023 
	C970.815918,234.984497 965.406189,232.652191 960.375122,230.183136 
	C939.433838,219.906067 935.576416,194.019913 952.389954,177.666824 
	C961.874329,168.442230 973.908569,164.429733 986.472412,162.320343 
	C1016.973267,157.199432 1046.820312,160.082260 1075.812622,171.045135 
	C1076.738159,171.395111 1077.623047,171.852463 1079.119995,172.527069 
	C1074.918091,182.305664 1070.761597,191.978790 1066.938477,200.876205 
	C1054.520752,198.311188 1042.771240,195.365189 1030.848755,193.561157 
	C1017.815857,191.589096 1004.625183,191.479187 991.564758,193.950943 
	C989.140686,194.409714 986.595886,195.025955 984.520508,196.263321 
	C983.035950,197.148422 981.321838,199.243088 981.402222,200.705063 
	C981.480835,202.136414 983.500366,204.297913 985.019470,204.658630 
	C989.844299,205.804214 994.824158,206.328705 999.760254,206.968552 
	C1018.041138,209.338165 1036.370117,211.385071 1054.587402,214.166443 
	C1059.883789,214.975067 1065.034912,217.476501 1069.967041,219.806213 
	C1095.218872,231.733841 1091.910767,261.386444 1075.379395,274.240326 
	C1065.199341,282.155823 1053.379028,285.714905 1040.973511,287.903198 
	C1039.006836,288.250092 1037.026611,288.519989 1034.600098,288.858734 
z"/>
<path fill="#F9F9FA" opacity="1.000000" stroke="none" 
	d="
M782.420471,265.999359 
	C782.420410,231.854919 782.420410,198.210388 782.420410,164.264465 
	C826.878052,164.264465 870.968933,164.264465 915.312134,164.264465 
	C915.312134,174.725571 915.312134,185.140259 915.312134,196.110733 
	C913.532898,196.110733 911.744080,196.110748 909.955200,196.110748 
	C882.124695,196.110809 854.293762,196.193192 826.464294,196.021820 
	C822.305664,195.996216 820.733887,197.173691 821.164612,201.351471 
	C821.466309,204.277512 821.222839,207.259735 821.222839,210.755371 
	C846.518005,210.755371 871.253845,210.755371 896.193604,210.755371 
	C896.193604,220.696930 896.193604,230.091629 896.193604,239.973633 
	C871.227417,239.973633 846.480896,239.973633 821.223145,239.973633 
	C821.223145,243.075119 821.444336,245.720612 821.172180,248.314331 
	C820.747253,252.363754 822.068970,253.833740 826.370544,253.740158 
	C839.029907,253.464828 851.699158,253.642242 864.364502,253.642288 
	C881.164368,253.642349 897.964172,253.642288 915.053589,253.642288 
	C915.053589,264.425690 915.053589,274.851349 915.053589,285.598663 
	C871.085938,285.598663 827.039246,285.598663 782.420532,285.598663 
	C782.420532,279.082672 782.420532,272.790955 782.420471,265.999359 
z"/>
<path fill="#F9F9FA" opacity="1.000000" stroke="none" 
	d="
M751.570068,266.529694 
	C745.383911,274.364471 739.426697,281.919098 733.180298,289.840454 
	C722.260498,281.834045 711.678650,274.078766 701.100403,266.318451 
	C691.431335,259.225159 681.696167,252.218719 672.144958,244.969986 
	C669.523132,242.980179 667.574585,242.555771 664.663452,244.489380 
	C658.152832,248.813782 651.284668,252.600418 644.784058,256.938721 
	C643.335876,257.905182 642.045776,260.214020 641.978821,261.954620 
	C641.679382,269.744263 641.848633,277.551910 641.848633,285.636047 
	C628.949158,285.636047 616.363098,285.636047 603.341614,285.636047 
	C603.341614,245.337128 603.341614,204.976547 603.341614,164.285431 
	C616.001526,164.285431 628.716675,164.285431 641.863647,164.285431 
	C641.863647,181.826431 641.863647,199.233292 641.863647,217.738266 
	C672.878967,198.250778 703.093201,179.266647 733.856018,159.937820 
	C740.514832,169.846939 747.069092,179.600449 753.897766,189.762344 
	C736.421387,200.488937 719.168945,211.078094 701.141785,222.142731 
	C719.564819,235.385361 737.436523,248.231705 755.601379,261.288788 
	C754.179993,263.143250 752.989502,264.696381 751.570068,266.529694 
z"/>
<path fill="#F8F8F9" opacity="1.000000" stroke="none" 
	d="
M652.284912,105.000122 
	C652.284912,115.266716 652.284912,125.033310 652.284912,135.834488 
	C632.195984,123.440750 612.939880,111.560829 592.984558,99.249527 
	C592.984558,110.598625 592.984558,121.004478 592.984558,131.693268 
	C585.869751,131.693268 579.141541,131.693268 572.153564,131.693268 
	C572.153564,108.841660 572.153564,86.083908 572.153564,62.352856 
	C591.783569,74.459198 611.028931,86.328308 630.956787,98.618309 
	C630.956787,87.527100 630.956787,77.163559 630.956787,66.412048 
	C638.143127,66.412048 644.860596,66.412048 652.284912,66.412048 
	C652.284912,79.018730 652.284912,91.759422 652.284912,105.000122 
z"/>
<path fill="#F8F9FA" opacity="1.000000" stroke="none" 
	d="
M570.082886,196.000031 
	C570.082886,226.110229 570.082886,255.720428 570.082886,285.630951 
	C557.162903,285.630951 544.463318,285.630951 531.473938,285.630951 
	C531.473938,245.229507 531.473938,205.017487 531.473938,164.376480 
	C544.088318,164.376480 556.778931,164.376480 570.082886,164.376480 
	C570.082886,174.667480 570.082886,185.083755 570.082886,196.000031 
z"/>
<path fill="#F8F8F9" opacity="1.000000" stroke="none" 
	d="
M911.020569,133.150787 
	C908.735352,133.035553 906.936768,132.939102 904.894653,132.829605 
	C904.894653,110.364693 904.894653,88.148003 904.894653,65.400383 
	C909.875916,65.092644 914.793335,64.720131 919.717529,64.497444 
	C934.848267,63.813210 950.001770,63.130219 964.865234,66.956467 
	C968.195618,67.813820 971.552063,69.092529 974.491333,70.853577 
	C985.404846,77.392395 985.120483,91.239754 974.103699,97.553566 
	C973.424988,97.942520 972.750061,98.338013 971.470642,99.080086 
	C973.402405,100.028412 974.842529,100.656647 976.208130,101.418312 
	C986.315491,107.055351 987.389404,119.884590 977.306519,125.698334 
	C970.638733,129.542892 962.515991,132.102478 954.846130,132.703598 
	C940.475891,133.829895 925.961609,133.117279 911.020569,133.150787 
M952.685547,116.228622 
	C954.644165,115.885513 956.742676,115.868011 958.520691,115.104340 
	C960.176270,114.393196 961.490662,112.887711 962.955261,111.731911 
	C961.380615,110.518600 959.877319,108.370193 958.219788,108.243835 
	C947.509949,107.427399 936.766357,107.052246 926.092285,106.535210 
	C926.092285,110.436935 926.092285,113.326637 926.092285,116.327644 
	C934.914978,116.327644 943.360291,116.327644 952.685547,116.228622 
M928.864563,81.351501 
	C922.019287,83.112656 927.629089,88.268677 924.621216,92.487923 
	C935.850647,91.945908 945.586121,91.670639 955.275513,90.850296 
	C957.306213,90.678360 959.167053,88.499100 961.106201,87.244843 
	C959.267090,85.678612 957.525818,83.969437 955.543701,82.611977 
	C954.672791,82.015465 953.316101,81.992813 952.171570,81.952888 
	C944.716919,81.692879 937.260071,81.499695 928.864563,81.351501 
z"/>
<path fill="#F7F7F8" opacity="1.000000" stroke="none" 
	d="
M1007.067993,134.176575 
	C1005.716370,134.204651 1004.363831,134.240524 1003.471558,133.617294 
	C999.251709,130.669876 995.157715,127.542320 990.418701,124.034836 
	C1006.679871,103.143639 1022.843201,82.378174 1039.291626,61.246391 
	C1055.679810,82.286293 1071.710815,102.867744 1088.193481,124.029060 
	C1083.007690,127.853119 1077.900146,131.619507 1072.744873,135.421066 
	C1071.998901,134.606720 1071.408325,134.191986 1071.130249,133.624176 
	C1066.517212,124.207024 1059.060913,121.530907 1048.838501,122.603462 
	C1039.619263,123.570755 1030.212036,123.009842 1020.900818,122.711830 
	C1016.965210,122.585869 1014.336548,123.686623 1012.344788,127.087135 
	C1010.925903,129.509613 1008.986328,131.627060 1007.067993,134.176575 
M1032.674072,100.216835 
	C1031.386719,101.956757 1030.099243,103.696678 1028.632324,105.679153 
	C1036.155151,105.679153 1042.813843,105.679153 1050.053589,105.679153 
	C1046.325806,100.765205 1042.974731,96.347885 1039.339966,91.556488 
	C1037.096069,94.452789 1035.093140,97.038170 1032.674072,100.216835 
z"/>
<path fill="#F7F7F8" opacity="1.000000" stroke="none" 
	d="
M506.001587,122.807549 
	C500.172546,122.831963 494.153259,121.320984 489.709656,123.317345 
	C485.361145,125.270981 482.618469,130.799072 478.698883,135.300354 
	C476.442047,133.642502 473.955688,131.820007 471.473663,129.991653 
	C468.943481,128.127792 466.417511,126.258240 463.411652,124.038063 
	C479.679596,103.138985 495.780396,82.454666 512.287415,61.248466 
	C528.697510,82.314949 544.795532,102.980751 561.177246,124.010727 
	C555.927063,127.889206 550.897339,131.604782 545.731934,135.420609 
	C544.879700,134.434097 544.045227,133.791443 543.635132,132.943512 
	C539.386292,124.159325 532.418945,121.426872 522.975281,122.677971 
	C517.572937,123.393684 511.998199,122.807556 506.001587,122.807549 
M520.614258,106.008286 
	C520.966614,105.280434 521.820496,104.192963 521.595459,103.879250 
	C518.696777,99.837387 515.644226,95.905853 512.281860,91.488136 
	C508.644806,96.293602 505.230469,100.804825 501.291229,106.009590 
	C508.195740,106.009590 513.987854,106.009590 520.614258,106.008286 
z"/>
<path fill="#F7F7F8" opacity="1.000000" stroke="none" 
	d="
M747.000000,65.999168 
	C760.933105,65.999168 774.366272,65.999168 787.905762,65.999168 
	C787.905762,72.065987 787.905762,77.631981 787.905762,83.611595 
	C777.885864,83.611595 768.130249,83.611595 757.740112,83.611595 
	C757.740112,91.939240 757.740112,99.865196 757.740112,107.791153 
	C757.740112,115.597824 757.740112,123.404503 757.740112,131.605240 
	C750.488037,131.605240 743.461243,131.605240 736.012573,131.605240 
	C736.012573,115.915085 736.012573,100.185814 736.012573,83.770859 
	C725.601257,83.770859 715.578125,83.770859 705.351196,83.770859 
	C705.351196,77.645401 705.351196,72.206230 705.351196,65.999168 
	C719.042969,65.999168 732.771484,65.999168 747.000000,65.999168 
z"/>
<path fill="#F8F8F9" opacity="1.000000" stroke="none" 
	d="
M857.328064,132.600342 
	C844.404236,134.930206 832.068970,134.479599 820.066345,129.993622 
	C804.584045,124.207085 795.625244,112.329140 796.011597,98.033356 
	C796.287354,87.830055 801.118469,79.966606 809.128723,73.968704 
	C826.860657,60.691444 859.037720,60.653847 876.890381,73.814270 
	C894.798157,87.015320 894.959839,111.389824 876.684265,124.085686 
	C871.112061,127.956604 864.093262,129.744995 857.328064,132.600342 
M853.025818,114.805603 
	C854.426758,114.295441 855.867432,113.873047 857.221863,113.260132 
	C863.493713,110.422150 868.284729,106.333252 868.169556,98.764961 
	C868.058350,91.454483 863.414368,87.348579 857.243408,84.774071 
	C848.458557,81.109070 839.451233,81.124992 830.490295,84.126785 
	C822.578552,86.777122 817.919434,92.480659 817.944519,99.069397 
	C817.969421,105.612122 822.531494,111.946892 830.669983,113.701958 
	C837.618591,115.200424 845.014526,114.624718 853.025818,114.805603 
z"/>
<path fill="#FAFAFB" opacity="1.000000" stroke="none" 
	d="
M691.613770,66.426430 
	C691.966492,88.342812 691.966492,109.929939 691.966492,131.754242 
	C684.955078,131.754242 678.227417,131.754242 671.265381,131.754242 
	C671.265381,109.876335 671.265381,88.174797 671.265381,66.097176 
	C678.047302,66.097176 684.654175,66.097176 691.613770,66.426430 
z"/>
<path fill="#3E4443" opacity="1.000000" stroke="none" 
	d="
M463.411713,242.480301 
	C468.656860,246.703156 468.502625,251.640411 462.590027,253.580414 
	C455.729401,255.831467 448.406311,257.369598 441.207855,257.740631 
	C428.586395,258.391144 415.905518,257.807007 403.252716,257.977783 
	C399.278046,258.031403 397.967590,256.586792 398.225891,252.697784 
	C398.521484,248.247864 398.294403,243.763199 398.294403,238.827850 
	C400.640198,238.721710 402.592255,238.514542 404.537750,238.564072 
	C420.668304,238.974777 436.802551,239.313614 452.923431,239.972855 
	C456.333679,240.112289 459.693878,241.476028 463.411713,242.480301 
M453.777924,243.391144 
	C437.887054,242.912079 421.997437,242.384232 406.104645,241.980469 
	C400.565979,241.839783 402.264648,246.174591 401.952850,249.193756 
	C401.638123,252.241653 402.181000,254.247086 406.099457,254.123337 
	C414.072205,253.871567 422.068329,254.277573 430.035217,253.944000 
	C439.086487,253.565018 448.142120,252.893753 457.135742,251.837524 
	C459.166321,251.599030 460.948425,249.244934 462.844910,247.864716 
	C461.210236,246.750702 459.644470,245.509369 457.914001,244.572281 
	C456.936615,244.043015 455.688232,244.014267 453.777924,243.391144 
z"/>
<path fill="#3D4242" opacity="1.000000" stroke="none" 
	d="
M445.148041,210.063049 
	C429.570221,210.085678 414.447784,210.085678 398.390961,210.085678 
	C398.390961,205.103317 398.307220,199.540298 398.498779,193.986786 
	C398.522247,193.306061 400.037018,192.086014 400.831299,192.109497 
	C418.415100,192.629272 436.008911,193.049500 453.565247,194.089508 
	C457.994934,194.351913 463.168610,195.786224 463.899231,201.678741 
	C464.367401,205.454453 460.772797,207.730591 453.007782,209.077789 
	C450.557739,209.502838 448.072571,209.725250 445.148041,210.063049 
M420.506287,194.951385 
	C414.477020,195.170578 408.447754,195.389755 402.350861,195.611404 
	C402.152008,197.925888 401.993774,199.059753 401.966888,200.196701 
	C401.806213,206.994522 401.823669,207.200974 408.623779,206.960007 
	C423.655426,206.427353 438.685791,205.778290 453.698059,204.869659 
	C455.802582,204.742279 457.802399,202.885468 459.850708,201.829224 
	C458.098633,200.323135 456.387329,198.764725 454.566223,197.347382 
	C454.104156,196.987732 453.296906,197.012802 452.641083,196.969635 
	C442.262634,196.286377 431.883026,195.620834 420.506287,194.951385 
z"/>
<path fill="#3B4140" opacity="1.000000" stroke="none" 
	d="
M952.245605,116.278137 
	C943.360291,116.327644 934.914978,116.327644 926.092285,116.327644 
	C926.092285,113.326637 926.092285,110.436935 926.092285,106.535210 
	C936.766357,107.052246 947.509949,107.427399 958.219788,108.243835 
	C959.877319,108.370193 961.380615,110.518600 962.955261,111.731911 
	C961.490662,112.887711 960.176270,114.393196 958.520691,115.104340 
	C956.742676,115.868011 954.644165,115.885513 952.245605,116.278137 
M930.198975,112.800056 
	C939.040833,112.768074 947.882690,112.736084 956.724487,112.704102 
	C956.710144,112.249695 956.695801,111.795296 956.681396,111.340897 
	C948.812561,110.880615 940.946960,110.315239 933.071411,110.074493 
	C931.903381,110.038788 930.688599,111.534874 930.198975,112.800056 
z"/>
<path fill="#3B4140" opacity="1.000000" stroke="none" 
	d="
M929.334229,81.318069 
	C937.260071,81.499695 944.716919,81.692879 952.171570,81.952888 
	C953.316101,81.992813 954.672791,82.015465 955.543701,82.611977 
	C957.525818,83.969437 959.267090,85.678612 961.106201,87.244835 
	C959.167053,88.499100 957.306213,90.678360 955.275513,90.850296 
	C945.586121,91.670639 935.850647,91.945908 924.621216,92.487923 
	C927.629089,88.268677 922.019287,83.112656 929.334229,81.318069 
M937.488098,89.039032 
	C943.663086,88.508644 949.838074,87.978256 956.013062,87.447861 
	C954.317383,85.852837 952.748718,85.134598 951.155945,85.076263 
	C946.359924,84.900635 941.530334,84.688934 936.762451,85.081367 
	C934.216553,85.290909 930.703552,82.993973 929.150696,87.142548 
	C931.614136,87.774773 934.077637,88.406990 937.488098,89.039032 
z"/>
<path fill="#3A403E" opacity="1.000000" stroke="none" 
	d="
M1032.882080,99.920197 
	C1035.093140,97.038170 1037.096069,94.452789 1039.339966,91.556488 
	C1042.974731,96.347885 1046.325806,100.765205 1050.053589,105.679153 
	C1042.813843,105.679153 1036.155151,105.679153 1028.632324,105.679153 
	C1030.099243,103.696678 1031.386719,101.956757 1032.882080,99.920197 
z"/>
<path fill="#3A403E" opacity="1.000000" stroke="none" 
	d="
M520.197083,106.008942 
	C513.987854,106.009590 508.195740,106.009590 501.291229,106.009590 
	C505.230469,100.804825 508.644806,96.293602 512.281860,91.488136 
	C515.644226,95.905853 518.696777,99.837387 521.595459,103.879250 
	C521.820496,104.192963 520.966614,105.280434 520.197083,106.008942 
z"/>
<path fill="#3C4241" opacity="1.000000" stroke="none" 
	d="
M852.619202,114.886047 
	C845.014526,114.624718 837.618591,115.200424 830.669983,113.701958 
	C822.531494,111.946892 817.969421,105.612122 817.944519,99.069397 
	C817.919434,92.480659 822.578552,86.777122 830.490295,84.126785 
	C839.451233,81.124992 848.458557,81.109070 857.243408,84.774071 
	C863.414368,87.348579 868.058350,91.454483 868.169556,98.764961 
	C868.284729,106.333252 863.493713,110.422150 857.221863,113.260132 
	C855.867432,113.873047 854.426758,114.295441 852.619202,114.886047 
M847.645508,112.045433 
	C851.248596,110.959991 855.245178,110.532967 858.378235,108.660889 
	C866.518372,103.796898 866.915527,96.827858 859.951538,90.467506 
	C852.532532,83.691574 832.820374,83.935303 825.546814,90.898201 
	C818.537842,97.607750 821.382629,104.702560 828.053589,109.025703 
	C833.819458,112.762383 840.348999,112.304047 847.645508,112.045433 
z"/>
<path fill="#000000" opacity="1.000000" stroke="none" 
	d="
M454.169922,243.575607 
	C455.688232,244.014267 456.936615,244.043015 457.914001,244.572281 
	C459.644470,245.509369 461.210236,246.750702 462.844910,247.864716 
	C460.948425,249.244934 459.166321,251.599030 457.135742,251.837524 
	C448.142120,252.893753 439.086487,253.565018 430.035217,253.944000 
	C422.068329,254.277573 414.072205,253.871567 406.099457,254.123337 
	C402.181000,254.247086 401.638123,252.241653 401.952850,249.193756 
	C402.264648,246.174591 400.565979,241.839783 406.104645,241.980469 
	C421.997437,242.384232 437.887054,242.912079 454.169922,243.575607 
z"/>
<path fill="#000000" opacity="1.000000" stroke="none" 
	d="
M421.004974,194.951309 
	C431.883026,195.620834 442.262634,196.286377 452.641083,196.969635 
	C453.296906,197.012802 454.104156,196.987732 454.566223,197.347382 
	C456.387329,198.764725 458.098633,200.323135 459.850708,201.829208 
	C457.802399,202.885468 455.802582,204.742279 453.698059,204.869659 
	C438.685791,205.778290 423.655426,206.427353 408.623779,206.960007 
	C401.823669,207.200974 401.806213,206.994522 401.966888,200.196701 
	C401.993774,199.059753 402.152008,197.925888 402.350861,195.611404 
	C408.447754,195.389755 414.477020,195.170578 421.004974,194.951309 
z"/>
<path fill="#000000" opacity="1.000000" stroke="none" 
	d="
M929.847168,112.561172 
	C930.688599,111.534874 931.903381,110.038788 933.071411,110.074493 
	C940.946960,110.315239 948.812561,110.880615 956.681396,111.340897 
	C956.695801,111.795296 956.710144,112.249695 956.724487,112.704102 
	C947.882690,112.736084 939.040833,112.768074 929.847168,112.561172 
z"/>
<path fill="#000000" opacity="1.000000" stroke="none" 
	d="
M937.014587,89.039124 
	C934.077637,88.406990 931.614136,87.774773 929.150696,87.142548 
	C930.703552,82.993973 934.216553,85.290909 936.762451,85.081367 
	C941.530334,84.688934 946.359924,84.900635 951.155945,85.076263 
	C952.748718,85.134598 954.317383,85.852837 956.013062,87.447861 
	C949.838074,87.978256 943.663086,88.508644 937.014587,89.039124 
z"/>
<path fill="#000000" opacity="1.000000" stroke="none" 
	d="
M847.225220,112.048302 
	C840.348999,112.304047 833.819458,112.762383 828.053589,109.025703 
	C821.382629,104.702560 818.537842,97.607750 825.546814,90.898201 
	C832.820374,83.935303 852.532532,83.691574 859.951538,90.467506 
	C866.915527,96.827858 866.518372,103.796898 858.378235,108.660889 
	C855.245178,110.532967 851.248596,110.959991 847.225220,112.048302 
z"/>
</svg>