<?xml version="1.0" standalone="no"?>
<!DOCTYPE svg PUBLIC "-//W3C//DTD SVG 20010904//EN"
 "http://www.w3.org/TR/2001/REC-SVG-20010904/DTD/svg10.dtd">
<svg version="1.0" xmlns="http://www.w3.org/2000/svg"
 width="300.000000pt" height="171.000000pt" viewBox="0 0 300.000000 171.000000"
 preserveAspectRatio="xMidYMid meet">
<metadata>
Created by potrace 1.10, written by Peter Selinger 2001-2011
</metadata>
<g transform="translate(0.000000,171.000000) scale(0.100000,-0.100000)"
fill="#000000" stroke="none">
<path d="M1510 1251 c0 -6 15 -11 33 -13 20 -2 32 -8 32 -18 0 -21 -132 -43
-139 -23 -3 7 -1 13 4 13 6 0 10 5 10 10 0 6 -18 10 -40 10 -42 0 -56 -16 -17
-22 14 -2 23 -11 25 -25 4 -25 -8 -29 -38 -13 -48 26 -120 -29 -120 -89 0 -21
7 -46 15 -57 8 -10 15 -21 15 -24 0 -3 -106 -4 -235 -2 -206 2 -235 1 -235
-13 0 -13 75 -15 681 -15 540 0 680 3 676 13 -3 9 -60 12 -240 12 -131 0 -237
3 -237 6 0 4 7 12 15 19 18 15 20 82 4 112 -13 25 -69 49 -97 41 -19 -5 -22
-1 -22 29 0 19 -5 39 -12 46 -14 14 -78 16 -78 3z m29 -111 c-51 -45 -65 -49
-72 -17 -10 39 -8 42 30 48 88 14 90 13 42 -31z m-146 3 c4 -3 -7 -18 -25 -33
-35 -30 -31 -50 9 -50 30 0 23 -12 -9 -17 -12 -2 -30 6 -40 17 -19 21 -19 21
6 41 36 29 33 45 -4 19 -38 -27 -39 -61 -4 -89 l26 -21 29 21 c38 27 60 20 31
-9 -69 -69 -177 34 -110 105 21 22 76 32 91 16z m297 -15 c26 -28 26 -82 0
-108 -66 -66 -171 30 -116 106 16 22 16 22 39 -29 19 -42 43 -43 27 -1 -6 14
-7 30 -4 36 4 6 2 8 -4 4 -6 -3 -13 -2 -17 4 -13 21 54 10 75 -12z m-148 -43
c-3 -22 2 -45 12 -60 9 -13 16 -26 16 -27 0 -2 -34 -3 -75 -3 -41 0 -75 2 -75
5 1 16 30 40 49 40 12 0 24 8 28 18 5 13 42 62 48 62 0 0 -1 -16 -3 -35z m-62
-15 c0 -5 -22 -7 -52 -3 -72 8 -73 13 -5 13 32 0 57 -4 57 -10z"/>
<path d="M1656 1122 c-9 -14 4 -43 16 -36 5 3 4 -3 -4 -15 -7 -11 -18 -23 -26
-26 -19 -7 -53 31 -45 52 5 17 5 17 -12 1 -15 -14 -16 -20 -5 -32 7 -9 9 -16
4 -16 -5 0 4 -9 20 -19 33 -22 54 -16 79 22 14 22 14 26 -3 51 -10 16 -20 23
-24 18z"/>
<path d="M970 1070 c0 -20 5 -21 107 -18 93 3 108 5 111 21 3 15 -7 17 -107
17 -105 0 -111 -1 -111 -20z"/>
<path d="M1802 1073 c3 -16 18 -18 116 -21 107 -3 112 -2 112 18 0 19 -6 20
-116 20 -105 0 -115 -2 -112 -17z"/>
<path d="M825 908 c-3 -8 -4 -79 -3 -158 3 -121 5 -145 18 -145 12 0 16 21 20
110 3 61 8 106 11 100 4 -5 14 -34 24 -63 9 -30 21 -50 25 -45 4 4 16 33 26
63 l19 55 5 -98 c3 -53 8 -97 13 -97 4 0 12 0 17 0 6 0 10 55 10 146 l0 145
-27 -3 c-23 -3 -29 -12 -46 -62 l-20 -60 -21 60 c-16 46 -26 60 -44 62 -12 2
-24 -3 -27 -10z"/>
<path d="M1080 833 c-7 -49 -16 -108 -20 -133 -9 -48 -1 -66 24 -57 11 4 16
19 16 47 0 38 2 40 30 40 26 0 30 -4 30 -27 0 -38 14 -57 35 -49 12 4 15 13
12 29 -3 12 -13 70 -23 130 l-17 107 -37 0 -38 0 -12 -87z m60 5 c0 -13 3 -33
6 -45 5 -19 2 -23 -16 -23 -18 0 -21 4 -16 23 3 12 6 32 6 45 0 12 5 22 10 22
6 0 10 -10 10 -22z"/>
<path d="M1250 790 c0 -123 1 -130 20 -130 18 0 20 7 21 88 l0 87 30 -75 c38
-92 47 -104 66 -89 10 9 13 38 11 128 -3 100 -5 116 -20 119 -15 3 -18 -7 -20
-70 l-3 -73 -28 73 c-25 62 -32 72 -53 72 l-24 0 0 -130z"/>
<path d="M1454 907 c-2 -7 -3 -62 -2 -123 3 -94 5 -109 21 -112 15 -3 17 8 17
122 0 107 -2 126 -15 126 -9 0 -18 -6 -21 -13z"/>
<path d="M1537 913 c-15 -15 -6 -33 18 -33 24 0 24 -1 27 -102 3 -89 5 -103
21 -106 15 -3 17 7 17 102 l0 106 25 0 c18 0 25 5 25 20 0 18 -7 20 -63 20
-35 0 -67 -3 -70 -7z"/>
<path d="M1711 906 c-8 -9 -11 -50 -9 -117 3 -104 3 -104 32 -118 20 -9 37
-11 55 -5 26 9 26 11 29 123 2 85 -1 117 -10 123 -21 13 -85 9 -97 -6z m72
-116 c1 -78 -1 -85 -18 -85 -18 0 -20 8 -23 88 -3 86 -2 88 19 85 20 -3 22 -9
22 -88z"/>
<path d="M1867 913 c-10 -9 -9 -251 1 -256 4 -3 28 -7 53 -11 63 -9 79 7 79
79 0 30 -5 57 -10 60 -7 4 -7 12 0 25 16 29 12 75 -8 93 -19 17 -102 24 -115
10z m91 -65 c3 -25 0 -28 -27 -28 -28 0 -31 3 -31 31 0 27 3 30 28 27 21 -2
28 -9 30 -30z m0 -112 c4 -45 -5 -58 -36 -50 -19 5 -22 13 -22 51 0 42 1 44
28 41 24 -3 27 -8 30 -42z"/>
<path d="M2070 910 c0 -6 -9 -70 -20 -142 -15 -96 -18 -134 -10 -142 16 -15
40 19 40 57 0 25 3 28 28 25 22 -2 28 -9 30 -33 5 -54 12 -75 27 -75 7 0 16 4
19 8 3 5 -5 75 -17 158 l-22 149 -37 3 c-23 2 -38 -1 -38 -8z m50 -82 c0 -18
3 -43 6 -55 7 -24 -2 -29 -24 -15 -8 6 -10 22 -6 55 8 54 24 63 24 15z"/>
<path d="M1260 540 l0 -71 43 3 42 3 0 65 0 65 -42 3 -43 3 0 -71z"/>
<path d="M1390 539 c0 -52 3 -70 13 -67 7 3 13 29 15 71 2 55 0 67 -13 67 -12
0 -15 -14 -15 -71z"/>
<path d="M1462 543 c2 -42 8 -68 16 -71 8 -2 12 7 12 30 l0 33 20 -32 c19 -32
40 -44 40 -22 0 6 -9 23 -20 39 -20 28 -20 28 0 53 11 14 20 28 20 31 0 14
-23 4 -41 -16 l-18 -23 -1 23 c0 13 -6 22 -15 22 -13 0 -15 -12 -13 -67z"/>
<path d="M1584 596 c-3 -7 -4 -38 -2 -67 l3 -54 38 -3 c28 -2 37 0 37 12 0 10
-9 16 -25 16 -16 0 -25 6 -25 15 0 8 9 15 20 15 11 0 20 7 20 16 0 11 -6 14
-20 9 -16 -5 -20 -2 -20 15 0 17 4 19 25 14 19 -5 25 -2 25 10 0 21 -68 23
-76 2z"/>
<path d="M1694 583 c-6 -21 -2 -31 19 -48 32 -25 34 -33 7 -37 -31 -5 -29 -23
2 -26 43 -5 54 29 23 66 -30 36 -31 42 -5 42 11 0 20 7 20 15 0 10 -10 15 -30
15 -24 0 -31 -5 -36 -27z"/>
<path d="M822 548 c4 -10 52 -14 186 -16 158 -2 182 0 182 13 0 13 -26 15
-186 15 -144 0 -185 -3 -182 -12z"/>
<path d="M1833 548 c3 -10 46 -13 172 -13 126 0 169 3 173 13 3 9 -36 12 -173
12 -137 0 -176 -3 -172 -12z"/>
</g>
</svg>
